STARTFONT 2.1
COMMENT 
COMMENT  14x14 JIS X 0213-2000 Kanji Font, Version 0.99a (May 7, 2001)
COMMENT  This bdf font set was rescaled from 
COMMENT  jikan16-2000-[12].bdf and merged with k14.bdf and KANOU-patch
COMMENT  by
COMMENT     Toshiyuki Imamura <imamura@mbd.sphere.ne.jp>
COMMENT 
FONT -Misc-Fixed-Medium-R-Normal--14-130-75-75-C-140-JISX0213.2000-1
SIZE 14 75 75
FONTBOUNDINGBOX 14 14 0 -2
STARTPROPERTIES 19
FONT_ASCENT 12
FONT_DESCENT 2
DEFAULT_CHAR 8481
COPYRIGHT "Public Domain"
FONTNAME_REGISTRY ""
FOUNDRY "Misc"
FAMILY_NAME "Fixed"
WEIGHT_NAME "Medium"
SLANT "R"
SETWIDTH_NAME "Normal"
ADD_STYLE_NAME ""
PIXEL_SIZE 14
POINT_SIZE 130
RESOLUTION_X 75
RESOLUTION_Y 75
SPACING "C"
AVERAGE_WIDTH 140
CHARSET_REGISTRY "JISX0213.2000"
CHARSET_ENCODING "1"
ENDPROPERTIES
CHARS 8787
STARTCHAR 01-01-01
ENCODING 8481
SWIDTH 960 0
DWIDTH 14 0
BBX 14 14 0 -2
BITMAP
0000
0000
0000
0000
0000
0000
0000
0000
0000
0000
0000
0000
0000
0000
ENDCHAR
STARTCHAR 01-01-02
ENCODING 8482
SWIDTH 960 0
DWIDTH 14 0
BBX 14 14 0 -2
BITMAP
0000
0000
0000
0000
0000
0000
0000
0000
0000
0000
4000
3000
1800
0800
ENDCHAR
STARTCHAR 01-01-03
ENCODING 8483
SWIDTH 960 0
DWIDTH 14 0
BBX 14 14 0 -2
BITMAP
0000
0000
0000
0000
0000
0000
0000
0000
0000
0000
3000
4800
4800
3000
ENDCHAR
STARTCHAR 01-01-04
ENCODING 8484
SWIDTH 960 0
DWIDTH 14 0
BBX 14 14 0 -2
BITMAP
0000
0000
0000
0000
0000
0000
0000
0000
0000
0000
6000
6000
2000
4000
ENDCHAR
STARTCHAR 01-01-05
ENCODING 8485
SWIDTH 960 0
DWIDTH 14 0
BBX 14 14 0 -2
BITMAP
0000
0000
0000
0000
0000
0000
0000
0000
0000
0000
0000
6000
6000
0000
ENDCHAR
STARTCHAR 01-01-06
ENCODING 8486
SWIDTH 960 0
DWIDTH 14 0
BBX 14 14 0 -2
BITMAP
0000
0000
0000
0000
0000
0300
0780
0780
0300
0000
0000
0000
0000
0000
ENDCHAR
STARTCHAR 01-01-07
ENCODING 8487
SWIDTH 960 0
DWIDTH 14 0
BBX 14 14 0 -2
BITMAP
0000
0000
0000
0300
0300
0000
0000
0000
0300
0300
0000
0000
0000
0000
ENDCHAR
STARTCHAR 01-01-08
ENCODING 8488
SWIDTH 960 0
DWIDTH 14 0
BBX 14 14 0 -2
BITMAP
0000
0000
0000
0300
0300
0000
0000
0000
0300
0300
0100
0200
0000
0000
ENDCHAR
STARTCHAR 01-01-09
ENCODING 8489
SWIDTH 960 0
DWIDTH 14 0
BBX 14 14 0 -2
BITMAP
0000
0380
04c0
0860
0c60
0c60
00c0
0080
0100
0100
0100
0000
0180
0180
ENDCHAR
STARTCHAR 01-01-10
ENCODING 8490
SWIDTH 960 0
DWIDTH 14 0
BBX 14 14 0 -2
BITMAP
0100
0380
0380
0380
0380
0380
0380
0100
0100
0100
0000
0100
0380
0100
ENDCHAR
STARTCHAR 01-01-11
ENCODING 8491
SWIDTH 960 0
DWIDTH 14 0
BBX 14 14 0 -2
BITMAP
1000
4800
2000
0000
0000
0000
0000
0000
0000
0000
0000
0000
0000
0000
ENDCHAR
STARTCHAR 01-01-12
ENCODING 8492
SWIDTH 960 0
DWIDTH 14 0
BBX 14 14 0 -2
BITMAP
3000
4800
4800
3000
0000
0000
0000
0000
0000
0000
0000
0000
0000
0000
ENDCHAR
STARTCHAR 01-01-13
ENCODING 8493
SWIDTH 960 0
DWIDTH 14 0
BBX 14 14 0 -2
BITMAP
0180
0300
0400
0000
0000
0000
0000
0000
0000
0000
0000
0000
0000
0000
ENDCHAR
STARTCHAR 01-01-14
ENCODING 8494
SWIDTH 960 0
DWIDTH 14 0
BBX 14 14 0 -2
BITMAP
0600
0300
0080
0000
0000
0000
0000
0000
0000
0000
0000
0000
0000
0000
ENDCHAR
STARTCHAR 01-01-15
ENCODING 8495
SWIDTH 960 0
DWIDTH 14 0
BBX 14 14 0 -2
BITMAP
0c60
0c60
0000
0000
0000
0000
0000
0000
0000
0000
0000
0000
0000
0000
ENDCHAR
STARTCHAR 01-01-16
ENCODING 8496
SWIDTH 960 0
DWIDTH 14 0
BBX 14 14 0 -2
BITMAP
0100
0280
0440
0820
0000
0000
0000
0000
0000
0000
0000
0000
0000
0000
ENDCHAR
STARTCHAR 01-01-17
ENCODING 8497
SWIDTH 960 0
DWIDTH 14 0
BBX 14 14 0 -2
BITMAP
fffc
0000
0000
0000
0000
0000
0000
0000
0000
0000
0000
0000
0000
0000
ENDCHAR
STARTCHAR 01-01-18
ENCODING 8498
SWIDTH 960 0
DWIDTH 14 0
BBX 14 14 0 -2
BITMAP
0000
0000
0000
0000
0000
0000
0000
0000
0000
0000
0000
0000
0000
fffc
ENDCHAR
STARTCHAR 01-01-19
ENCODING 8499
SWIDTH 960 0
DWIDTH 14 0
BBX 14 14 0 -2
BITMAP
0000
0000
0000
0000
0c00
0300
0080
0040
0020
0000
0000
0000
0000
0000
ENDCHAR
STARTCHAR 01-01-20
ENCODING 8500
SWIDTH 960 0
DWIDTH 14 0
BBX 14 14 0 -2
BITMAP
0000
0000
0020
0090
0c40
0300
0080
0040
0020
0000
0000
0000
0000
0000
ENDCHAR
STARTCHAR 01-01-21
ENCODING 8501
SWIDTH 960 0
DWIDTH 14 0
BBX 14 14 0 -2
BITMAP
0000
0000
0000
0000
0c00
0300
0080
00c0
0100
0000
0000
0000
0000
0000
ENDCHAR
STARTCHAR 01-01-22
ENCODING 8502
SWIDTH 960 0
DWIDTH 14 0
BBX 14 14 0 -2
BITMAP
0000
0000
0020
0090
0c40
0300
0080
00c0
0100
0000
0000
0000
0000
0000
ENDCHAR
STARTCHAR 01-01-23
ENCODING 8503
SWIDTH 960 0
DWIDTH 14 0
BBX 14 14 0 -2
BITMAP
0000
0000
0000
0000
0440
0440
0440
0880
0880
1100
0000
0000
0000
0000
ENDCHAR
STARTCHAR 01-01-24
ENCODING 8504
SWIDTH 960 0
DWIDTH 14 0
BBX 14 14 0 -2
BITMAP
0100
0100
0280
0440
0820
1010
600c
0fe0
0100
0100
0100
0100
7ffc
0000
ENDCHAR
STARTCHAR 01-01-25
ENCODING 8505
SWIDTH 960 0
DWIDTH 14 0
BBX 14 14 0 -2
BITMAP
0000
0000
0000
0000
0200
0200
03f0
0420
0420
0840
1280
0180
0040
0020
ENDCHAR
STARTCHAR 01-01-26
ENCODING 8506
SWIDTH 960 0
DWIDTH 14 0
BBX 14 14 0 -2
BITMAP
0000
0000
0010
0010
0020
0640
0980
0900
1280
1400
1800
1000
2000
0000
ENDCHAR
STARTCHAR 01-01-27
ENCODING 8507
SWIDTH 960 0
DWIDTH 14 0
BBX 14 14 0 -2
BITMAP
0000
07c0
1830
2008
2008
4004
4004
4004
4004
4004
2008
2008
1830
07c0
ENDCHAR
STARTCHAR 01-01-28
ENCODING 8508
SWIDTH 960 0
DWIDTH 14 0
BBX 14 14 0 -2
BITMAP
0000
0000
0000
0000
0000
0000
40f8
3f00
0000
0000
0000
0000
0000
0000
ENDCHAR
STARTCHAR 01-01-29
ENCODING 8509
SWIDTH 960 0
DWIDTH 14 0
BBX 14 14 0 -2
BITMAP
0000
0000
0000
0000
0000
0000
fffc
0000
0000
0000
0000
0000
0000
0000
ENDCHAR
STARTCHAR 01-01-30
ENCODING 8510
SWIDTH 960 0
DWIDTH 14 0
BBX 14 14 0 -2
BITMAP
0000
0000
0000
0000
0000
0000
07c0
0000
0000
0000
0000
0000
0000
0000
ENDCHAR
STARTCHAR 01-01-31
ENCODING 8511
SWIDTH 960 0
DWIDTH 14 0
BBX 14 14 0 -2
BITMAP
0004
0008
0010
0020
0040
0080
0100
0200
0400
0800
1000
2000
4000
8000
ENDCHAR
STARTCHAR 01-01-32
ENCODING 8512
SWIDTH 960 0
DWIDTH 14 0
BBX 14 14 0 -2
BITMAP
8000
4000
2000
1000
0800
0400
0200
0100
0080
0040
0020
0010
0008
0004
ENDCHAR
STARTCHAR 01-01-33
ENCODING 8513
SWIDTH 960 0
DWIDTH 14 0
BBX 14 14 0 -2
BITMAP
0000
0000
0000
0000
0000
1c00
2208
4110
00e0
0000
0000
0000
0000
0000
ENDCHAR
STARTCHAR 01-01-34
ENCODING 8514
SWIDTH 960 0
DWIDTH 14 0
BBX 14 14 0 -2
BITMAP
0480
0480
0480
0480
0480
0480
0480
0480
0480
0480
0480
0480
0480
0480
ENDCHAR
STARTCHAR 01-01-35
ENCODING 8515
SWIDTH 960 0
DWIDTH 14 0
BBX 14 14 0 -2
BITMAP
0100
0100
0100
0100
0100
0100
0100
0100
0100
0100
0100
0100
0100
0100
ENDCHAR
STARTCHAR 01-01-36
ENCODING 8516
SWIDTH 960 0
DWIDTH 14 0
BBX 14 14 0 -2
BITMAP
0000
0000
0000
0000
0000
0000
3330
3330
0000
0000
0000
0000
0000
0000
ENDCHAR
STARTCHAR 01-01-37
ENCODING 8517
SWIDTH 960 0
DWIDTH 14 0
BBX 14 14 0 -2
BITMAP
0000
0000
0000
0000
0000
0000
1860
1860
0000
0000
0000
0000
0000
0000
ENDCHAR
STARTCHAR 01-01-38
ENCODING 8518
SWIDTH 960 0
DWIDTH 14 0
BBX 14 14 0 -2
BITMAP
0018
0020
0030
0038
0010
0000
0000
0000
0000
0000
0000
0000
0000
0000
ENDCHAR
STARTCHAR 01-01-39
ENCODING 8519
SWIDTH 960 0
DWIDTH 14 0
BBX 14 14 0 -2
BITMAP
2000
7000
3000
1000
6000
0000
0000
0000
0000
0000
0000
0000
0000
0000
ENDCHAR
STARTCHAR 01-01-40
ENCODING 8520
SWIDTH 960 0
DWIDTH 14 0
BBX 14 14 0 -2
BITMAP
0198
0220
0330
03b8
0110
0000
0000
0000
0000
0000
0000
0000
0000
0000
ENDCHAR
STARTCHAR 01-01-41
ENCODING 8521
SWIDTH 960 0
DWIDTH 14 0
BBX 14 14 0 -2
BITMAP
2200
7700
3300
1100
6600
0000
0000
0000
0000
0000
0000
0000
0000
0000
ENDCHAR
STARTCHAR 01-01-42
ENCODING 8522
SWIDTH 960 0
DWIDTH 14 0
BBX 14 14 0 -2
BITMAP
0008
0010
0020
0060
0040
00c0
00c0
00c0
00c0
0040
0060
0020
0010
0008
ENDCHAR
STARTCHAR 01-01-43
ENCODING 8523
SWIDTH 960 0
DWIDTH 14 0
BBX 14 14 0 -2
BITMAP
4000
2000
1000
1800
0800
0c00
0c00
0c00
0c00
0800
1800
1000
2000
4000
ENDCHAR
STARTCHAR 01-01-44
ENCODING 8524
SWIDTH 960 0
DWIDTH 14 0
BBX 14 14 0 -2
BITMAP
0008
0010
0020
0040
0040
0040
0040
0040
0040
0040
0040
0020
0010
0008
ENDCHAR
STARTCHAR 01-01-45
ENCODING 8525
SWIDTH 960 0
DWIDTH 14 0
BBX 14 14 0 -2
BITMAP
4000
2000
1000
0800
0800
0800
0800
0800
0800
0800
0800
1000
2000
4000
ENDCHAR
STARTCHAR 01-01-46
ENCODING 8526
SWIDTH 960 0
DWIDTH 14 0
BBX 14 14 0 -2
BITMAP
00f8
00c0
00c0
00c0
00c0
00c0
00c0
00c0
00c0
00c0
00c0
00c0
00c0
00f8
ENDCHAR
STARTCHAR 01-01-47
ENCODING 8527
SWIDTH 960 0
DWIDTH 14 0
BBX 14 14 0 -2
BITMAP
7c00
0c00
0c00
0c00
0c00
0c00
0c00
0c00
0c00
0c00
0c00
0c00
0c00
7c00
ENDCHAR
STARTCHAR 01-01-48
ENCODING 8528
SWIDTH 960 0
DWIDTH 14 0
BBX 14 14 0 -2
BITMAP
0018
0020
0060
0060
0060
0040
0180
0040
0060
0060
0060
0060
0020
0018
ENDCHAR
STARTCHAR 01-01-49
ENCODING 8529
SWIDTH 960 0
DWIDTH 14 0
BBX 14 14 0 -2
BITMAP
6000
1000
1800
1800
1800
0800
0600
0800
1800
1800
1800
1800
1000
6000
ENDCHAR
STARTCHAR 01-01-50
ENCODING 8530
SWIDTH 960 0
DWIDTH 14 0
BBX 14 14 0 -2
BITMAP
0008
0010
0020
0040
0080
0100
0200
0200
0100
0080
0040
0020
0010
0008
ENDCHAR
STARTCHAR 01-01-51
ENCODING 8531
SWIDTH 960 0
DWIDTH 14 0
BBX 14 14 0 -2
BITMAP
4000
2000
1000
0800
0400
0200
0100
0100
0200
0400
0800
1000
2000
4000
ENDCHAR
STARTCHAR 01-01-52
ENCODING 8532
SWIDTH 960 0
DWIDTH 14 0
BBX 14 14 0 -2
BITMAP
0048
0048
0090
0090
0120
0120
0240
0240
0120
0120
0090
0090
0048
0048
ENDCHAR
STARTCHAR 01-01-53
ENCODING 8533
SWIDTH 960 0
DWIDTH 14 0
BBX 14 14 0 -2
BITMAP
4800
4800
2400
2400
1200
1200
0900
0900
1200
1200
2400
2400
4800
4800
ENDCHAR
STARTCHAR 01-01-54
ENCODING 8534
SWIDTH 960 0
DWIDTH 14 0
BBX 14 14 0 -2
BITMAP
01f8
0100
0100
0100
0100
0100
0100
0100
0100
0100
0100
0100
0100
0100
ENDCHAR
STARTCHAR 01-01-55
ENCODING 8535
SWIDTH 960 0
DWIDTH 14 0
BBX 14 14 0 -2
BITMAP
0200
0200
0200
0200
0200
0200
0200
0200
0200
0200
0200
0200
0200
7e00
ENDCHAR
STARTCHAR 01-01-56
ENCODING 8536
SWIDTH 960 0
DWIDTH 14 0
BBX 14 14 0 -2
BITMAP
03f8
0208
02f8
0280
0280
0280
0280
0280
0280
0280
0280
0280
0280
0380
ENDCHAR
STARTCHAR 01-01-57
ENCODING 8537
SWIDTH 960 0
DWIDTH 14 0
BBX 14 14 0 -2
BITMAP
0700
0500
0500
0500
0500
0500
0500
0500
0500
0500
0500
7d00
4100
7f00
ENDCHAR
STARTCHAR 01-01-58
ENCODING 8538
SWIDTH 960 0
DWIDTH 14 0
BBX 14 14 0 -2
BITMAP
00f8
00f0
00e0
00e0
00c0
00c0
00c0
00c0
00c0
00c0
00e0
00e0
00f0
00f8
ENDCHAR
STARTCHAR 01-01-59
ENCODING 8539
SWIDTH 960 0
DWIDTH 14 0
BBX 14 14 0 -2
BITMAP
7c00
3c00
1c00
1c00
0c00
0c00
0c00
0c00
0c00
0c00
1c00
1c00
3c00
7c00
ENDCHAR
STARTCHAR 01-01-60
ENCODING 8540
SWIDTH 960 0
DWIDTH 14 0
BBX 14 14 0 -2
BITMAP
0000
0100
0100
0100
0100
0100
3ff8
0100
0100
0100
0100
0100
0100
0000
ENDCHAR
STARTCHAR 01-01-61
ENCODING 8541
SWIDTH 960 0
DWIDTH 14 0
BBX 14 14 0 -2
BITMAP
0000
0000
0000
0000
0000
0000
3ff8
0000
0000
0000
0000
0000
0000
0000
ENDCHAR
STARTCHAR 01-01-62
ENCODING 8542
SWIDTH 960 0
DWIDTH 14 0
BBX 14 14 0 -2
BITMAP
0000
0100
0100
0100
0100
3ff8
0100
0100
0100
0100
0000
3ff8
0000
0000
ENDCHAR
STARTCHAR 01-01-63
ENCODING 8543
SWIDTH 960 0
DWIDTH 14 0
BBX 14 14 0 -2
BITMAP
0000
2008
1010
0820
0440
0280
0100
0280
0440
0820
1010
2008
0000
0000
ENDCHAR
STARTCHAR 01-01-64
ENCODING 8544
SWIDTH 960 0
DWIDTH 14 0
BBX 14 14 0 -2
BITMAP
0000
0100
0380
0100
0000
0000
3ff8
0000
0000
0100
0380
0100
0000
0000
ENDCHAR
STARTCHAR 01-01-65
ENCODING 8545
SWIDTH 960 0
DWIDTH 14 0
BBX 14 14 0 -2
BITMAP
0000
0000
0000
0000
3ff8
0000
0000
0000
3ff8
0000
0000
0000
0000
0000
ENDCHAR
STARTCHAR 01-01-66
ENCODING 8546
SWIDTH 960 0
DWIDTH 14 0
BBX 14 14 0 -2
BITMAP
0000
0080
0080
0080
3ff8
0100
0100
0100
3ff8
0200
0200
0200
0000
0000
ENDCHAR
STARTCHAR 01-01-67
ENCODING 8547
SWIDTH 960 0
DWIDTH 14 0
BBX 14 14 0 -2
BITMAP
0010
0060
0080
0300
0400
1800
2000
1800
0400
0300
0080
0060
0010
0000
ENDCHAR
STARTCHAR 01-01-68
ENCODING 8548
SWIDTH 960 0
DWIDTH 14 0
BBX 14 14 0 -2
BITMAP
2000
1800
0400
0300
0080
0060
0010
0060
0080
0300
0400
1800
2000
0000
ENDCHAR
STARTCHAR 01-01-69
ENCODING 8549
SWIDTH 960 0
DWIDTH 14 0
BBX 14 14 0 -2
BITMAP
0030
00c0
0300
0c00
3000
0c00
0300
00c0
0030
0000
3ff8
0000
3ff8
0000
ENDCHAR
STARTCHAR 01-01-70
ENCODING 8550
SWIDTH 960 0
DWIDTH 14 0
BBX 14 14 0 -2
BITMAP
3000
0c00
0300
00c0
0030
00c0
0300
0c00
3000
0000
3ff8
0000
3ff8
0000
ENDCHAR
STARTCHAR 01-01-71
ENCODING 8551
SWIDTH 960 0
DWIDTH 14 0
BBX 14 14 0 -2
BITMAP
0000
0000
0000
0000
1c70
36d8
2388
2388
36d8
1c70
0000
0000
0000
0000
ENDCHAR
STARTCHAR 01-01-72
ENCODING 8552
SWIDTH 960 0
DWIDTH 14 0
BBX 14 14 0 -2
BITMAP
0000
0000
0100
0380
0100
0000
0000
0000
0000
1010
3838
1010
0000
0000
ENDCHAR
STARTCHAR 01-01-73
ENCODING 8553
SWIDTH 960 0
DWIDTH 14 0
BBX 14 14 0 -2
BITMAP
0000
03f8
0018
0028
0048
0088
1d08
2208
4100
4100
4100
2200
1c00
0000
ENDCHAR
STARTCHAR 01-01-74
ENCODING 8554
SWIDTH 960 0
DWIDTH 14 0
BBX 14 14 0 -2
BITMAP
0000
0380
0440
0820
0820
0820
0440
0380
0100
0100
1ff0
0100
0100
0100
ENDCHAR
STARTCHAR 01-01-75
ENCODING 8555
SWIDTH 960 0
DWIDTH 14 0
BBX 14 14 0 -2
BITMAP
0000
1800
2400
2400
1800
0000
0000
0000
0000
0000
0000
0000
0000
0000
ENDCHAR
STARTCHAR 01-01-76
ENCODING 8556
SWIDTH 960 0
DWIDTH 14 0
BBX 14 14 0 -2
BITMAP
0000
1800
1800
3000
2000
4000
0000
0000
0000
0000
0000
0000
0000
0000
ENDCHAR
STARTCHAR 01-01-77
ENCODING 8557
SWIDTH 960 0
DWIDTH 14 0
BBX 14 14 0 -2
BITMAP
0000
1b00
1b00
3600
2400
4800
0000
0000
0000
0000
0000
0000
0000
0000
ENDCHAR
STARTCHAR 01-01-78
ENCODING 8558
SWIDTH 960 0
DWIDTH 14 0
BBX 14 14 0 -2
BITMAP
0000
3000
48e8
4918
3308
0608
0600
0600
0600
0600
0208
0110
00e0
0000
ENDCHAR
STARTCHAR 01-01-79
ENCODING 8559
SWIDTH 960 0
DWIDTH 14 0
BBX 14 14 0 -2
BITMAP
0000
7838
3010
1820
0c40
3ff0
0680
0300
3ff0
0300
0300
0300
0fc0
0000
ENDCHAR
STARTCHAR 01-01-80
ENCODING 8560
SWIDTH 960 0
DWIDTH 14 0
BBX 14 14 0 -2
BITMAP
0000
0100
07c0
0920
1130
1930
0f00
03c0
0160
1930
1910
0920
07c0
0100
ENDCHAR
STARTCHAR 01-01-81
ENCODING 8561
SWIDTH 960 0
DWIDTH 14 0
BBX 14 14 0 -2
BITMAP
0000
0080
0080
0380
0540
0960
1960
1900
1a00
0a20
0640
0780
0400
0400
ENDCHAR
STARTCHAR 01-01-82
ENCODING 8562
SWIDTH 960 0
DWIDTH 14 0
BBX 14 14 0 -2
BITMAP
0000
00c0
0120
0230
0220
0600
0600
3fe0
0600
3600
4c08
4ff0
39e0
0000
ENDCHAR
STARTCHAR 01-01-83
ENCODING 8563
SWIDTH 960 0
DWIDTH 14 0
BBX 14 14 0 -2
BITMAP
0000
1808
2410
6620
6640
2480
1900
0260
0490
0998
1198
2090
4060
0000
ENDCHAR
STARTCHAR 01-01-84
ENCODING 8564
SWIDTH 960 0
DWIDTH 14 0
BBX 14 14 0 -2
BITMAP
0000
0220
0220
0220
1ff8
0440
0440
0440
0440
3ff0
0880
0880
0880
0880
ENDCHAR
STARTCHAR 01-01-85
ENCODING 8565
SWIDTH 960 0
DWIDTH 14 0
BBX 14 14 0 -2
BITMAP
0000
0700
0880
1880
1900
0e00
0c78
1630
3320
31c0
30c0
1960
0e18
0000
ENDCHAR
STARTCHAR 01-01-86
ENCODING 8566
SWIDTH 960 0
DWIDTH 14 0
BBX 14 14 0 -2
BITMAP
0000
0000
0100
0380
1930
1d70
0380
0380
1d70
1930
0380
0100
0000
0000
ENDCHAR
STARTCHAR 01-01-87
ENCODING 8567
SWIDTH 960 0
DWIDTH 14 0
BBX 14 14 0 -2
BITMAP
0000
0380
0c60
1010
23c8
24c8
44c8
4888
4990
2760
2008
1830
07c0
0000
ENDCHAR
STARTCHAR 01-01-88
ENCODING 8568
SWIDTH 960 0
DWIDTH 14 0
BBX 14 14 0 -2
BITMAP
0380
0440
0440
0600
0300
0380
04c0
0640
0380
0180
00c0
0440
0440
0380
ENDCHAR
STARTCHAR 01-01-89
ENCODING 8569
SWIDTH 960 0
DWIDTH 14 0
BBX 14 14 0 -2
BITMAP
0000
0100
0100
0280
0280
7c7c
3018
0c60
0440
0920
0aa0
1c70
1010
0000
ENDCHAR
STARTCHAR 01-01-90
ENCODING 8570
SWIDTH 960 0
DWIDTH 14 0
BBX 14 14 0 -2
BITMAP
0000
0100
0100
0380
0380
7ffc
3ff8
0fe0
07c0
0fe0
0ee0
1c70
1010
0000
ENDCHAR
STARTCHAR 01-01-91
ENCODING 8571
SWIDTH 960 0
DWIDTH 14 0
BBX 14 14 0 -2
BITMAP
0000
0000
0380
0c60
1010
1010
2008
2008
2008
1010
1010
0c60
0380
0000
ENDCHAR
STARTCHAR 01-01-92
ENCODING 8572
SWIDTH 960 0
DWIDTH 14 0
BBX 14 14 0 -2
BITMAP
0000
0000
0380
0fe0
1ff0
1ff0
3ff8
3ff8
3ff8
1ff0
1ff0
0fe0
0380
0000
ENDCHAR
STARTCHAR 01-01-93
ENCODING 8573
SWIDTH 960 0
DWIDTH 14 0
BBX 14 14 0 -2
BITMAP
0000
0000
0380
0c60
1390
1450
2828
2828
2828
1450
1390
0c60
0380
0000
ENDCHAR
STARTCHAR 01-01-94
ENCODING 8574
SWIDTH 960 0
DWIDTH 14 0
BBX 14 14 0 -2
BITMAP
0000
0100
0280
0440
0820
1010
2008
4004
2008
1010
0820
0440
0280
0100
ENDCHAR
STARTCHAR 01-02-01
ENCODING 8737
SWIDTH 960 0
DWIDTH 14 0
BBX 14 14 0 -2
BITMAP
0000
0100
0380
07c0
0fe0
1ff0
3ff8
7ffc
3ff8
1ff0
0fe0
07c0
0380
0100
ENDCHAR
STARTCHAR 01-02-02
ENCODING 8738
SWIDTH 960 0
DWIDTH 14 0
BBX 14 14 0 -2
BITMAP
0000
7ff8
4008
4008
4008
4008
4008
4008
4008
4008
4008
4008
7ff8
0000
ENDCHAR
STARTCHAR 01-02-03
ENCODING 8739
SWIDTH 960 0
DWIDTH 14 0
BBX 14 14 0 -2
BITMAP
0000
7ff8
7ff8
7ff8
7ff8
7ff8
7ff8
7ff8
7ff8
7ff8
7ff8
7ff8
7ff8
0000
ENDCHAR
STARTCHAR 01-02-04
ENCODING 8740
SWIDTH 960 0
DWIDTH 14 0
BBX 14 14 0 -2
BITMAP
0000
0100
0100
0280
0280
0440
0440
0820
0820
1010
1010
3ff8
0000
0000
ENDCHAR
STARTCHAR 01-02-05
ENCODING 8741
SWIDTH 960 0
DWIDTH 14 0
BBX 14 14 0 -2
BITMAP
0000
0100
0100
0380
0380
07c0
07c0
0fe0
0fe0
1ff0
1ff0
3ff8
0000
0000
ENDCHAR
STARTCHAR 01-02-06
ENCODING 8742
SWIDTH 960 0
DWIDTH 14 0
BBX 14 14 0 -2
BITMAP
0000
3ff8
1010
1010
0820
0820
0440
0440
0280
0280
0100
0100
0000
0000
ENDCHAR
STARTCHAR 01-02-07
ENCODING 8743
SWIDTH 960 0
DWIDTH 14 0
BBX 14 14 0 -2
BITMAP
0000
3ff8
1ff0
1ff0
0fe0
0fe0
07c0
07c0
0380
0380
0100
0100
0000
0000
ENDCHAR
STARTCHAR 01-02-08
ENCODING 8744
SWIDTH 960 0
DWIDTH 14 0
BBX 14 14 0 -2
BITMAP
0000
0000
2108
1390
0920
0440
1290
3938
1290
0440
0920
1390
2108
0000
ENDCHAR
STARTCHAR 01-02-09
ENCODING 8745
SWIDTH 960 0
DWIDTH 14 0
BBX 14 14 0 -2
BITMAP
0000
3ff0
3ff0
0000
0000
7ff8
7ff8
0300
0300
0300
0300
0300
0300
0000
ENDCHAR
STARTCHAR 01-02-10
ENCODING 8746
SWIDTH 960 0
DWIDTH 14 0
BBX 14 14 0 -2
BITMAP
0000
0000
0000
0100
0080
0060
7ff8
0060
0080
0100
0000
0000
0000
0000
ENDCHAR
STARTCHAR 01-02-11
ENCODING 8747
SWIDTH 960 0
DWIDTH 14 0
BBX 14 14 0 -2
BITMAP
0000
0000
0000
0200
0400
1800
7ff8
1800
0400
0200
0000
0000
0000
0000
ENDCHAR
STARTCHAR 01-02-12
ENCODING 8748
SWIDTH 960 0
DWIDTH 14 0
BBX 14 14 0 -2
BITMAP
0000
0100
0100
0380
0380
0540
0920
0100
0100
0100
0100
0100
0100
0000
ENDCHAR
STARTCHAR 01-02-13
ENCODING 8749
SWIDTH 960 0
DWIDTH 14 0
BBX 14 14 0 -2
BITMAP
0000
0100
0100
0100
0100
0100
0100
0920
0540
0380
0380
0100
0100
0000
ENDCHAR
STARTCHAR 01-02-14
ENCODING 8750
SWIDTH 960 0
DWIDTH 14 0
BBX 14 14 0 -2
BITMAP
0000
0000
0000
0000
3ff0
3ff0
0000
0000
3ff0
3ff0
0000
0000
0000
0000
ENDCHAR
STARTCHAR 01-02-15
ENCODING 8751
SWIDTH 960 0
DWIDTH 14 0
BBX 14 14 0 -2
BITMAP
0000
0300
0300
0100
0200
0000
0000
0000
0000
0000
0000
0000
0000
0000
ENDCHAR
STARTCHAR 01-02-16
ENCODING 8752
SWIDTH 960 0
DWIDTH 14 0
BBX 14 14 0 -2
BITMAP
0000
06c0
06c0
0240
0480
0000
0000
0000
0000
0000
0000
0000
0000
0000
ENDCHAR
STARTCHAR 01-02-17
ENCODING 8753
SWIDTH 960 0
DWIDTH 14 0
BBX 14 14 0 -2
BITMAP
0000
0000
0000
0780
0000
0000
0000
0000
0000
0000
0000
0000
0000
0000
ENDCHAR
STARTCHAR 01-02-18
ENCODING 8754
SWIDTH 960 0
DWIDTH 14 0
BBX 14 14 0 -2
BITMAP
0640
0980
0000
0000
0000
0000
0000
0000
0000
0000
0000
0000
0000
0000
ENDCHAR
STARTCHAR 01-02-19
ENCODING 8755
SWIDTH 960 0
DWIDTH 14 0
BBX 14 14 0 -2
BITMAP
0000
0000
0000
0000
0e00
1180
0040
0030
0008
0004
0000
0000
0000
0000
ENDCHAR
STARTCHAR 01-02-20
ENCODING 8756
SWIDTH 960 0
DWIDTH 14 0
BBX 14 14 0 -2
BITMAP
0400
0800
0200
0400
0e00
1180
0040
0030
0008
0004
0000
0000
0000
0000
ENDCHAR
STARTCHAR 01-02-21
ENCODING 8757
SWIDTH 960 0
DWIDTH 14 0
BBX 14 14 0 -2
BITMAP
0000
0000
0000
0000
00e0
0300
0c00
1000
6000
8000
0000
0000
0000
0000
ENDCHAR
STARTCHAR 01-02-22
ENCODING 8758
SWIDTH 960 0
DWIDTH 14 0
BBX 14 14 0 -2
BITMAP
0000
0000
0400
0300
0180
0380
0400
0800
0800
0600
0300
0180
00c0
0000
ENDCHAR
STARTCHAR 01-02-23
ENCODING 8759
SWIDTH 960 0
DWIDTH 14 0
BBX 14 14 0 -2
BITMAP
fffc
800c
8014
8024
8044
8084
8104
8204
8404
8804
9004
a004
c004
fffc
ENDCHAR
STARTCHAR 01-02-24
ENCODING 8760
SWIDTH 960 0
DWIDTH 14 0
BBX 14 14 0 -2
BITMAP
0000
07f8
0008
0008
0008
0008
0008
0008
0008
0008
0008
0008
0000
0000
ENDCHAR
STARTCHAR 01-02-25
ENCODING 8761
SWIDTH 960 0
DWIDTH 14 0
BBX 14 14 0 -2
BITMAP
0400
0400
07e0
0400
0c00
0980
0a40
0c20
1820
1020
3040
2240
2180
0000
ENDCHAR
STARTCHAR 01-02-26
ENCODING 8762
SWIDTH 960 0
DWIDTH 14 0
BBX 14 14 0 -2
BITMAP
0000
0000
03f0
0c00
1000
2000
3ff0
2000
1000
0c00
03f0
0000
0000
0000
ENDCHAR
STARTCHAR 01-02-27
ENCODING 8763
SWIDTH 960 0
DWIDTH 14 0
BBX 14 14 0 -2
BITMAP
0000
0000
3f00
00c0
0020
0010
3ff0
0010
0020
00c0
3f00
0000
0000
0000
ENDCHAR
STARTCHAR 01-02-28
ENCODING 8764
SWIDTH 960 0
DWIDTH 14 0
BBX 14 14 0 -2
BITMAP
0000
0000
0ff0
1000
2000
2000
2000
1000
0ff0
0000
0000
3ff0
0000
0000
ENDCHAR
STARTCHAR 01-02-29
ENCODING 8765
SWIDTH 960 0
DWIDTH 14 0
BBX 14 14 0 -2
BITMAP
0000
0000
3fc0
0020
0010
0010
0010
0020
3fc0
0000
0000
3ff0
0000
0000
ENDCHAR
STARTCHAR 01-02-30
ENCODING 8766
SWIDTH 960 0
DWIDTH 14 0
BBX 14 14 0 -2
BITMAP
0000
0000
03f0
0c00
1000
2000
2000
2000
2000
1000
0c00
03f0
0000
0000
ENDCHAR
STARTCHAR 01-02-31
ENCODING 8767
SWIDTH 960 0
DWIDTH 14 0
BBX 14 14 0 -2
BITMAP
0000
0000
3f00
00c0
0020
0010
0010
0010
0010
0020
00c0
3f00
0000
0000
ENDCHAR
STARTCHAR 01-02-32
ENCODING 8768
SWIDTH 960 0
DWIDTH 14 0
BBX 14 14 0 -2
BITMAP
0000
0000
2010
2010
2010
2010
2010
2010
1020
1020
0840
0780
0000
0000
ENDCHAR
STARTCHAR 01-02-33
ENCODING 8769
SWIDTH 960 0
DWIDTH 14 0
BBX 14 14 0 -2
BITMAP
0000
0000
0780
0840
1020
1020
2010
2010
2010
2010
2010
2010
0000
0000
ENDCHAR
STARTCHAR 01-02-34
ENCODING 8770
SWIDTH 960 0
DWIDTH 14 0
BBX 14 14 0 -2
BITMAP
0000
0020
03f0
0c40
1040
2080
2100
2100
2200
1400
0c00
0bf0
0800
0000
ENDCHAR
STARTCHAR 01-02-35
ENCODING 8771
SWIDTH 960 0
DWIDTH 14 0
BBX 14 14 0 -2
BITMAP
0000
0040
3f40
00c0
00a0
0110
0210
0210
0410
0820
08c0
3f00
1000
0000
ENDCHAR
STARTCHAR 01-02-36
ENCODING 8772
SWIDTH 960 0
DWIDTH 14 0
BBX 14 14 0 -2
BITMAP
0000
0000
0ff0
1000
2000
2000
2000
1000
0ff0
0080
0080
3ff0
0200
0200
ENDCHAR
STARTCHAR 01-02-37
ENCODING 8773
SWIDTH 960 0
DWIDTH 14 0
BBX 14 14 0 -2
BITMAP
0000
0000
3fc0
0020
0010
0010
0010
0020
3fc0
0080
0080
3ff0
0200
0200
ENDCHAR
STARTCHAR 01-02-38
ENCODING 8774
SWIDTH 960 0
DWIDTH 14 0
BBX 14 14 0 -2
BITMAP
0000
0100
03f0
0d00
1100
2100
3ff0
2100
1100
0d00
03f0
0100
0100
0000
ENDCHAR
STARTCHAR 01-02-39
ENCODING 8775
SWIDTH 960 0
DWIDTH 14 0
BBX 14 14 0 -2
BITMAP
0000
0000
0388
0c70
1030
1050
2088
2108
2208
1410
1810
1c60
2380
0000
ENDCHAR
STARTCHAR 01-02-40
ENCODING 8776
SWIDTH 960 0
DWIDTH 14 0
BBX 14 14 0 -2
BITMAP
0000
0000
0000
0000
7ff8
0300
0480
0840
1020
2010
4008
0000
0000
0000
ENDCHAR
STARTCHAR 01-02-41
ENCODING 8777
SWIDTH 960 0
DWIDTH 14 0
BBX 14 14 0 -2
BITMAP
0000
0000
7ff8
0000
0000
7ff8
0300
0480
0840
1020
2010
4008
0000
0000
ENDCHAR
STARTCHAR 01-02-42
ENCODING 8778
SWIDTH 960 0
DWIDTH 14 0
BBX 14 14 0 -2
BITMAP
0000
0000
0100
0100
0280
0280
0440
0440
0820
0820
1010
1010
0000
0000
ENDCHAR
STARTCHAR 01-02-43
ENCODING 8779
SWIDTH 960 0
DWIDTH 14 0
BBX 14 14 0 -2
BITMAP
0000
0000
1010
1010
0820
0820
0440
0440
0280
0280
0100
0100
0000
0000
ENDCHAR
STARTCHAR 01-02-44
ENCODING 8780
SWIDTH 960 0
DWIDTH 14 0
BBX 14 14 0 -2
BITMAP
0000
0000
0000
0000
0000
0000
3ff0
0010
0010
0010
0010
0010
0000
0000
ENDCHAR
STARTCHAR 01-02-45
ENCODING 8781
SWIDTH 960 0
DWIDTH 14 0
BBX 14 14 0 -2
BITMAP
0000
0000
0000
0040
0020
7ff0
0008
7ff0
0020
0040
0000
0000
0000
0000
ENDCHAR
STARTCHAR 01-02-46
ENCODING 8782
SWIDTH 960 0
DWIDTH 14 0
BBX 14 14 0 -2
BITMAP
0000
0000
0000
0840
1020
3ff0
4008
3ff0
1020
0840
0000
0000
0000
0000
ENDCHAR
STARTCHAR 01-02-47
ENCODING 8783
SWIDTH 960 0
DWIDTH 14 0
BBX 14 14 0 -2
BITMAP
0000
2008
2008
1010
1ff0
0820
0820
0440
0440
0280
0280
0100
0100
0000
ENDCHAR
STARTCHAR 01-02-48
ENCODING 8784
SWIDTH 960 0
DWIDTH 14 0
BBX 14 14 0 -2
BITMAP
0000
1fe0
0020
0020
0020
0020
1fe0
0020
0020
0020
0020
1fe0
0000
0000
ENDCHAR
STARTCHAR 01-02-49
ENCODING 8785
SWIDTH 960 0
DWIDTH 14 0
BBX 14 14 0 -2
BITMAP
0000
0780
1860
2210
2210
4208
5fe8
4208
4208
2210
2210
1860
0780
0000
ENDCHAR
STARTCHAR 01-02-50
ENCODING 8786
SWIDTH 960 0
DWIDTH 14 0
BBX 14 14 0 -2
BITMAP
0000
0780
1860
2010
2010
4008
5fe8
4008
4008
2010
2010
1860
0780
0000
ENDCHAR
STARTCHAR 01-02-51
ENCODING 8787
SWIDTH 960 0
DWIDTH 14 0
BBX 14 14 0 -2
BITMAP
0000
0780
1860
3030
2850
4488
4308
4308
4488
2850
3030
1860
0780
0000
ENDCHAR
STARTCHAR 01-02-52
ENCODING 8788
SWIDTH 960 0
DWIDTH 14 0
BBX 14 14 0 -2
BITMAP
0000
0100
0210
0210
0420
0420
0840
0840
1080
1080
2100
2100
0200
0000
ENDCHAR
STARTCHAR 01-02-53
ENCODING 8789
SWIDTH 960 0
DWIDTH 14 0
BBX 14 14 0 -2
BITMAP
0000
0100
2210
1210
0c20
0420
0a40
0940
1080
10c0
2120
2110
0200
0000
ENDCHAR
STARTCHAR 01-02-54
ENCODING 8790
SWIDTH 960 0
DWIDTH 14 0
BBX 14 14 0 -2
BITMAP
0048
0090
0120
0120
0240
0240
0240
0240
0240
0240
0120
0120
0090
0048
ENDCHAR
STARTCHAR 01-02-55
ENCODING 8791
SWIDTH 960 0
DWIDTH 14 0
BBX 14 14 0 -2
BITMAP
4800
2400
1200
1200
0900
0900
0900
0900
0900
0900
1200
1200
2400
4800
ENDCHAR
STARTCHAR 01-02-56
ENCODING 8792
SWIDTH 960 0
DWIDTH 14 0
BBX 14 14 0 -2
BITMAP
0038
00c0
0318
0260
0280
0280
0280
0280
0280
0280
0260
0318
00c0
0038
ENDCHAR
STARTCHAR 01-02-57
ENCODING 8793
SWIDTH 960 0
DWIDTH 14 0
BBX 14 14 0 -2
BITMAP
7000
0c00
6300
1900
0500
0500
0500
0500
0500
0500
1900
6300
0c00
7000
ENDCHAR
STARTCHAR 01-02-58
ENCODING 8794
SWIDTH 960 0
DWIDTH 14 0
BBX 14 14 0 -2
BITMAP
03f8
0210
0220
0220
0240
0240
0240
0240
0240
0240
0220
0220
0210
03f8
ENDCHAR
STARTCHAR 01-02-59
ENCODING 8795
SWIDTH 960 0
DWIDTH 14 0
BBX 14 14 0 -2
BITMAP
7f00
2100
1100
1100
0900
0900
0900
0900
0900
0900
1100
1100
2100
7f00
ENDCHAR
STARTCHAR 01-02-60
ENCODING 8796
SWIDTH 960 0
DWIDTH 14 0
BBX 14 14 0 -2
BITMAP
0000
0000
0010
0020
0040
0080
0100
0200
0400
0800
1000
3ff0
0000
0000
ENDCHAR
STARTCHAR 01-02-61
ENCODING 8797
SWIDTH 960 0
DWIDTH 14 0
BBX 14 14 0 -2
BITMAP
0000
0000
0100
0100
0100
0100
0100
0100
0100
0100
0100
3ff8
0000
0000
ENDCHAR
STARTCHAR 01-02-62
ENCODING 8798
SWIDTH 960 0
DWIDTH 14 0
BBX 14 14 0 -2
BITMAP
0000
0fe0
3018
4004
0000
0000
0000
0000
0000
0000
0000
0000
0000
0000
ENDCHAR
STARTCHAR 01-02-63
ENCODING 8799
SWIDTH 960 0
DWIDTH 14 0
BBX 14 14 0 -2
BITMAP
0000
01c0
0260
0020
0020
03a0
0660
0460
0c60
0c40
0cc0
0580
0300
0000
ENDCHAR
STARTCHAR 01-02-64
ENCODING 8800
SWIDTH 960 0
DWIDTH 14 0
BBX 14 14 0 -2
BITMAP
0000
0000
3ff8
1ff0
1810
0820
0c20
0440
0640
0280
0380
0100
0100
0000
ENDCHAR
STARTCHAR 01-02-65
ENCODING 8801
SWIDTH 960 0
DWIDTH 14 0
BBX 14 14 0 -2
BITMAP
0000
0000
0000
3ff0
0000
0000
3ff0
0000
0000
3ff0
0000
0000
0000
0000
ENDCHAR
STARTCHAR 01-02-66
ENCODING 8802
SWIDTH 960 0
DWIDTH 14 0
BBX 14 14 0 -2
BITMAP
0000
0000
0800
1c00
0800
3ff0
0000
0000
3ff0
0040
00e0
0040
0000
0000
ENDCHAR
STARTCHAR 01-02-67
ENCODING 8803
SWIDTH 960 0
DWIDTH 14 0
BBX 14 14 0 -2
BITMAP
0000
0110
0220
0440
0880
1100
2200
1100
0880
0440
0220
0110
0000
0000
ENDCHAR
STARTCHAR 01-02-68
ENCODING 8804
SWIDTH 960 0
DWIDTH 14 0
BBX 14 14 0 -2
BITMAP
0000
2200
1100
0880
0440
0220
0110
0220
0440
0880
1100
2200
0000
0000
ENDCHAR
STARTCHAR 01-02-69
ENCODING 8805
SWIDTH 960 0
DWIDTH 14 0
BBX 14 14 0 -2
BITMAP
0000
01f8
0100
0100
0100
0200
0200
0200
2200
7400
1c00
0c00
0400
0000
ENDCHAR
STARTCHAR 01-02-70
ENCODING 8806
SWIDTH 960 0
DWIDTH 14 0
BBX 14 14 0 -2
BITMAP
0000
0000
0000
0000
0c60
1090
2108
2108
1210
0c60
0000
0000
0000
0000
ENDCHAR
STARTCHAR 01-02-71
ENCODING 8807
SWIDTH 960 0
DWIDTH 14 0
BBX 14 14 0 -2
BITMAP
0000
0000
0000
0000
0630
0940
1080
1080
0940
0630
0000
0000
0000
0000
ENDCHAR
STARTCHAR 01-02-72
ENCODING 8808
SWIDTH 960 0
DWIDTH 14 0
BBX 14 14 0 -2
BITMAP
0000
0000
1010
3838
1010
0000
0000
0000
0000
0100
0380
0100
0000
0000
ENDCHAR
STARTCHAR 01-02-73
ENCODING 8809
SWIDTH 960 0
DWIDTH 14 0
BBX 14 14 0 -2
BITMAP
00c0
01c0
0200
0200
0300
0300
0180
0180
00c0
00c0
0040
0040
0380
0300
ENDCHAR
STARTCHAR 01-02-74
ENCODING 8810
SWIDTH 960 0
DWIDTH 14 0
BBX 14 14 0 -2
BITMAP
0660
0ee0
1100
1100
1980
1980
0cc0
0cc0
0660
0660
0220
0220
1dc0
1980
ENDCHAR
STARTCHAR 01-02-75
ENCODING 8811
SWIDTH 960 0
DWIDTH 14 0
BBX 14 14 0 -2
BITMAP
0040
0040
0080
3ff0
0100
0100
3ff0
0200
0200
3ff0
0400
0800
0800
0000
ENDCHAR
STARTCHAR 01-02-76
ENCODING 8812
SWIDTH 960 0
DWIDTH 14 0
BBX 14 14 0 -2
BITMAP
0000
0000
0000
0c00
1210
2120
00c0
0000
0000
0000
3ff0
0000
0000
0000
ENDCHAR
STARTCHAR 01-02-77
ENCODING 8813
SWIDTH 960 0
DWIDTH 14 0
BBX 14 14 0 -2
BITMAP
0000
0000
0000
0c00
1210
2120
00c0
0000
3ff0
0000
0000
3ff0
0000
0000
ENDCHAR
STARTCHAR 01-02-78
ENCODING 8814
SWIDTH 960 0
DWIDTH 14 0
BBX 14 14 0 -2
BITMAP
0000
0000
0000
0c00
1210
2120
00c0
0c00
1210
2120
00c0
0000
0000
0000
ENDCHAR
STARTCHAR 01-02-79
ENCODING 8815
SWIDTH 960 0
DWIDTH 14 0
BBX 14 14 0 -2
BITMAP
0030
01c0
0600
3800
0600
01c0
3030
0e00
0180
0070
0180
0e00
3000
0000
ENDCHAR
STARTCHAR 01-02-80
ENCODING 8816
SWIDTH 960 0
DWIDTH 14 0
BBX 14 14 0 -2
BITMAP
3000
0e00
0180
0070
0180
0e00
3030
01c0
0600
3800
0600
01c0
0030
0000
ENDCHAR
STARTCHAR 01-02-81
ENCODING 8817
SWIDTH 960 0
DWIDTH 14 0
BBX 14 14 0 -2
BITMAP
0000
0000
0000
0840
0840
3030
7ff8
3030
0840
0840
0000
0000
0000
0000
ENDCHAR
STARTCHAR 01-02-82
ENCODING 8818
SWIDTH 960 0
DWIDTH 14 0
BBX 14 14 0 -2
BITMAP
0300
0480
0480
0300
0100
0380
0380
04c0
04c0
0860
0fe0
1030
3878
0000
ENDCHAR
STARTCHAR 01-02-83
ENCODING 8819
SWIDTH 960 0
DWIDTH 14 0
BBX 14 14 0 -2
BITMAP
0000
1820
2440
6680
6680
2500
1a00
0310
06a8
0eec
16ec
12a8
2110
0000
ENDCHAR
STARTCHAR 01-02-84
ENCODING 8820
SWIDTH 960 0
DWIDTH 14 0
BBX 14 14 0 -2
BITMAP
0080
0480
04e0
07e0
1f80
1c80
0480
04e0
07e0
1f80
1c80
0480
0400
0000
ENDCHAR
STARTCHAR 01-02-85
ENCODING 8821
SWIDTH 960 0
DWIDTH 14 0
BBX 14 14 0 -2
BITMAP
0000
0400
0400
0400
0400
0400
05c0
0660
0460
0440
0480
0500
0600
0000
ENDCHAR
STARTCHAR 01-02-86
ENCODING 8822
SWIDTH 960 0
DWIDTH 14 0
BBX 14 14 0 -2
BITMAP
0100
0180
01c0
0160
0120
0130
0110
0110
0110
0720
0f00
0f00
0600
0000
ENDCHAR
STARTCHAR 01-02-87
ENCODING 8823
SWIDTH 960 0
DWIDTH 14 0
BBX 14 14 0 -2
BITMAP
0100
0380
0100
0920
1ff0
0920
0380
0380
0100
0100
0100
0100
0100
0100
ENDCHAR
STARTCHAR 01-02-88
ENCODING 8824
SWIDTH 960 0
DWIDTH 14 0
BBX 14 14 0 -2
BITMAP
0100
0380
0920
1ff0
0920
0380
0100
0100
0380
0920
1ff0
0920
0380
0100
ENDCHAR
STARTCHAR 01-02-89
ENCODING 8825
SWIDTH 960 0
DWIDTH 14 0
BBX 14 14 0 -2
BITMAP
0000
03c0
0740
0740
0740
0340
0140
0140
0140
0140
0140
0140
0140
0000
ENDCHAR
STARTCHAR 01-02-90
ENCODING 8826
SWIDTH 960 0
DWIDTH 14 0
BBX 14 14 0 -2
BITMAP
0000
0800
0840
09c0
0fc0
0e40
0840
0840
09c0
0fc0
0e40
0840
0040
0000
ENDCHAR
STARTCHAR 01-02-91
ENCODING 8827
SWIDTH 960 0
DWIDTH 14 0
BBX 14 14 0 -2
BITMAP
0f00
0ff0
08f0
0810
0810
0810
0810
0810
0810
3810
7870
70f0
60e0
00c0
ENDCHAR
STARTCHAR 01-02-92
ENCODING 8828
SWIDTH 960 0
DWIDTH 14 0
BBX 14 14 0 -2
BITMAP
0f00
0ff0
08f0
0f10
0ff0
08f0
0810
0810
0810
3810
7870
70f0
60e0
00c0
ENDCHAR
STARTCHAR 01-02-93
ENCODING 8829
SWIDTH 960 0
DWIDTH 14 0
BBX 14 14 0 -2
BITMAP
0100
0100
0100
0100
0100
0100
0100
0100
0100
0700
0f00
0f00
0600
0000
ENDCHAR
STARTCHAR 01-02-94
ENCODING 8830
SWIDTH 960 0
DWIDTH 14 0
BBX 14 14 0 -2
BITMAP
0000
07c0
1830
2008
2008
4004
4004
4004
4004
4004
2008
2008
1830
07c0
ENDCHAR
STARTCHAR 01-03-01
ENCODING 8993
SWIDTH 960 0
DWIDTH 14 0
BBX 14 14 0 -2
BITMAP
0000
2000
3800
2600
2180
2060
2018
2060
2180
2600
3800
2000
0000
0000
ENDCHAR
STARTCHAR 01-03-02
ENCODING 8994
SWIDTH 960 0
DWIDTH 14 0
BBX 14 14 0 -2
BITMAP
0000
2000
3800
3e00
3f80
3fe0
3ff8
3fe0
3f80
3e00
3800
2000
0000
0000
ENDCHAR
STARTCHAR 01-03-03
ENCODING 8995
SWIDTH 960 0
DWIDTH 14 0
BBX 14 14 0 -2
BITMAP
0000
0008
0038
00c8
0308
0c08
3008
0c08
0308
00c8
0038
0008
0000
0000
ENDCHAR
STARTCHAR 01-03-04
ENCODING 8996
SWIDTH 960 0
DWIDTH 14 0
BBX 14 14 0 -2
BITMAP
0000
0008
0038
00f8
03f8
0ff8
3ff8
0ff8
03f8
00f8
0038
0008
0000
0000
ENDCHAR
STARTCHAR 01-03-05
ENCODING 8997
SWIDTH 960 0
DWIDTH 14 0
BBX 14 14 0 -2
BITMAP
0000
0008
0030
01f0
0060
00a0
0120
0200
0400
0800
1000
2000
4000
0000
ENDCHAR
STARTCHAR 01-03-06
ENCODING 8998
SWIDTH 960 0
DWIDTH 14 0
BBX 14 14 0 -2
BITMAP
0000
4000
2000
1000
0800
0400
0200
0120
00a0
0060
01f0
0030
0008
0000
ENDCHAR
STARTCHAR 01-03-07
ENCODING 8999
SWIDTH 960 0
DWIDTH 14 0
BBX 14 14 0 -2
BITMAP
0000
4000
3000
3e00
1800
1400
1200
0100
0080
0040
0020
0010
0008
0000
ENDCHAR
STARTCHAR 01-03-08
ENCODING 9000
SWIDTH 960 0
DWIDTH 14 0
BBX 14 14 0 -2
BITMAP
0000
0008
0010
0020
0040
0080
0100
1200
1400
1800
3e00
3000
4000
0000
ENDCHAR
STARTCHAR 01-03-09
ENCODING 9001
SWIDTH 960 0
DWIDTH 14 0
BBX 14 14 0 -2
BITMAP
0000
0100
0080
0060
7ff8
0060
0480
0480
1800
7ff8
1800
0400
0200
0000
ENDCHAR
STARTCHAR 01-03-10
ENCODING 9002
SWIDTH 960 0
DWIDTH 14 0
BBX 14 14 0 -2
BITMAP
0000
0000
0080
00c0
00e0
7fb0
4008
7fb0
00e0
00c0
0080
0000
0000
0000
ENDCHAR
STARTCHAR 01-03-11
ENCODING 9003
SWIDTH 960 0
DWIDTH 14 0
BBX 14 14 0 -2
BITMAP
0000
0000
0400
0c00
1c00
37f8
4008
37f8
1c00
0c00
0400
0000
0000
0000
ENDCHAR
STARTCHAR 01-03-12
ENCODING 9004
SWIDTH 960 0
DWIDTH 14 0
BBX 14 14 0 -2
BITMAP
0200
0500
0d80
18c0
3de0
0500
0500
0500
0500
0500
0500
0500
0700
0000
ENDCHAR
STARTCHAR 01-03-13
ENCODING 9005
SWIDTH 960 0
DWIDTH 14 0
BBX 14 14 0 -2
BITMAP
0000
0700
0500
0500
0500
0500
0500
0500
3de0
18c0
0d80
0500
0700
0200
ENDCHAR
STARTCHAR 01-03-14
ENCODING 9006
SWIDTH 960 0
DWIDTH 14 0
BBX 14 14 0 -2
BITMAP
0000
0020
0020
0070
0070
00a8
0124
0020
0040
0040
0180
7e00
0000
0000
ENDCHAR
STARTCHAR 01-03-15
ENCODING 9007
SWIDTH 960 0
DWIDTH 14 0
BBX 14 14 0 -2
BITMAP
0000
7e00
0180
0040
0040
0020
0124
00a8
0070
0070
0020
0020
0000
0000
ENDCHAR
STARTCHAR 01-03-16
ENCODING 9008
SWIDTH 960 0
DWIDTH 14 0
BBX 14 14 0 -2
BITMAP
0000
0380
0c60
1830
1830
1830
1830
1830
1830
1830
0c60
0380
0000
0000
ENDCHAR
STARTCHAR 01-03-17
ENCODING 9009
SWIDTH 960 0
DWIDTH 14 0
BBX 14 14 0 -2
BITMAP
0000
0100
0300
0f00
0300
0300
0300
0300
0300
0300
0300
0fc0
0000
0000
ENDCHAR
STARTCHAR 01-03-18
ENCODING 9010
SWIDTH 960 0
DWIDTH 14 0
BBX 14 14 0 -2
BITMAP
0000
0780
08c0
1860
1c60
08c0
0080
0100
0200
0420
0fc0
1fc0
0000
0000
ENDCHAR
STARTCHAR 01-03-19
ENCODING 9011
SWIDTH 960 0
DWIDTH 14 0
BBX 14 14 0 -2
BITMAP
0000
0780
08c0
1860
1860
00c0
0380
0040
1860
1860
08c0
0780
0000
0000
ENDCHAR
STARTCHAR 01-03-20
ENCODING 9012
SWIDTH 960 0
DWIDTH 14 0
BBX 14 14 0 -2
BITMAP
0000
00c0
01c0
02c0
02c0
04c0
08c0
18c0
1ff0
00c0
00c0
01e0
0000
0000
ENDCHAR
STARTCHAR 01-03-21
ENCODING 9013
SWIDTH 960 0
DWIDTH 14 0
BBX 14 14 0 -2
BITMAP
0000
0fe0
0fc0
0800
0800
0f80
00c0
0060
0060
1860
18c0
0f00
0000
0000
ENDCHAR
STARTCHAR 01-03-22
ENCODING 9014
SWIDTH 960 0
DWIDTH 14 0
BBX 14 14 0 -2
BITMAP
0000
03c0
0460
0c60
0800
1bc0
1c60
1830
1830
1830
0c60
0380
0000
0000
ENDCHAR
STARTCHAR 01-03-23
ENCODING 9015
SWIDTH 960 0
DWIDTH 14 0
BBX 14 14 0 -2
BITMAP
0000
0ff0
0fe0
1040
0080
0080
0100
0100
0300
0300
0300
0300
0000
0000
ENDCHAR
STARTCHAR 01-03-24
ENCODING 9016
SWIDTH 960 0
DWIDTH 14 0
BBX 14 14 0 -2
BITMAP
0000
0780
0840
1860
1c60
0ec0
0780
0dc0
18e0
1860
0840
0780
0000
0000
ENDCHAR
STARTCHAR 01-03-25
ENCODING 9017
SWIDTH 960 0
DWIDTH 14 0
BBX 14 14 0 -2
BITMAP
0000
0300
0cc0
1860
1860
1860
0ce0
0760
0060
1840
1880
0f00
0000
0000
ENDCHAR
STARTCHAR 01-03-26
ENCODING 9018
SWIDTH 960 0
DWIDTH 14 0
BBX 14 14 0 -2
BITMAP
0000
07c0
1830
2008
2008
4004
4384
4384
4384
4004
2008
2008
1830
07c0
ENDCHAR
STARTCHAR 01-03-27
ENCODING 9019
SWIDTH 960 0
DWIDTH 14 0
BBX 14 14 0 -2
BITMAP
0000
07c0
1830
2388
2fe8
4fe4
5ff4
5ff4
5ff4
4fe4
2fe8
2388
1830
07c0
ENDCHAR
STARTCHAR 01-03-28
ENCODING 9020
SWIDTH 960 0
DWIDTH 14 0
BBX 14 14 0 -2
BITMAP
0000
0000
0d80
1240
1260
0020
0020
0030
0018
0018
0018
0018
0008
0000
ENDCHAR
STARTCHAR 01-03-29
ENCODING 9021
SWIDTH 960 0
DWIDTH 14 0
BBX 14 14 0 -2
BITMAP
0000
0000
0000
0000
0700
02c0
0120
00a0
00a0
0040
0000
0000
0000
0000
ENDCHAR
STARTCHAR 01-03-30
ENCODING 9022
SWIDTH 960 0
DWIDTH 14 0
BBX 14 14 0 -2
BITMAP
0000
0000
0000
0000
0600
0380
01c0
00e0
00e0
0040
0000
0000
0000
0000
ENDCHAR
STARTCHAR 01-03-31
ENCODING 9023
SWIDTH 960 0
DWIDTH 14 0
BBX 14 14 0 -2
BITMAP
0000
0000
0000
0000
0000
0380
0440
0440
0440
0380
0000
0000
0000
0000
ENDCHAR
STARTCHAR 01-03-32
ENCODING 9024
SWIDTH 960 0
DWIDTH 14 0
BBX 14 14 0 -2
BITMAP
0000
0000
0000
0000
0000
0380
07c0
07c0
07c0
0380
0000
0000
0000
0000
ENDCHAR
STARTCHAR 01-03-33
ENCODING 9025
SWIDTH 960 0
DWIDTH 14 0
BBX 14 14 0 -2
BITMAP
0000
0100
0100
0380
0380
04c0
04c0
0860
0fe0
1030
1030
7878
0000
0000
ENDCHAR
STARTCHAR 01-03-34
ENCODING 9026
SWIDTH 960 0
DWIDTH 14 0
BBX 14 14 0 -2
BITMAP
0000
3f80
0c60
0c30
0c30
0c60
0fc0
0c30
0c18
0c18
0c30
3fc0
0000
0000
ENDCHAR
STARTCHAR 01-03-35
ENCODING 9027
SWIDTH 960 0
DWIDTH 14 0
BBX 14 14 0 -2
BITMAP
0000
03d0
0c30
1810
3010
3000
3000
3000
3000
1810
0c30
03c0
0000
0000
ENDCHAR
STARTCHAR 01-03-36
ENCODING 9028
SWIDTH 960 0
DWIDTH 14 0
BBX 14 14 0 -2
BITMAP
0000
3f80
0c60
0c30
0c18
0c18
0c18
0c18
0c18
0c30
0c60
3f80
0000
0000
ENDCHAR
STARTCHAR 01-03-37
ENCODING 9029
SWIDTH 960 0
DWIDTH 14 0
BBX 14 14 0 -2
BITMAP
0000
3fe0
0c20
0c10
0c00
0c40
0fc0
0c40
0c00
0c08
0c10
3ff0
0000
0000
ENDCHAR
STARTCHAR 01-03-38
ENCODING 9030
SWIDTH 960 0
DWIDTH 14 0
BBX 14 14 0 -2
BITMAP
0000
3fe0
0c20
0c10
0c00
0c40
0fc0
0c40
0c00
0c00
0c00
3f00
0000
0000
ENDCHAR
STARTCHAR 01-03-39
ENCODING 9031
SWIDTH 960 0
DWIDTH 14 0
BBX 14 14 0 -2
BITMAP
0000
03d0
0c30
1810
3000
3000
30f8
3030
3030
1830
0c60
0380
0000
0000
ENDCHAR
STARTCHAR 01-03-40
ENCODING 9032
SWIDTH 960 0
DWIDTH 14 0
BBX 14 14 0 -2
BITMAP
0000
3c78
1830
1830
1830
1830
1ff0
1830
1830
1830
1830
3c78
0000
0000
ENDCHAR
STARTCHAR 01-03-41
ENCODING 9033
SWIDTH 960 0
DWIDTH 14 0
BBX 14 14 0 -2
BITMAP
0000
0fc0
0300
0300
0300
0300
0300
0300
0300
0300
0300
0fc0
0000
0000
ENDCHAR
STARTCHAR 01-03-42
ENCODING 9034
SWIDTH 960 0
DWIDTH 14 0
BBX 14 14 0 -2
BITMAP
0000
01f8
0060
0060
0060
0060
0060
1060
3860
3060
18c0
0700
0000
0000
ENDCHAR
STARTCHAR 01-03-43
ENCODING 9035
SWIDTH 960 0
DWIDTH 14 0
BBX 14 14 0 -2
BITMAP
0000
3c78
1820
1840
1880
1980
1ac0
1cc0
1860
1860
1830
3c78
0000
0000
ENDCHAR
STARTCHAR 01-03-44
ENCODING 9036
SWIDTH 960 0
DWIDTH 14 0
BBX 14 14 0 -2
BITMAP
0000
3f00
0c00
0c00
0c00
0c00
0c00
0c00
0c00
0c08
0c10
3ff0
0000
0000
ENDCHAR
STARTCHAR 01-03-45
ENCODING 9037
SWIDTH 960 0
DWIDTH 14 0
BBX 14 14 0 -2
BITMAP
0000
3838
1830
1c70
1c70
16b0
16b0
1730
1330
1230
1030
3878
0000
0000
ENDCHAR
STARTCHAR 01-03-46
ENCODING 9038
SWIDTH 960 0
DWIDTH 14 0
BBX 14 14 0 -2
BITMAP
0000
3870
1820
1c20
1620
1620
1320
11a0
11a0
10e0
1060
3860
0000
0000
ENDCHAR
STARTCHAR 01-03-47
ENCODING 9039
SWIDTH 960 0
DWIDTH 14 0
BBX 14 14 0 -2
BITMAP
0000
0380
0c60
1830
3018
3018
3018
3018
3018
1830
0c60
0380
0000
0000
ENDCHAR
STARTCHAR 01-03-48
ENCODING 9040
SWIDTH 960 0
DWIDTH 14 0
BBX 14 14 0 -2
BITMAP
0000
3f80
0c60
0c30
0c30
0c60
0f80
0c00
0c00
0c00
0c00
3f00
0000
0000
ENDCHAR
STARTCHAR 01-03-49
ENCODING 9041
SWIDTH 960 0
DWIDTH 14 0
BBX 14 14 0 -2
BITMAP
0000
0380
0c60
1830
3018
3018
3018
3018
3318
1cb0
0c60
03e0
0018
0000
ENDCHAR
STARTCHAR 01-03-50
ENCODING 9042
SWIDTH 960 0
DWIDTH 14 0
BBX 14 14 0 -2
BITMAP
0000
3f80
0c60
0c30
0c30
0c60
0f80
0cc0
0c60
0c60
0c30
3e38
0000
0000
ENDCHAR
STARTCHAR 01-03-51
ENCODING 9043
SWIDTH 960 0
DWIDTH 14 0
BBX 14 14 0 -2
BITMAP
0000
07a0
0860
1820
1c00
0f00
03c0
00e0
1030
1830
1c20
13c0
0000
0000
ENDCHAR
STARTCHAR 01-03-52
ENCODING 9044
SWIDTH 960 0
DWIDTH 14 0
BBX 14 14 0 -2
BITMAP
0000
3ff0
2310
4308
0300
0300
0300
0300
0300
0300
0300
0fc0
0000
0000
ENDCHAR
STARTCHAR 01-03-53
ENCODING 9045
SWIDTH 960 0
DWIDTH 14 0
BBX 14 14 0 -2
BITMAP
0000
3c38
1810
1810
1810
1810
1810
1810
1810
1810
0c20
03c0
0000
0000
ENDCHAR
STARTCHAR 01-03-54
ENCODING 9046
SWIDTH 960 0
DWIDTH 14 0
BBX 14 14 0 -2
BITMAP
0000
3c38
1810
1810
0c20
0c20
0640
0640
0380
0380
0100
0100
0000
0000
ENDCHAR
STARTCHAR 01-03-55
ENCODING 9047
SWIDTH 960 0
DWIDTH 14 0
BBX 14 14 0 -2
BITMAP
0000
3bb8
1990
1990
1990
0dd0
0ee0
0ee0
0660
0660
0660
0660
0000
0000
ENDCHAR
STARTCHAR 01-03-56
ENCODING 9048
SWIDTH 960 0
DWIDTH 14 0
BBX 14 14 0 -2
BITMAP
0000
3c78
1820
0c40
0680
0300
0300
0380
04c0
0860
1030
3878
0000
0000
ENDCHAR
STARTCHAR 01-03-57
ENCODING 9049
SWIDTH 960 0
DWIDTH 14 0
BBX 14 14 0 -2
BITMAP
0000
3c78
1820
0c40
0680
0300
0300
0300
0300
0300
0300
0fc0
0000
0000
ENDCHAR
STARTCHAR 01-03-58
ENCODING 9050
SWIDTH 960 0
DWIDTH 14 0
BBX 14 14 0 -2
BITMAP
0000
1ff0
1060
20c0
0180
0180
0300
0600
0600
0c08
1810
3ff0
0000
0000
ENDCHAR
STARTCHAR 01-03-59
ENCODING 9051
SWIDTH 960 0
DWIDTH 14 0
BBX 14 14 0 -2
BITMAP
0000
3ff8
0000
0000
0100
0100
0100
3ff8
0100
0100
0100
0100
0000
0000
ENDCHAR
STARTCHAR 01-03-60
ENCODING 9052
SWIDTH 960 0
DWIDTH 14 0
BBX 14 14 0 -2
BITMAP
0000
1040
1860
1830
0c50
0e40
0780
0980
08c0
08e0
0870
3830
3030
0000
ENDCHAR
STARTCHAR 01-03-61
ENCODING 9053
SWIDTH 960 0
DWIDTH 14 0
BBX 14 14 0 -2
BITMAP
0000
1d80
0e00
1c00
2dc0
0e60
0c30
0c30
0c30
0c30
0c30
1e78
0000
0000
ENDCHAR
STARTCHAR 01-03-62
ENCODING 9054
SWIDTH 960 0
DWIDTH 14 0
BBX 14 14 0 -2
BITMAP
0000
f7e0
6318
630c
630c
6318
7fe0
6300
6300
6300
6300
f7c0
0000
0000
ENDCHAR
STARTCHAR 01-03-63
ENCODING 9055
SWIDTH 960 0
DWIDTH 14 0
BBX 14 14 0 -2
BITMAP
0000
0180
03c0
0740
0640
0e40
0c40
0c80
0c80
0f20
0740
3980
0000
0000
ENDCHAR
STARTCHAR 01-03-64
ENCODING 9056
SWIDTH 960 0
DWIDTH 14 0
BBX 14 14 0 -2
BITMAP
0000
3c78
2288
0440
0820
1830
3018
3018
3018
1830
0c60
0380
0000
0000
ENDCHAR
STARTCHAR 01-03-65
ENCODING 9057
SWIDTH 960 0
DWIDTH 14 0
BBX 14 14 0 -2
BITMAP
0000
0000
0000
0000
0780
0c40
0c60
03e0
0c60
1860
18e0
0f30
0000
0000
ENDCHAR
STARTCHAR 01-03-66
ENCODING 9058
SWIDTH 960 0
DWIDTH 14 0
BBX 14 14 0 -2
BITMAP
0000
1c00
0c00
0c00
0d80
0e60
0c30
0c30
0c30
0c30
0e60
1d80
0000
0000
ENDCHAR
STARTCHAR 01-03-67
ENCODING 9059
SWIDTH 960 0
DWIDTH 14 0
BBX 14 14 0 -2
BITMAP
0000
0000
0000
0000
0380
0c60
1820
1800
1800
1820
0c60
0380
0000
0000
ENDCHAR
STARTCHAR 01-03-68
ENCODING 9060
SWIDTH 960 0
DWIDTH 14 0
BBX 14 14 0 -2
BITMAP
0000
00e0
0060
0060
0360
0ce0
1860
1860
1860
1860
0ce0
0370
0000
0000
ENDCHAR
STARTCHAR 01-03-69
ENCODING 9061
SWIDTH 960 0
DWIDTH 14 0
BBX 14 14 0 -2
BITMAP
0000
0000
0000
0000
07c0
0820
1830
1ff0
1800
1810
0c30
03c0
0000
0000
ENDCHAR
STARTCHAR 01-03-70
ENCODING 9062
SWIDTH 960 0
DWIDTH 14 0
BBX 14 14 0 -2
BITMAP
0000
01c0
0260
0660
0600
1fe0
0600
0600
0600
0600
0600
1f80
0000
0000
ENDCHAR
STARTCHAR 01-03-71
ENCODING 9063
SWIDTH 960 0
DWIDTH 14 0
BBX 14 14 0 -2
BITMAP
0000
0000
0000
0000
07e0
0cc0
08c0
0880
0700
0c00
0fc0
18e0
0820
07c0
ENDCHAR
STARTCHAR 01-03-72
ENCODING 9064
SWIDTH 960 0
DWIDTH 14 0
BBX 14 14 0 -2
BITMAP
0000
1c00
0c00
0c00
0dc0
0e60
0c30
0c30
0c30
0c30
0c30
1e78
0000
0000
ENDCHAR
STARTCHAR 01-03-73
ENCODING 9065
SWIDTH 960 0
DWIDTH 14 0
BBX 14 14 0 -2
BITMAP
0000
0100
0380
0100
0000
0f00
0300
0300
0300
0300
0300
0fc0
0000
0000
ENDCHAR
STARTCHAR 01-03-74
ENCODING 9066
SWIDTH 960 0
DWIDTH 14 0
BBX 14 14 0 -2
BITMAP
0000
0100
0380
0100
0000
0f80
0180
0180
0180
0180
0180
1980
1900
0e00
ENDCHAR
STARTCHAR 01-03-75
ENCODING 9067
SWIDTH 960 0
DWIDTH 14 0
BBX 14 14 0 -2
BITMAP
0000
1c00
0c00
0c70
0c40
0c80
0dc0
0ec0
0c60
0c60
0c30
1e38
0000
0000
ENDCHAR
STARTCHAR 01-03-76
ENCODING 9068
SWIDTH 960 0
DWIDTH 14 0
BBX 14 14 0 -2
BITMAP
0000
0f00
0300
0300
0300
0300
0300
0300
0300
0300
0300
0fc0
0000
0000
ENDCHAR
STARTCHAR 01-03-77
ENCODING 9069
SWIDTH 960 0
DWIDTH 14 0
BBX 14 14 0 -2
BITMAP
0000
0000
0000
0000
76e0
3b30
3330
3330
3330
3330
3330
7bb8
0000
0000
ENDCHAR
STARTCHAR 01-03-78
ENCODING 9070
SWIDTH 960 0
DWIDTH 14 0
BBX 14 14 0 -2
BITMAP
0000
0000
0000
0000
1dc0
0e20
0c30
0c30
0c30
0c30
0c30
1e78
0000
0000
ENDCHAR
STARTCHAR 01-03-79
ENCODING 9071
SWIDTH 960 0
DWIDTH 14 0
BBX 14 14 0 -2
BITMAP
0000
0000
0000
0000
0380
0c60
1830
1830
1830
1830
0c60
0380
0000
0000
ENDCHAR
STARTCHAR 01-03-80
ENCODING 9072
SWIDTH 960 0
DWIDTH 14 0
BBX 14 14 0 -2
BITMAP
0000
0000
0000
0000
1dc0
0e60
0c30
0c30
0c30
0c30
0e60
0dc0
0c00
1e00
ENDCHAR
STARTCHAR 01-03-81
ENCODING 9073
SWIDTH 960 0
DWIDTH 14 0
BBX 14 14 0 -2
BITMAP
0000
0000
0000
0000
0770
0ce0
1860
1860
1860
1860
0ce0
0760
0060
00f0
ENDCHAR
STARTCHAR 01-03-82
ENCODING 9074
SWIDTH 960 0
DWIDTH 14 0
BBX 14 14 0 -2
BITMAP
0000
0000
0000
0000
1dc0
0e60
0c60
0c00
0c00
0c00
0c00
1e00
0000
0000
ENDCHAR
STARTCHAR 01-03-83
ENCODING 9075
SWIDTH 960 0
DWIDTH 14 0
BBX 14 14 0 -2
BITMAP
0000
0000
0000
0000
0fc0
1840
1c00
0f00
03c0
10e0
1860
17c0
0000
0000
ENDCHAR
STARTCHAR 01-03-84
ENCODING 9076
SWIDTH 960 0
DWIDTH 14 0
BBX 14 14 0 -2
BITMAP
0000
0000
0200
0600
0600
1fe0
0600
0600
0600
0600
0620
03c0
0000
0000
ENDCHAR
STARTCHAR 01-03-85
ENCODING 9077
SWIDTH 960 0
DWIDTH 14 0
BBX 14 14 0 -2
BITMAP
0000
0000
0000
0000
1cf0
0c30
0c30
0c30
0c30
0c30
0c70
0798
0000
0000
ENDCHAR
STARTCHAR 01-03-86
ENCODING 9078
SWIDTH 960 0
DWIDTH 14 0
BBX 14 14 0 -2
BITMAP
0000
0000
0000
0000
3e70
1820
0c40
0c40
0680
0680
0300
0300
0000
0000
ENDCHAR
STARTCHAR 01-03-87
ENCODING 9079
SWIDTH 960 0
DWIDTH 14 0
BBX 14 14 0 -2
BITMAP
0000
0000
0000
0000
3db8
1990
1990
0ed0
0ee0
0660
0660
0660
0000
0000
ENDCHAR
STARTCHAR 01-03-88
ENCODING 9080
SWIDTH 960 0
DWIDTH 14 0
BBX 14 14 0 -2
BITMAP
0000
0000
0000
0000
1e70
0c20
0640
0380
0380
04c0
0860
1cf0
0000
0000
ENDCHAR
STARTCHAR 01-03-89
ENCODING 9081
SWIDTH 960 0
DWIDTH 14 0
BBX 14 14 0 -2
BITMAP
0000
0000
0000
0000
1f70
0c20
0620
0640
0340
0380
0180
1900
1900
0e00
ENDCHAR
STARTCHAR 01-03-90
ENCODING 9082
SWIDTH 960 0
DWIDTH 14 0
BBX 14 14 0 -2
BITMAP
0000
0000
0000
0000
1fe0
10c0
0180
0300
0600
0c00
1820
1fe0
0000
0000
ENDCHAR
STARTCHAR 01-03-91
ENCODING 9083
SWIDTH 960 0
DWIDTH 14 0
BBX 14 14 0 -2
BITMAP
0000
0000
0000
0000
0fc0
0000
0000
0000
0fc0
0000
0000
0000
0000
0000
ENDCHAR
STARTCHAR 01-03-92
ENCODING 9084
SWIDTH 960 0
DWIDTH 14 0
BBX 14 14 0 -2
BITMAP
0000
0000
0000
0000
0000
0000
0fc0
0000
0000
0000
0000
0000
0000
0000
ENDCHAR
STARTCHAR 01-03-93
ENCODING 9085
SWIDTH 960 0
DWIDTH 14 0
BBX 14 14 0 -2
BITMAP
0000
0840
0840
0840
0840
0840
7ff8
0840
0840
0840
0840
0840
0000
0000
ENDCHAR
STARTCHAR 01-03-94
ENCODING 9086
SWIDTH 960 0
DWIDTH 14 0
BBX 14 14 0 -2
BITMAP
0000
1240
1240
1240
1240
1240
7ff8
1240
1240
1240
1240
1240
0000
0000
ENDCHAR
STARTCHAR 01-04-01
ENCODING 9249
SWIDTH 960 0
DWIDTH 14 0
BBX 14 14 0 -2
BITMAP
0000
0000
0000
0400
0200
1380
0e00
0480
07e0
0d10
1610
2610
2a20
10c0
ENDCHAR
STARTCHAR 01-04-02
ENCODING 9250
SWIDTH 960 0
DWIDTH 14 0
BBX 14 14 0 -2
BITMAP
0400
0200
02c0
1f00
0480
0480
07e0
0d10
1508
2208
2608
2a10
1060
0000
ENDCHAR
STARTCHAR 01-04-03
ENCODING 9251
SWIDTH 960 0
DWIDTH 14 0
BBX 14 14 0 -2
BITMAP
0000
0000
0000
0000
0000
0000
1040
1020
1010
1030
0a00
0c00
0400
0000
ENDCHAR
STARTCHAR 01-04-04
ENCODING 9252
SWIDTH 960 0
DWIDTH 14 0
BBX 14 14 0 -2
BITMAP
0000
0000
0000
4000
2060
2010
2008
2208
2418
1408
1800
0800
0000
0000
ENDCHAR
STARTCHAR 01-04-05
ENCODING 9253
SWIDTH 960 0
DWIDTH 14 0
BBX 14 14 0 -2
BITMAP
0000
0000
0000
0000
0200
0180
0000
1380
0c40
0040
0040
0040
0080
0300
ENDCHAR
STARTCHAR 01-04-06
ENCODING 9254
SWIDTH 960 0
DWIDTH 14 0
BBX 14 14 0 -2
BITMAP
0200
01c0
0000
0000
03c0
1c20
0020
0020
0020
0020
0040
0040
0080
0100
ENDCHAR
STARTCHAR 01-04-07
ENCODING 9255
SWIDTH 960 0
DWIDTH 14 0
BBX 14 14 0 -2
BITMAP
0000
0000
0000
0000
0200
0180
0000
01c0
0e80
0100
0200
0700
0900
10f0
ENDCHAR
STARTCHAR 01-04-08
ENCODING 9256
SWIDTH 960 0
DWIDTH 14 0
BBX 14 14 0 -2
BITMAP
0400
0380
0000
0000
11c0
0e80
0100
0200
0400
0e00
1100
2100
20f8
0000
ENDCHAR
STARTCHAR 01-04-09
ENCODING 9257
SWIDTH 960 0
DWIDTH 14 0
BBX 14 14 0 -2
BITMAP
0000
0000
0000
0000
1040
0830
0c20
3800
0bc0
0c20
1820
2820
18c0
0800
ENDCHAR
STARTCHAR 01-04-10
ENCODING 9258
SWIDTH 960 0
DWIDTH 14 0
BBX 14 14 0 -2
BITMAP
0000
0800
0430
0508
060c
1c00
0460
0590
0608
0c08
3488
0c70
0400
0000
ENDCHAR
STARTCHAR 01-04-11
ENCODING 9259
SWIDTH 960 0
DWIDTH 14 0
BBX 14 14 0 -2
BITMAP
0000
0800
0400
0460
4710
3c88
0898
0880
0880
1080
1100
2500
2200
0000
ENDCHAR
STARTCHAR 01-04-12
ENCODING 9260
SWIDTH 960 0
DWIDTH 14 0
BBX 14 14 0 -2
BITMAP
0008
0824
0410
0440
4720
3c90
0888
0898
0880
1080
1100
2500
2200
0000
ENDCHAR
STARTCHAR 01-04-13
ENCODING 9261
SWIDTH 960 0
DWIDTH 14 0
BBX 14 14 0 -2
BITMAP
0200
0100
0160
0f80
0080
00f0
1f40
0020
0020
07f0
0810
0800
0600
01c0
ENDCHAR
STARTCHAR 01-04-14
ENCODING 9262
SWIDTH 960 0
DWIDTH 14 0
BBX 14 14 0 -2
BITMAP
0408
0224
02d0
1f00
0100
01e0
3e80
0040
0040
0fe0
1020
1000
0c00
0380
ENDCHAR
STARTCHAR 01-04-15
ENCODING 9263
SWIDTH 960 0
DWIDTH 14 0
BBX 14 14 0 -2
BITMAP
0080
0040
0040
0080
0100
0600
0800
0800
0400
0200
0100
0080
0040
0040
ENDCHAR
STARTCHAR 01-04-16
ENCODING 9264
SWIDTH 960 0
DWIDTH 14 0
BBX 14 14 0 -2
BITMAP
0080
0040
0040
0088
0124
0610
0800
0800
0400
0200
0100
0080
0040
0040
ENDCHAR
STARTCHAR 01-04-17
ENCODING 9265
SWIDTH 960 0
DWIDTH 14 0
BBX 14 14 0 -2
BITMAP
0080
2040
1020
1020
103c
23e0
2020
2020
2020
2020
1820
1040
1040
0080
ENDCHAR
STARTCHAR 01-04-18
ENCODING 9266
SWIDTH 960 0
DWIDTH 14 0
BBX 14 14 0 -2
BITMAP
0108
40a4
2050
2040
2078
47c0
4040
4040
4040
4040
3040
2080
2080
0100
ENDCHAR
STARTCHAR 01-04-19
ENCODING 9267
SWIDTH 960 0
DWIDTH 14 0
BBX 14 14 0 -2
BITMAP
0000
0800
07e0
0080
0100
0000
0000
0000
0000
2000
2000
1010
0fe0
0000
ENDCHAR
STARTCHAR 01-04-20
ENCODING 9268
SWIDTH 960 0
DWIDTH 14 0
BBX 14 14 0 -2
BITMAP
0008
0804
07f0
0088
0100
0000
0000
0000
0000
2000
2000
1010
0fe0
0000
ENDCHAR
STARTCHAR 01-04-21
ENCODING 9269
SWIDTH 960 0
DWIDTH 14 0
BBX 14 14 0 -2
BITMAP
0400
0200
0130
21c0
1e80
0040
0040
07e0
0820
1000
1000
0c00
03c0
0000
ENDCHAR
STARTCHAR 01-04-22
ENCODING 9270
SWIDTH 960 0
DWIDTH 14 0
BBX 14 14 0 -2
BITMAP
0408
0204
0130
21c8
1e80
0040
0040
07e0
0820
1000
1000
0c00
03c0
0000
ENDCHAR
STARTCHAR 01-04-23
ENCODING 9271
SWIDTH 960 0
DWIDTH 14 0
BBX 14 14 0 -2
BITMAP
0000
1000
0800
0800
0800
0800
0800
0800
0800
0808
0810
0460
0380
0000
ENDCHAR
STARTCHAR 01-04-24
ENCODING 9272
SWIDTH 960 0
DWIDTH 14 0
BBX 14 14 0 -2
BITMAP
0000
1020
0890
0840
0800
0800
0800
0800
0800
0808
0810
0460
0380
0000
ENDCHAR
STARTCHAR 01-04-25
ENCODING 9273
SWIDTH 960 0
DWIDTH 14 0
BBX 14 14 0 -2
BITMAP
0100
0080
40f8
3f80
0080
0380
04c0
0440
03c0
0040
0080
0080
0100
0200
ENDCHAR
STARTCHAR 01-04-26
ENCODING 9274
SWIDTH 960 0
DWIDTH 14 0
BBX 14 14 0 -2
BITMAP
0128
0094
40f8
3f80
0080
0380
04c0
0440
03c0
0040
0080
0080
0100
0200
ENDCHAR
STARTCHAR 01-04-27
ENCODING 9275
SWIDTH 960 0
DWIDTH 14 0
BBX 14 14 0 -2
BITMAP
0000
0080
1040
0840
0878
4bc0
3c40
0840
0840
08c0
0840
0400
03e0
0000
ENDCHAR
STARTCHAR 01-04-28
ENCODING 9276
SWIDTH 960 0
DWIDTH 14 0
BBX 14 14 0 -2
BITMAP
0008
0084
1050
0848
0878
4bc0
3c40
0840
0840
08c0
0840
0400
03e0
0000
ENDCHAR
STARTCHAR 01-04-29
ENCODING 9277
SWIDTH 960 0
DWIDTH 14 0
BBX 14 14 0 -2
BITMAP
0000
09c0
0640
0080
0100
0238
07c0
3880
0100
0200
0200
0200
0100
00e0
ENDCHAR
STARTCHAR 01-04-30
ENCODING 9278
SWIDTH 960 0
DWIDTH 14 0
BBX 14 14 0 -2
BITMAP
0000
09c8
0664
0090
0100
0238
07c0
3880
0100
0200
0200
0200
0100
00e0
ENDCHAR
STARTCHAR 01-04-31
ENCODING 9279
SWIDTH 960 0
DWIDTH 14 0
BBX 14 14 0 -2
BITMAP
0000
0800
0480
0700
3c00
08f0
0818
0820
1000
1000
1100
2100
20f8
0000
ENDCHAR
STARTCHAR 01-04-32
ENCODING 9280
SWIDTH 960 0
DWIDTH 14 0
BBX 14 14 0 -2
BITMAP
0008
0824
0490
0700
3c00
08f0
0818
0820
1000
1000
1100
2100
20f8
0000
ENDCHAR
STARTCHAR 01-04-33
ENCODING 9281
SWIDTH 960 0
DWIDTH 14 0
BBX 14 14 0 -2
BITMAP
0800
0400
04c0
4700
3c00
0800
08c0
0b20
1c10
1010
0010
0020
00c0
0700
ENDCHAR
STARTCHAR 01-04-34
ENCODING 9282
SWIDTH 960 0
DWIDTH 14 0
BBX 14 14 0 -2
BITMAP
0800
0408
04c4
4710
3c08
0800
08c0
0b20
1c10
1010
0010
0020
00c0
0700
ENDCHAR
STARTCHAR 01-04-35
ENCODING 9283
SWIDTH 960 0
DWIDTH 14 0
BBX 14 14 0 -2
BITMAP
0000
0000
0000
0000
0000
0000
01c0
0620
3810
0010
0010
0020
00c0
0700
ENDCHAR
STARTCHAR 01-04-36
ENCODING 9284
SWIDTH 960 0
DWIDTH 14 0
BBX 14 14 0 -2
BITMAP
0000
0000
0000
03e0
4c10
3008
0008
0008
0008
0010
0060
0380
0000
0000
ENDCHAR
STARTCHAR 01-04-37
ENCODING 9285
SWIDTH 960 0
DWIDTH 14 0
BBX 14 14 0 -2
BITMAP
0008
0024
0010
03e0
4c10
3008
0008
0008
0008
0010
0060
0380
0000
0000
ENDCHAR
STARTCHAR 01-04-38
ENCODING 9286
SWIDTH 960 0
DWIDTH 14 0
BBX 14 14 0 -2
BITMAP
0000
0038
43c0
3c80
0100
0100
0200
0200
0200
0200
0200
0100
00e0
0000
ENDCHAR
STARTCHAR 01-04-39
ENCODING 9287
SWIDTH 960 0
DWIDTH 14 0
BBX 14 14 0 -2
BITMAP
0000
0038
43c0
3c88
0124
0110
0200
0200
0200
0200
0200
0100
00e0
0000
ENDCHAR
STARTCHAR 01-04-40
ENCODING 9288
SWIDTH 960 0
DWIDTH 14 0
BBX 14 14 0 -2
BITMAP
0000
0400
0200
0200
0200
0270
0380
0600
0800
1000
1000
0800
07f0
0000
ENDCHAR
STARTCHAR 01-04-41
ENCODING 9289
SWIDTH 960 0
DWIDTH 14 0
BBX 14 14 0 -2
BITMAP
0000
0408
0224
0210
0200
0270
0380
0600
0800
1000
1000
0800
07f0
0000
ENDCHAR
STARTCHAR 01-04-42
ENCODING 9290
SWIDTH 960 0
DWIDTH 14 0
BBX 14 14 0 -2
BITMAP
0400
0200
0280
3f00
0470
0818
0820
1040
1040
2040
03c0
0460
0450
0380
ENDCHAR
STARTCHAR 01-04-43
ENCODING 9291
SWIDTH 960 0
DWIDTH 14 0
BBX 14 14 0 -2
BITMAP
0000
2000
1000
10f0
1318
2020
2000
2000
2000
2200
2a00
11f8
1000
1000
ENDCHAR
STARTCHAR 01-04-44
ENCODING 9292
SWIDTH 960 0
DWIDTH 14 0
BBX 14 14 0 -2
BITMAP
0000
0100
0080
0080
13e0
1510
1908
1208
2a08
4c08
4c68
5490
2068
0000
ENDCHAR
STARTCHAR 01-04-45
ENCODING 9293
SWIDTH 960 0
DWIDTH 14 0
BBX 14 14 0 -2
BITMAP
1000
0800
0800
0800
4ce0
3f10
0c10
0810
1810
1810
28f0
5918
08e0
0000
ENDCHAR
STARTCHAR 01-04-46
ENCODING 9294
SWIDTH 960 0
DWIDTH 14 0
BBX 14 14 0 -2
BITMAP
0000
0000
03c0
0d20
1110
1108
2208
2208
2408
2410
2810
1060
0180
0000
ENDCHAR
STARTCHAR 01-04-47
ENCODING 9295
SWIDTH 960 0
DWIDTH 14 0
BBX 14 14 0 -2
BITMAP
0040
2020
1020
1438
13e0
2020
2020
2020
2020
29e0
1230
1228
11c0
0000
ENDCHAR
STARTCHAR 01-04-48
ENCODING 9296
SWIDTH 960 0
DWIDTH 14 0
BBX 14 14 0 -2
BITMAP
0088
4044
2050
2878
27c0
4040
4040
4040
4040
53c0
2460
2450
2380
0000
ENDCHAR
STARTCHAR 01-04-49
ENCODING 9297
SWIDTH 960 0
DWIDTH 14 0
BBX 14 14 0 -2
BITMAP
0098
4064
2064
2878
27c0
4040
4040
4040
4040
53c0
2460
2450
2380
0000
ENDCHAR
STARTCHAR 01-04-50
ENCODING 9298
SWIDTH 960 0
DWIDTH 14 0
BBX 14 14 0 -2
BITMAP
0000
0040
0440
3c20
0820
0830
1028
1020
1020
1040
1040
0880
0700
0000
ENDCHAR
STARTCHAR 01-04-51
ENCODING 9299
SWIDTH 960 0
DWIDTH 14 0
BBX 14 14 0 -2
BITMAP
0008
0044
0450
3c28
0820
0830
1028
1020
1020
1040
1040
0880
0700
0000
ENDCHAR
STARTCHAR 01-04-52
ENCODING 9300
SWIDTH 960 0
DWIDTH 14 0
BBX 14 14 0 -2
BITMAP
0030
0048
0448
3c30
0820
0830
1028
1020
1020
1040
1040
0880
0700
0000
ENDCHAR
STARTCHAR 01-04-53
ENCODING 9301
SWIDTH 960 0
DWIDTH 14 0
BBX 14 14 0 -2
BITMAP
0000
0400
0380
0080
0100
0200
0200
0100
02b0
4c88
389c
2480
0300
0000
ENDCHAR
STARTCHAR 01-04-54
ENCODING 9302
SWIDTH 960 0
DWIDTH 14 0
BBX 14 14 0 -2
BITMAP
0000
0400
0388
00a4
0110
0200
0200
0100
02b0
4c88
389c
2480
0300
0000
ENDCHAR
STARTCHAR 01-04-55
ENCODING 9303
SWIDTH 960 0
DWIDTH 14 0
BBX 14 14 0 -2
BITMAP
0000
0400
0398
00a4
0124
0218
0200
0100
02b0
4c88
389c
2480
0300
0000
ENDCHAR
STARTCHAR 01-04-56
ENCODING 9304
SWIDTH 960 0
DWIDTH 14 0
BBX 14 14 0 -2
BITMAP
0000
0000
0000
0000
0600
0900
5080
2040
0030
000c
0000
0000
0000
0000
ENDCHAR
STARTCHAR 01-04-57
ENCODING 9305
SWIDTH 960 0
DWIDTH 14 0
BBX 14 14 0 -2
BITMAP
0000
0000
0010
0048
0620
0900
5080
2040
0030
000c
0000
0000
0000
0000
ENDCHAR
STARTCHAR 01-04-58
ENCODING 9306
SWIDTH 960 0
DWIDTH 14 0
BBX 14 14 0 -2
BITMAP
0000
0030
0048
0048
0630
0900
5080
2040
0030
000c
0000
0000
0000
0000
ENDCHAR
STARTCHAR 01-04-59
ENCODING 9307
SWIDTH 960 0
DWIDTH 14 0
BBX 14 14 0 -2
BITMAP
0000
2230
11c0
1040
1038
23e0
2020
2020
2020
29e0
1230
1228
11c0
0000
ENDCHAR
STARTCHAR 01-04-60
ENCODING 9308
SWIDTH 960 0
DWIDTH 14 0
BBX 14 14 0 -2
BITMAP
0000
4468
2384
2090
2078
47c0
4040
4040
4040
53c0
2460
2450
2380
0000
ENDCHAR
STARTCHAR 01-04-61
ENCODING 9309
SWIDTH 960 0
DWIDTH 14 0
BBX 14 14 0 -2
BITMAP
0018
4464
23a4
2098
2070
47c0
4040
4040
4040
53c0
2460
2450
2380
0000
ENDCHAR
STARTCHAR 01-04-62
ENCODING 9310
SWIDTH 960 0
DWIDTH 14 0
BBX 14 14 0 -2
BITMAP
0100
0080
10f0
0f80
0080
10e0
0f80
0080
0080
0f80
10e0
1090
0f00
0000
ENDCHAR
STARTCHAR 01-04-63
ENCODING 9311
SWIDTH 960 0
DWIDTH 14 0
BBX 14 14 0 -2
BITMAP
0000
0880
0780
0100
0100
0220
0210
0ff0
3418
4424
4820
3040
0080
0000
ENDCHAR
STARTCHAR 01-04-64
ENCODING 9312
SWIDTH 960 0
DWIDTH 14 0
BBX 14 14 0 -2
BITMAP
0800
0400
2700
1c30
0408
1c0c
2400
2400
2c20
1810
0810
0810
07e0
0000
ENDCHAR
STARTCHAR 01-04-65
ENCODING 9313
SWIDTH 960 0
DWIDTH 14 0
BBX 14 14 0 -2
BITMAP
0000
0100
0080
1080
13c0
1ca0
1110
2908
2a08
4608
4408
4a10
3060
0000
ENDCHAR
STARTCHAR 01-04-66
ENCODING 9314
SWIDTH 960 0
DWIDTH 14 0
BBX 14 14 0 -2
BITMAP
0200
0100
1100
0e00
0380
1200
2420
1c20
0710
0410
0410
0410
0220
01c0
ENDCHAR
STARTCHAR 01-04-67
ENCODING 9315
SWIDTH 960 0
DWIDTH 14 0
BBX 14 14 0 -2
BITMAP
0000
0000
0000
0000
0100
0880
09e0
0e10
3c10
0460
0200
0200
0100
0100
ENDCHAR
STARTCHAR 01-04-68
ENCODING 9316
SWIDTH 960 0
DWIDTH 14 0
BBX 14 14 0 -2
BITMAP
0100
0080
01c0
1800
10f0
0b08
4c08
3408
0270
0200
0100
0100
0080
0080
ENDCHAR
STARTCHAR 01-04-69
ENCODING 9317
SWIDTH 960 0
DWIDTH 14 0
BBX 14 14 0 -2
BITMAP
0000
0000
0000
0000
0200
0100
21e0
2710
2910
3110
2320
21c0
0100
0200
ENDCHAR
STARTCHAR 01-04-70
ENCODING 9318
SWIDTH 960 0
DWIDTH 14 0
BBX 14 14 0 -2
BITMAP
0000
0300
4080
21e0
2290
2488
2888
3088
3488
2290
21e0
0080
0100
0200
ENDCHAR
STARTCHAR 01-04-71
ENCODING 9319
SWIDTH 960 0
DWIDTH 14 0
BBX 14 14 0 -2
BITMAP
0000
0000
0000
0200
0100
0120
01c0
0100
0100
0100
0f00
11c0
1120
0e00
ENDCHAR
STARTCHAR 01-04-72
ENCODING 9320
SWIDTH 960 0
DWIDTH 14 0
BBX 14 14 0 -2
BITMAP
0200
0100
0100
0130
01c0
0100
0100
0100
0100
1f80
2160
2110
1e00
0000
ENDCHAR
STARTCHAR 01-04-73
ENCODING 9321
SWIDTH 960 0
DWIDTH 14 0
BBX 14 14 0 -2
BITMAP
0200
0100
01c0
0600
0800
0800
0800
09e0
0e10
0810
0810
0020
00c0
0300
ENDCHAR
STARTCHAR 01-04-74
ENCODING 9322
SWIDTH 960 0
DWIDTH 14 0
BBX 14 14 0 -2
BITMAP
1000
0980
0a40
0c20
0c20
0820
0820
0820
0820
0040
0040
0080
0100
0200
ENDCHAR
STARTCHAR 01-04-75
ENCODING 9323
SWIDTH 960 0
DWIDTH 14 0
BBX 14 14 0 -2
BITMAP
0000
08c0
0740
0080
0100
0200
07c0
0c20
1010
2010
0390
0460
0440
0380
ENDCHAR
STARTCHAR 01-04-76
ENCODING 9324
SWIDTH 960 0
DWIDTH 14 0
BBX 14 14 0 -2
BITMAP
0000
1000
0800
09c0
0a20
1c20
6c20
0820
1820
1820
2820
4824
1818
0800
ENDCHAR
STARTCHAR 01-04-77
ENCODING 9325
SWIDTH 960 0
DWIDTH 14 0
BBX 14 14 0 -2
BITMAP
0000
1180
0e80
0100
0200
0400
0fc0
0820
1010
2010
0010
0020
00c0
0700
ENDCHAR
STARTCHAR 01-04-78
ENCODING 9326
SWIDTH 960 0
DWIDTH 14 0
BBX 14 14 0 -2
BITMAP
0000
0000
0000
0000
0800
0400
0400
06e0
1d10
0610
0c10
0c10
1420
0440
ENDCHAR
STARTCHAR 01-04-79
ENCODING 9327
SWIDTH 960 0
DWIDTH 14 0
BBX 14 14 0 -2
BITMAP
1000
0800
0800
0800
4ce0
3f10
0c08
0808
1808
1808
2810
4820
18c0
0800
ENDCHAR
STARTCHAR 01-04-80
ENCODING 9328
SWIDTH 960 0
DWIDTH 14 0
BBX 14 14 0 -2
BITMAP
0000
0980
0680
0100
0100
03e0
0e10
1208
2408
2408
28c8
1930
10e0
0000
ENDCHAR
STARTCHAR 01-04-81
ENCODING 9329
SWIDTH 960 0
DWIDTH 14 0
BBX 14 14 0 -2
BITMAP
0000
0980
0700
0200
07c0
0820
1020
0620
09c0
0700
0800
1ce0
2310
4038
ENDCHAR
STARTCHAR 01-04-82
ENCODING 9330
SWIDTH 960 0
DWIDTH 14 0
BBX 14 14 0 -2
BITMAP
0400
0200
12c0
0f00
0400
0420
0f38
18c0
2180
0280
0480
0800
0800
07e0
ENDCHAR
STARTCHAR 01-04-83
ENCODING 9331
SWIDTH 960 0
DWIDTH 14 0
BBX 14 14 0 -2
BITMAP
0200
0100
0100
0200
0200
0400
0400
0f00
0880
1080
1088
2090
2060
0000
ENDCHAR
STARTCHAR 01-04-84
ENCODING 9332
SWIDTH 960 0
DWIDTH 14 0
BBX 14 14 0 -2
BITMAP
0408
03a4
0010
0000
0780
3840
0040
0040
0040
0040
0080
0080
0100
0200
ENDCHAR
STARTCHAR 01-04-85
ENCODING 9333
SWIDTH 960 0
DWIDTH 14 0
BBX 14 14 0 -2
BITMAP
0000
0000
0000
0800
04c0
2720
1c90
08b0
0880
0880
1080
1100
2500
0200
ENDCHAR
STARTCHAR 01-04-86
ENCODING 9334
SWIDTH 960 0
DWIDTH 14 0
BBX 14 14 0 -2
BITMAP
0000
0000
0000
0100
2080
1040
1070
23c0
2040
2040
2040
2040
1880
1100
ENDCHAR
STARTCHAR 01-04-87
ENCODING 9335
SWIDTH 960 0
DWIDTH 14 0
BBX 14 14 0 -2
BITMAP
0030
0848
0448
0470
4720
3c90
0888
0898
0880
1080
1100
2500
2200
0000
ENDCHAR
STARTCHAR 01-04-88
ENCODING 9336
SWIDTH 960 0
DWIDTH 14 0
BBX 14 14 0 -2
BITMAP
0418
0224
02e4
1f18
0100
01e0
3e80
0040
0040
0fe0
1020
1000
0c00
0380
ENDCHAR
STARTCHAR 01-04-89
ENCODING 9337
SWIDTH 960 0
DWIDTH 14 0
BBX 14 14 0 -2
BITMAP
0080
0040
0058
00a4
0124
0618
0800
0800
0400
0200
0100
0080
0040
0040
ENDCHAR
STARTCHAR 01-04-90
ENCODING 9338
SWIDTH 960 0
DWIDTH 14 0
BBX 14 14 0 -2
BITMAP
0118
40a4
2064
2058
2070
47c0
4040
4040
4040
4040
3040
2080
2080
0100
ENDCHAR
STARTCHAR 01-04-91
ENCODING 9339
SWIDTH 960 0
DWIDTH 14 0
BBX 14 14 0 -2
BITMAP
0018
0824
07e4
0098
0100
0000
0000
0000
0000
2000
2000
1010
0fe0
0000
ENDCHAR
STARTCHAR 01-05-01
ENCODING 9505
SWIDTH 960 0
DWIDTH 14 0
BBX 14 14 0 -2
BITMAP
0000
0000
0000
0000
0000
0000
21e0
1e20
0240
0180
0100
0100
0200
0400
ENDCHAR
STARTCHAR 01-05-02
ENCODING 9506
SWIDTH 960 0
DWIDTH 14 0
BBX 14 14 0 -2
BITMAP
0000
0000
21f0
1e10
0020
0240
0180
0100
0100
0100
0200
0200
0400
0800
ENDCHAR
STARTCHAR 01-05-03
ENCODING 9507
SWIDTH 960 0
DWIDTH 14 0
BBX 14 14 0 -2
BITMAP
0000
0000
0000
0000
0020
0040
0080
0380
1c80
0080
0080
0080
0080
0080
ENDCHAR
STARTCHAR 01-05-04
ENCODING 9508
SWIDTH 960 0
DWIDTH 14 0
BBX 14 14 0 -2
BITMAP
0000
0020
0020
0040
0080
0300
0d00
3080
0080
0080
0080
0080
0080
0080
ENDCHAR
STARTCHAR 01-05-05
ENCODING 9509
SWIDTH 960 0
DWIDTH 14 0
BBX 14 14 0 -2
BITMAP
0000
0000
0000
0000
0200
0100
01e0
1e20
0820
0840
0040
0080
0100
0200
ENDCHAR
STARTCHAR 01-05-06
ENCODING 9510
SWIDTH 960 0
DWIDTH 14 0
BBX 14 14 0 -2
BITMAP
0000
0200
0100
0100
01f0
3e10
1010
1020
0820
0840
0040
0080
0100
0200
ENDCHAR
STARTCHAR 01-05-07
ENCODING 9511
SWIDTH 960 0
DWIDTH 14 0
BBX 14 14 0 -2
BITMAP
0000
0000
0000
0000
0000
0000
00e0
0f00
0100
0100
0100
01e0
1e10
0000
ENDCHAR
STARTCHAR 01-05-08
ENCODING 9512
SWIDTH 960 0
DWIDTH 14 0
BBX 14 14 0 -2
BITMAP
0000
0000
0000
0070
1f80
0200
0100
0100
0100
0100
03f0
3c08
0000
0000
ENDCHAR
STARTCHAR 01-05-09
ENCODING 9513
SWIDTH 960 0
DWIDTH 14 0
BBX 14 14 0 -2
BITMAP
0000
0000
0000
0000
0100
0080
10e0
0f80
0180
0280
0480
0880
1180
0080
ENDCHAR
STARTCHAR 01-05-10
ENCODING 9514
SWIDTH 960 0
DWIDTH 14 0
BBX 14 14 0 -2
BITMAP
0000
0080
0040
0040
2078
1fc0
00c0
0140
0240
0440
0840
1040
00c0
0040
ENDCHAR
STARTCHAR 01-05-11
ENCODING 9515
SWIDTH 960 0
DWIDTH 14 0
BBX 14 14 0 -2
BITMAP
0000
0200
0100
0100
21f0
1f10
0210
0210
0420
0420
0820
1140
20c0
0080
ENDCHAR
STARTCHAR 01-05-12
ENCODING 9516
SWIDTH 960 0
DWIDTH 14 0
BBX 14 14 0 -2
BITMAP
0008
0224
0114
0110
21f0
1f10
0210
0210
0420
0420
0820
1140
20c0
0080
ENDCHAR
STARTCHAR 01-05-13
ENCODING 9517
SWIDTH 960 0
DWIDTH 14 0
BBX 14 14 0 -2
BITMAP
0000
0400
0200
0270
0380
1d00
0100
0178
0380
3c80
0080
0040
0040
0040
ENDCHAR
STARTCHAR 01-05-14
ENCODING 9518
SWIDTH 960 0
DWIDTH 14 0
BBX 14 14 0 -2
BITMAP
0008
0424
0214
0270
0380
1d00
0100
0178
0380
3c80
0080
0040
0040
0040
ENDCHAR
STARTCHAR 01-05-15
ENCODING 9519
SWIDTH 960 0
DWIDTH 14 0
BBX 14 14 0 -2
BITMAP
0000
0400
0270
0390
0220
0420
0440
0840
1080
0080
0100
0200
0400
0800
ENDCHAR
STARTCHAR 01-05-16
ENCODING 9520
SWIDTH 960 0
DWIDTH 14 0
BBX 14 14 0 -2
BITMAP
0008
0824
04d4
0750
0440
0840
0880
1080
2100
0100
0200
0400
0800
1000
ENDCHAR
STARTCHAR 01-05-17
ENCODING 9521
SWIDTH 960 0
DWIDTH 14 0
BBX 14 14 0 -2
BITMAP
0000
0800
0400
0400
0438
0fc0
0900
1080
2080
0080
0100
0100
0200
0400
ENDCHAR
STARTCHAR 01-05-18
ENCODING 9522
SWIDTH 960 0
DWIDTH 14 0
BBX 14 14 0 -2
BITMAP
0008
0824
0414
0410
0438
0fc0
0900
1080
2080
0080
0100
0100
0200
0400
ENDCHAR
STARTCHAR 01-05-19
ENCODING 9523
SWIDTH 960 0
DWIDTH 14 0
BBX 14 14 0 -2
BITMAP
0000
0000
0000
21f0
1e10
0010
0010
0010
0020
0020
03e0
1c20
0000
0000
ENDCHAR
STARTCHAR 01-05-20
ENCODING 9524
SWIDTH 960 0
DWIDTH 14 0
BBX 14 14 0 -2
BITMAP
0008
0024
0014
43d0
3c40
0040
0040
0040
0080
0080
0780
3880
0000
0000
ENDCHAR
STARTCHAR 01-05-21
ENCODING 9525
SWIDTH 960 0
DWIDTH 14 0
BBX 14 14 0 -2
BITMAP
0000
0080
0840
0440
0440
24f8
1f40
0440
0440
0440
0080
0080
0100
0200
ENDCHAR
STARTCHAR 01-05-22
ENCODING 9526
SWIDTH 960 0
DWIDTH 14 0
BBX 14 14 0 -2
BITMAP
0008
00a4
0854
0450
0440
24f8
1f40
0440
0440
0440
0080
0080
0100
0200
ENDCHAR
STARTCHAR 01-05-23
ENCODING 9527
SWIDTH 960 0
DWIDTH 14 0
BBX 14 14 0 -2
BITMAP
0000
0000
0c00
0200
0000
1800
0408
0010
0020
0040
0080
1300
0c00
0000
ENDCHAR
STARTCHAR 01-05-24
ENCODING 9528
SWIDTH 960 0
DWIDTH 14 0
BBX 14 14 0 -2
BITMAP
0000
0008
0c24
0214
0010
1800
0408
0010
0020
0040
0080
1300
0c00
0000
ENDCHAR
STARTCHAR 01-05-25
ENCODING 9529
SWIDTH 960 0
DWIDTH 14 0
BBX 14 14 0 -2
BITMAP
0000
0000
10e0
0f20
0040
0040
0080
0080
0140
0220
0c10
3010
0000
0000
ENDCHAR
STARTCHAR 01-05-26
ENCODING 9530
SWIDTH 960 0
DWIDTH 14 0
BBX 14 14 0 -2
BITMAP
0008
0024
21d4
1e50
0080
0080
0100
0100
0280
0440
1820
6020
0000
0000
ENDCHAR
STARTCHAR 01-05-27
ENCODING 9531
SWIDTH 960 0
DWIDTH 14 0
BBX 14 14 0 -2
BITMAP
0000
0800
0400
0400
0478
0588
2610
1c20
0440
0400
0400
0200
01f0
0000
ENDCHAR
STARTCHAR 01-05-28
ENCODING 9532
SWIDTH 960 0
DWIDTH 14 0
BBX 14 14 0 -2
BITMAP
0008
0824
0414
0410
0478
0588
2610
1c20
0440
0400
0400
0200
01f8
0000
ENDCHAR
STARTCHAR 01-05-29
ENCODING 9533
SWIDTH 960 0
DWIDTH 14 0
BBX 14 14 0 -2
BITMAP
0000
0020
1010
0810
0410
0420
0420
0040
0040
0080
0080
0100
0200
0400
ENDCHAR
STARTCHAR 01-05-30
ENCODING 9534
SWIDTH 960 0
DWIDTH 14 0
BBX 14 14 0 -2
BITMAP
0008
00a4
2054
1050
0840
0840
0840
0080
0080
0100
0100
0200
0400
0800
ENDCHAR
STARTCHAR 01-05-31
ENCODING 9535
SWIDTH 960 0
DWIDTH 14 0
BBX 14 14 0 -2
BITMAP
0000
0200
0100
01f0
0210
0220
0520
08c0
1040
0080
0100
0200
0c00
3000
ENDCHAR
STARTCHAR 01-05-32
ENCODING 9536
SWIDTH 960 0
DWIDTH 14 0
BBX 14 14 0 -2
BITMAP
0008
0424
0214
03f0
0420
0420
0a40
1140
2080
0100
0200
0400
1800
6000
ENDCHAR
STARTCHAR 01-05-33
ENCODING 9537
SWIDTH 960 0
DWIDTH 14 0
BBX 14 14 0 -2
BITMAP
0000
0040
0180
1e00
0100
00f8
2380
1c80
0080
0080
0100
0100
0200
0400
ENDCHAR
STARTCHAR 01-05-34
ENCODING 9538
SWIDTH 960 0
DWIDTH 14 0
BBX 14 14 0 -2
BITMAP
0008
0064
0194
1e10
0100
00f8
2380
1c80
0080
0080
0100
0100
0200
0400
ENDCHAR
STARTCHAR 01-05-35
ENCODING 9539
SWIDTH 960 0
DWIDTH 14 0
BBX 14 14 0 -2
BITMAP
0000
0000
0000
0000
0000
0000
0440
1220
0a20
0840
0040
0080
0100
0200
ENDCHAR
STARTCHAR 01-05-36
ENCODING 9540
SWIDTH 960 0
DWIDTH 14 0
BBX 14 14 0 -2
BITMAP
0000
0000
0410
2208
1108
0910
0810
0020
0020
0040
0080
0100
0200
0000
ENDCHAR
STARTCHAR 01-05-37
ENCODING 9541
SWIDTH 960 0
DWIDTH 14 0
BBX 14 14 0 -2
BITMAP
0008
0024
1094
0850
4440
2440
1040
1080
0080
0100
0200
0400
0800
0000
ENDCHAR
STARTCHAR 01-05-38
ENCODING 9542
SWIDTH 960 0
DWIDTH 14 0
BBX 14 14 0 -2
BITMAP
0000
0000
11e0
0e00
0000
0078
2380
1c80
0080
0100
0100
0200
0400
0800
ENDCHAR
STARTCHAR 01-05-39
ENCODING 9543
SWIDTH 960 0
DWIDTH 14 0
BBX 14 14 0 -2
BITMAP
0008
0024
11d4
0e10
0000
20f0
1f00
0080
0080
0100
0100
0200
0400
0800
ENDCHAR
STARTCHAR 01-05-40
ENCODING 9544
SWIDTH 960 0
DWIDTH 14 0
BBX 14 14 0 -2
BITMAP
0000
0800
0400
0400
0400
0400
0700
04c0
0420
0400
0400
0400
0400
0400
ENDCHAR
STARTCHAR 01-05-41
ENCODING 9545
SWIDTH 960 0
DWIDTH 14 0
BBX 14 14 0 -2
BITMAP
0020
1090
0850
0840
0800
0800
0e00
0980
0840
0800
0800
0800
0800
0800
ENDCHAR
STARTCHAR 01-05-42
ENCODING 9546
SWIDTH 960 0
DWIDTH 14 0
BBX 14 14 0 -2
BITMAP
0000
0100
0080
0080
20f8
1f80
0080
0080
0080
0100
0100
0200
0400
0800
ENDCHAR
STARTCHAR 01-05-43
ENCODING 9547
SWIDTH 960 0
DWIDTH 14 0
BBX 14 14 0 -2
BITMAP
0000
0000
0000
00e0
1f00
0000
0000
0000
0000
01f0
3e08
0000
0000
0000
ENDCHAR
STARTCHAR 01-05-44
ENCODING 9548
SWIDTH 960 0
DWIDTH 14 0
BBX 14 14 0 -2
BITMAP
0000
0000
10f0
0f10
0020
0020
0e40
01c0
00c0
0120
0210
0c10
3000
0000
ENDCHAR
STARTCHAR 01-05-45
ENCODING 9549
SWIDTH 960 0
DWIDTH 14 0
BBX 14 14 0 -2
BITMAP
0000
0200
0100
01e0
1e20
0040
0080
0100
0340
0d30
3108
0100
0100
0100
ENDCHAR
STARTCHAR 01-05-46
ENCODING 9550
SWIDTH 960 0
DWIDTH 14 0
BBX 14 14 0 -2
BITMAP
0000
0040
0020
0020
0020
0040
0040
0080
0080
0100
0200
0400
0800
1000
ENDCHAR
STARTCHAR 01-05-47
ENCODING 9551
SWIDTH 960 0
DWIDTH 14 0
BBX 14 14 0 -2
BITMAP
0000
0000
0000
0000
0880
0440
0420
0810
0810
1008
2008
4008
0000
0000
ENDCHAR
STARTCHAR 01-05-48
ENCODING 9552
SWIDTH 960 0
DWIDTH 14 0
BBX 14 14 0 -2
BITMAP
0000
0008
0024
0014
0890
0440
0420
0810
0810
1008
2008
4008
0000
0000
ENDCHAR
STARTCHAR 01-05-49
ENCODING 9553
SWIDTH 960 0
DWIDTH 14 0
BBX 14 14 0 -2
BITMAP
0018
0024
0024
0018
0880
0440
0420
0810
0810
1008
2008
4008
0000
0000
ENDCHAR
STARTCHAR 01-05-50
ENCODING 9554
SWIDTH 960 0
DWIDTH 14 0
BBX 14 14 0 -2
BITMAP
0000
0000
1000
0800
0800
08e0
0f00
0800
0800
0800
0800
0400
03f0
0000
ENDCHAR
STARTCHAR 01-05-51
ENCODING 9555
SWIDTH 960 0
DWIDTH 14 0
BBX 14 14 0 -2
BITMAP
0000
0010
1048
0828
0820
0800
08e0
0f00
0800
0800
0800
0400
03f0
0000
ENDCHAR
STARTCHAR 01-05-52
ENCODING 9556
SWIDTH 960 0
DWIDTH 14 0
BBX 14 14 0 -2
BITMAP
0000
0030
1048
0848
0830
0800
08e0
0f00
0800
0800
0800
0400
03f0
0000
ENDCHAR
STARTCHAR 01-05-53
ENCODING 9557
SWIDTH 960 0
DWIDTH 14 0
BBX 14 14 0 -2
BITMAP
0000
0000
10f0
0f10
0010
0020
0020
0040
0040
0080
0100
0200
0400
0000
ENDCHAR
STARTCHAR 01-05-54
ENCODING 9558
SWIDTH 960 0
DWIDTH 14 0
BBX 14 14 0 -2
BITMAP
0008
0024
23d4
1c50
0040
0080
0080
0100
0100
0200
0400
0800
1000
0000
ENDCHAR
STARTCHAR 01-05-55
ENCODING 9559
SWIDTH 960 0
DWIDTH 14 0
BBX 14 14 0 -2
BITMAP
0018
0024
23e4
1c58
0040
0080
0080
0100
0100
0200
0400
0800
1000
0000
ENDCHAR
STARTCHAR 01-05-56
ENCODING 9560
SWIDTH 960 0
DWIDTH 14 0
BBX 14 14 0 -2
BITMAP
0000
0000
0000
0000
0200
0500
4880
3040
0030
000c
0000
0000
0000
0000
ENDCHAR
STARTCHAR 01-05-57
ENCODING 9561
SWIDTH 960 0
DWIDTH 14 0
BBX 14 14 0 -2
BITMAP
0000
0020
0090
0050
0240
0500
4880
3040
0030
000c
0000
0000
0000
0000
ENDCHAR
STARTCHAR 01-05-58
ENCODING 9562
SWIDTH 960 0
DWIDTH 14 0
BBX 14 14 0 -2
BITMAP
0000
0060
0090
0090
0260
0500
4880
3040
0030
000c
0000
0000
0000
0000
ENDCHAR
STARTCHAR 01-05-59
ENCODING 9563
SWIDTH 960 0
DWIDTH 14 0
BBX 14 14 0 -2
BITMAP
0000
0200
0100
0100
21f0
1f00
0100
0140
0920
0910
1110
2100
0300
0100
ENDCHAR
STARTCHAR 01-05-60
ENCODING 9564
SWIDTH 960 0
DWIDTH 14 0
BBX 14 14 0 -2
BITMAP
0008
0224
0114
0110
21f0
1f00
0100
0140
0920
0910
1110
2100
0300
0100
ENDCHAR
STARTCHAR 01-05-61
ENCODING 9565
SWIDTH 960 0
DWIDTH 14 0
BBX 14 14 0 -2
BITMAP
0018
0224
0124
0118
21f0
1f00
0100
0140
0920
0910
1110
2100
0300
0100
ENDCHAR
STARTCHAR 01-05-62
ENCODING 9566
SWIDTH 960 0
DWIDTH 14 0
BBX 14 14 0 -2
BITMAP
0000
0000
0000
20f0
1f08
0010
0020
0040
0c80
0300
0080
0040
0000
0000
ENDCHAR
STARTCHAR 01-05-63
ENCODING 9567
SWIDTH 960 0
DWIDTH 14 0
BBX 14 14 0 -2
BITMAP
0000
0400
0300
00c0
0020
0800
0600
0180
0040
1000
0c00
0300
00c0
0020
ENDCHAR
STARTCHAR 01-05-64
ENCODING 9568
SWIDTH 960 0
DWIDTH 14 0
BBX 14 14 0 -2
BITMAP
0000
0200
0100
0100
0100
0200
0200
0240
0420
0430
29c8
1e08
0000
0000
ENDCHAR
STARTCHAR 01-05-65
ENCODING 9569
SWIDTH 960 0
DWIDTH 14 0
BBX 14 14 0 -2
BITMAP
0000
0040
0020
0020
0020
0620
01c0
0040
00a0
0090
0100
0200
0c00
3000
ENDCHAR
STARTCHAR 01-05-66
ENCODING 9570
SWIDTH 960 0
DWIDTH 14 0
BBX 14 14 0 -2
BITMAP
0000
0000
10e0
0f00
0200
0200
23f8
1e00
0200
0200
0200
01f0
0000
0000
ENDCHAR
STARTCHAR 01-05-67
ENCODING 9571
SWIDTH 960 0
DWIDTH 14 0
BBX 14 14 0 -2
BITMAP
0000
0000
0000
0000
0000
0400
0270
0390
1e20
0140
0100
0080
0080
0080
ENDCHAR
STARTCHAR 01-05-68
ENCODING 9572
SWIDTH 960 0
DWIDTH 14 0
BBX 14 14 0 -2
BITMAP
0000
0800
0400
0478
0388
2610
1a20
0140
0100
0100
0080
0080
0080
0000
ENDCHAR
STARTCHAR 01-05-69
ENCODING 9573
SWIDTH 960 0
DWIDTH 14 0
BBX 14 14 0 -2
BITMAP
0000
0000
0000
0000
0000
0000
01c0
0e40
0040
0080
01e0
1e10
0000
0000
ENDCHAR
STARTCHAR 01-05-70
ENCODING 9574
SWIDTH 960 0
DWIDTH 14 0
BBX 14 14 0 -2
BITMAP
0000
0000
0000
0000
11c0
0e40
0040
0080
0080
01f0
3e08
0000
0000
0000
ENDCHAR
STARTCHAR 01-05-71
ENCODING 9575
SWIDTH 960 0
DWIDTH 14 0
BBX 14 14 0 -2
BITMAP
0000
0000
0000
0000
0000
01e0
0e20
0020
01e0
0e40
0040
01c0
0e20
0000
ENDCHAR
STARTCHAR 01-05-72
ENCODING 9576
SWIDTH 960 0
DWIDTH 14 0
BBX 14 14 0 -2
BITMAP
0000
0000
01f0
1e10
0010
0010
01e0
0e20
0020
0020
0020
01e0
0e10
0000
ENDCHAR
STARTCHAR 01-05-73
ENCODING 9577
SWIDTH 960 0
DWIDTH 14 0
BBX 14 14 0 -2
BITMAP
0000
0000
11c0
0e00
0070
2390
1c10
0010
0020
0020
0040
0080
0300
0c00
ENDCHAR
STARTCHAR 01-05-74
ENCODING 9578
SWIDTH 960 0
DWIDTH 14 0
BBX 14 14 0 -2
BITMAP
0000
0040
0820
0420
0420
0420
0420
0420
0420
0040
0040
0080
0100
0200
ENDCHAR
STARTCHAR 01-05-75
ENCODING 9579
SWIDTH 960 0
DWIDTH 14 0
BBX 14 14 0 -2
BITMAP
0000
0000
0100
0880
0480
0480
0488
0488
0490
0890
08a0
10c0
2080
0000
ENDCHAR
STARTCHAR 01-05-76
ENCODING 9580
SWIDTH 960 0
DWIDTH 14 0
BBX 14 14 0 -2
BITMAP
0000
1000
0800
0800
0800
0800
0800
0810
0820
0840
0880
0b00
0c00
0000
ENDCHAR
STARTCHAR 01-05-77
ENCODING 9581
SWIDTH 960 0
DWIDTH 14 0
BBX 14 14 0 -2
BITMAP
0000
0000
0000
21f0
1e10
1010
1010
0820
0820
09e0
0e10
0800
0000
0000
ENDCHAR
STARTCHAR 01-05-78
ENCODING 9582
SWIDTH 960 0
DWIDTH 14 0
BBX 14 14 0 -2
BITMAP
0000
0000
0000
0000
0000
0000
10f0
0f10
0820
0420
0440
0040
0080
0100
ENDCHAR
STARTCHAR 01-05-79
ENCODING 9583
SWIDTH 960 0
DWIDTH 14 0
BBX 14 14 0 -2
BITMAP
0000
0000
21f0
1e10
1010
0810
0820
0820
0040
0040
0080
0100
0200
0400
ENDCHAR
STARTCHAR 01-05-80
ENCODING 9584
SWIDTH 960 0
DWIDTH 14 0
BBX 14 14 0 -2
BITMAP
0000
0100
0080
0080
01f0
1e80
0880
0480
05f0
3e88
0080
0080
0080
0080
ENDCHAR
STARTCHAR 01-05-81
ENCODING 9585
SWIDTH 960 0
DWIDTH 14 0
BBX 14 14 0 -2
BITMAP
0000
0000
0000
01e0
1e20
0240
0180
0100
0100
01f0
3e08
0000
0000
0000
ENDCHAR
STARTCHAR 01-05-82
ENCODING 9586
SWIDTH 960 0
DWIDTH 14 0
BBX 14 14 0 -2
BITMAP
0000
0000
01f0
1e10
0010
0020
01e0
0e20
0040
0040
0080
0100
0600
1800
ENDCHAR
STARTCHAR 01-05-83
ENCODING 9587
SWIDTH 960 0
DWIDTH 14 0
BBX 14 14 0 -2
BITMAP
0000
0000
0000
1800
0408
0208
0010
0010
0020
0040
0080
1300
0c00
0000
ENDCHAR
STARTCHAR 01-05-84
ENCODING 9588
SWIDTH 960 0
DWIDTH 14 0
BBX 14 14 0 -2
BITMAP
0008
0424
0214
0210
43e0
3c20
2020
1040
1040
0080
0080
0100
0200
0400
ENDCHAR
STARTCHAR 01-05-85
ENCODING 9589
SWIDTH 960 0
DWIDTH 14 0
BBX 14 14 0 -2
BITMAP
0000
0000
0000
0000
0000
0200
0100
11e0
0e20
0220
0220
0420
08c0
1040
ENDCHAR
STARTCHAR 01-05-86
ENCODING 9590
SWIDTH 960 0
DWIDTH 14 0
BBX 14 14 0 -2
BITMAP
0000
0000
0000
0000
0000
0800
0400
0460
0780
0880
1080
0100
0200
0400
ENDCHAR
STARTCHAR 01-05-87
ENCODING 9591
SWIDTH 960 0
DWIDTH 14 0
BBX 14 14 0 -2
BITMAP
0018
0224
0124
0118
21f0
1f10
0210
0210
0420
0420
0820
1140
20c0
0080
ENDCHAR
STARTCHAR 01-05-88
ENCODING 9592
SWIDTH 960 0
DWIDTH 14 0
BBX 14 14 0 -2
BITMAP
0018
0824
0424
04f8
0700
3a00
0200
02f0
0700
7900
0100
0080
0080
0080
ENDCHAR
STARTCHAR 01-05-89
ENCODING 9593
SWIDTH 960 0
DWIDTH 14 0
BBX 14 14 0 -2
BITMAP
0018
0824
04e4
0758
0440
0840
0880
1080
2100
0100
0200
0400
0800
1000
ENDCHAR
STARTCHAR 01-05-90
ENCODING 9594
SWIDTH 960 0
DWIDTH 14 0
BBX 14 14 0 -2
BITMAP
0018
1024
0824
0818
0870
1f80
1200
2100
4100
0100
0200
0200
0400
0800
ENDCHAR
STARTCHAR 01-05-91
ENCODING 9595
SWIDTH 960 0
DWIDTH 14 0
BBX 14 14 0 -2
BITMAP
0018
0024
0024
43d8
3c40
0040
0040
0040
0080
0080
0780
3880
0000
0000
ENDCHAR
STARTCHAR 01-05-92
ENCODING 9596
SWIDTH 960 0
DWIDTH 14 0
BBX 14 14 0 -2
BITMAP
0018
1024
0824
0818
08f0
0b10
4c20
3840
0880
0800
0800
0400
03f0
0000
ENDCHAR
STARTCHAR 01-05-93
ENCODING 9597
SWIDTH 960 0
DWIDTH 14 0
BBX 14 14 0 -2
BITMAP
0018
0024
10a4
0858
4440
2440
1040
1080
0080
0100
0200
0400
0800
0000
ENDCHAR
STARTCHAR 01-05-94
ENCODING 9598
SWIDTH 960 0
DWIDTH 14 0
BBX 14 14 0 -2
BITMAP
0060
1090
0890
0860
0800
0800
0e00
0980
0840
0800
0800
0800
0800
0800
ENDCHAR
STARTCHAR 01-06-01
ENCODING 9761
SWIDTH 960 0
DWIDTH 14 0
BBX 14 14 0 -2
BITMAP
0000
0100
0100
0380
0380
04c0
04c0
0860
0fe0
1030
1030
7878
0000
0000
ENDCHAR
STARTCHAR 01-06-02
ENCODING 9762
SWIDTH 960 0
DWIDTH 14 0
BBX 14 14 0 -2
BITMAP
0000
3f80
0c60
0c30
0c30
0c60
0fc0
0c30
0c18
0c18
0c30
3fc0
0000
0000
ENDCHAR
STARTCHAR 01-06-03
ENCODING 9763
SWIDTH 960 0
DWIDTH 14 0
BBX 14 14 0 -2
BITMAP
0000
3fe0
0c60
0c10
0c00
0c00
0c00
0c00
0c00
0c00
0c00
3f00
0000
0000
ENDCHAR
STARTCHAR 01-06-04
ENCODING 9764
SWIDTH 960 0
DWIDTH 14 0
BBX 14 14 0 -2
BITMAP
0000
0100
0100
0380
0380
04c0
04c0
0860
0860
1030
1030
3ff8
0000
0000
ENDCHAR
STARTCHAR 01-06-05
ENCODING 9765
SWIDTH 960 0
DWIDTH 14 0
BBX 14 14 0 -2
BITMAP
0000
3fe0
0c20
0c10
0c00
0c40
0fc0
0c40
0c00
0c08
0c10
3ff0
0000
0000
ENDCHAR
STARTCHAR 01-06-06
ENCODING 9766
SWIDTH 960 0
DWIDTH 14 0
BBX 14 14 0 -2
BITMAP
0000
1ff0
1060
20c0
0180
0180
0300
0600
0600
0c08
1810
3ff0
0000
0000
ENDCHAR
STARTCHAR 01-06-07
ENCODING 9767
SWIDTH 960 0
DWIDTH 14 0
BBX 14 14 0 -2
BITMAP
0000
3c78
1830
1830
1830
1830
1ff0
1830
1830
1830
1830
3c78
0000
0000
ENDCHAR
STARTCHAR 01-06-08
ENCODING 9768
SWIDTH 960 0
DWIDTH 14 0
BBX 14 14 0 -2
BITMAP
0000
0380
0c60
1830
3018
3458
37d8
3458
3018
1830
0c60
0380
0000
0000
ENDCHAR
STARTCHAR 01-06-09
ENCODING 9769
SWIDTH 960 0
DWIDTH 14 0
BBX 14 14 0 -2
BITMAP
0000
0fc0
0300
0300
0300
0300
0300
0300
0300
0300
0300
0fc0
0000
0000
ENDCHAR
STARTCHAR 01-06-10
ENCODING 9770
SWIDTH 960 0
DWIDTH 14 0
BBX 14 14 0 -2
BITMAP
0000
3c78
1820
1840
1880
1980
1ac0
1cc0
1860
1860
1830
3c78
0000
0000
ENDCHAR
STARTCHAR 01-06-11
ENCODING 9771
SWIDTH 960 0
DWIDTH 14 0
BBX 14 14 0 -2
BITMAP
0000
0100
0100
0380
0380
04c0
04c0
0860
0860
1030
1030
3878
0000
0000
ENDCHAR
STARTCHAR 01-06-12
ENCODING 9772
SWIDTH 960 0
DWIDTH 14 0
BBX 14 14 0 -2
BITMAP
0000
3838
1830
1c70
1c70
16b0
16b0
1730
1330
1230
1030
3878
0000
0000
ENDCHAR
STARTCHAR 01-06-13
ENCODING 9773
SWIDTH 960 0
DWIDTH 14 0
BBX 14 14 0 -2
BITMAP
0000
3870
1820
1c20
1620
1620
1320
11a0
11a0
10e0
1060
3860
0000
0000
ENDCHAR
STARTCHAR 01-06-14
ENCODING 9774
SWIDTH 960 0
DWIDTH 14 0
BBX 14 14 0 -2
BITMAP
0000
1ff0
1fe0
2020
0000
1020
1fe0
1fe0
1020
0000
1010
1fe0
3fe0
0000
ENDCHAR
STARTCHAR 01-06-15
ENCODING 9775
SWIDTH 960 0
DWIDTH 14 0
BBX 14 14 0 -2
BITMAP
0000
0380
0c60
1830
3018
3018
3018
3018
3018
1830
0c60
0380
0000
0000
ENDCHAR
STARTCHAR 01-06-16
ENCODING 9776
SWIDTH 960 0
DWIDTH 14 0
BBX 14 14 0 -2
BITMAP
0000
3ff8
1830
1830
1830
1830
1830
1830
1830
1830
1830
3c78
0000
0000
ENDCHAR
STARTCHAR 01-06-17
ENCODING 9777
SWIDTH 960 0
DWIDTH 14 0
BBX 14 14 0 -2
BITMAP
0000
3f80
0c60
0c30
0c30
0c60
0f80
0c00
0c00
0c00
0c00
3f00
0000
0000
ENDCHAR
STARTCHAR 01-06-18
ENCODING 9778
SWIDTH 960 0
DWIDTH 14 0
BBX 14 14 0 -2
BITMAP
0000
3fe0
1820
0c10
0600
0300
0180
0100
0200
0410
0820
3fe0
0000
0000
ENDCHAR
STARTCHAR 01-06-19
ENCODING 9779
SWIDTH 960 0
DWIDTH 14 0
BBX 14 14 0 -2
BITMAP
0000
3ff0
2310
4308
0300
0300
0300
0300
0300
0300
0300
0fc0
0000
0000
ENDCHAR
STARTCHAR 01-06-20
ENCODING 9780
SWIDTH 960 0
DWIDTH 14 0
BBX 14 14 0 -2
BITMAP
0000
0cc0
17a0
2310
2310
0300
0300
0300
0300
0300
0300
0fc0
0000
0000
ENDCHAR
STARTCHAR 01-06-21
ENCODING 9781
SWIDTH 960 0
DWIDTH 14 0
BBX 14 14 0 -2
BITMAP
0000
0fc0
0300
0780
1b60
3330
3330
3330
1b60
0780
0300
0fc0
0000
0000
ENDCHAR
STARTCHAR 01-06-22
ENCODING 9782
SWIDTH 960 0
DWIDTH 14 0
BBX 14 14 0 -2
BITMAP
0000
3c78
1820
0c40
0680
0300
0300
0380
04c0
0860
1030
3878
0000
0000
ENDCHAR
STARTCHAR 01-06-23
ENCODING 9783
SWIDTH 960 0
DWIDTH 14 0
BBX 14 14 0 -2
BITMAP
0000
0fc0
0300
6318
3330
3330
3330
1320
0fc0
0300
0300
0fc0
0000
0000
ENDCHAR
STARTCHAR 01-06-24
ENCODING 9784
SWIDTH 960 0
DWIDTH 14 0
BBX 14 14 0 -2
BITMAP
0000
0380
0c60
1830
3018
3018
3018
1830
0820
0440
2288
3ef8
0000
0000
ENDCHAR
STARTCHAR 01-06-25
ENCODING 9785
SWIDTH 960 0
DWIDTH 14 0
BBX 14 14 0 -2
BITMAP
0000
0200
0700
0d80
18c0
3060
6030
4010
6730
3ae0
0200
0700
0000
0000
ENDCHAR
STARTCHAR 01-06-26
ENCODING 9786
SWIDTH 960 0
DWIDTH 14 0
BBX 14 14 0 -2
BITMAP
0000
0200
0700
0f80
1fc0
3fe0
7ff0
7ff0
7ff0
3ae0
0200
0700
0000
0000
ENDCHAR
STARTCHAR 01-06-27
ENCODING 9787
SWIDTH 960 0
DWIDTH 14 0
BBX 14 14 0 -2
BITMAP
0000
0200
0500
0d80
1040
3060
6030
3060
1040
0d80
0500
0200
0000
0000
ENDCHAR
STARTCHAR 01-06-28
ENCODING 9788
SWIDTH 960 0
DWIDTH 14 0
BBX 14 14 0 -2
BITMAP
0000
0200
0700
0f80
1fc0
3fe0
7ff0
3fe0
1fc0
0f80
0700
0200
0000
0000
ENDCHAR
STARTCHAR 01-06-29
ENCODING 9789
SWIDTH 960 0
DWIDTH 14 0
BBX 14 14 0 -2
BITMAP
0000
38e0
6530
4210
4210
4010
6030
2020
18c0
0880
0700
0200
0000
0000
ENDCHAR
STARTCHAR 01-06-30
ENCODING 9790
SWIDTH 960 0
DWIDTH 14 0
BBX 14 14 0 -2
BITMAP
0000
38e0
7df0
7df0
7ff0
7ff0
7ff0
3fe0
1fc0
0f80
0700
0200
0000
0000
ENDCHAR
STARTCHAR 01-06-31
ENCODING 9791
SWIDTH 960 0
DWIDTH 14 0
BBX 14 14 0 -2
BITMAP
0000
0700
0880
0880
1540
38e0
4010
4010
6730
3ae0
0200
0700
0000
0000
ENDCHAR
STARTCHAR 01-06-32
ENCODING 9792
SWIDTH 960 0
DWIDTH 14 0
BBX 14 14 0 -2
BITMAP
0000
0700
0f80
0f80
1740
3fe0
7ff0
7ff0
7ff0
3ae0
0200
0700
0000
0000
ENDCHAR
STARTCHAR 01-06-33
ENCODING 9793
SWIDTH 960 0
DWIDTH 14 0
BBX 14 14 0 -2
BITMAP
0000
0000
0000
0020
0720
0ca0
1860
1060
1040
10c0
1940
0e30
0000
0000
ENDCHAR
STARTCHAR 01-06-34
ENCODING 9794
SWIDTH 960 0
DWIDTH 14 0
BBX 14 14 0 -2
BITMAP
0000
00e0
0110
0210
0210
0420
05c0
0420
0c20
0820
0c60
1bc0
1000
1000
ENDCHAR
STARTCHAR 01-06-35
ENCODING 9795
SWIDTH 960 0
DWIDTH 14 0
BBX 14 14 0 -2
BITMAP
0000
0000
0000
0000
0630
0940
0180
0100
0100
0300
0300
0300
0200
0000
ENDCHAR
STARTCHAR 01-06-36
ENCODING 9796
SWIDTH 960 0
DWIDTH 14 0
BBX 14 14 0 -2
BITMAP
0000
0380
04e0
0410
0200
0380
04c0
0c40
0840
08c0
0980
0700
0000
0000
ENDCHAR
STARTCHAR 01-06-37
ENCODING 9797
SWIDTH 960 0
DWIDTH 14 0
BBX 14 14 0 -2
BITMAP
0000
0000
0000
0000
0380
0640
0400
0380
0600
0c00
0c40
0780
0000
0000
ENDCHAR
STARTCHAR 01-06-38
ENCODING 9798
SWIDTH 960 0
DWIDTH 14 0
BBX 14 14 0 -2
BITMAP
0000
0400
0ce0
07c0
0200
0400
0400
0800
0800
0e00
0780
00c0
0640
0380
ENDCHAR
STARTCHAR 01-06-39
ENCODING 9799
SWIDTH 960 0
DWIDTH 14 0
BBX 14 14 0 -2
BITMAP
0000
0000
0000
0000
0cc0
1720
0220
0420
0420
0c40
0840
08c0
0080
0080
ENDCHAR
STARTCHAR 01-06-40
ENCODING 9800
SWIDTH 960 0
DWIDTH 14 0
BBX 14 14 0 -2
BITMAP
0000
00e0
0110
0210
0610
0430
0ff0
0c20
0860
0840
0880
0700
0000
0000
ENDCHAR
STARTCHAR 01-06-41
ENCODING 9801
SWIDTH 960 0
DWIDTH 14 0
BBX 14 14 0 -2
BITMAP
0000
0000
0000
0000
0100
0300
0200
0600
0400
0400
0680
0300
0000
0000
ENDCHAR
STARTCHAR 01-06-42
ENCODING 9802
SWIDTH 960 0
DWIDTH 14 0
BBX 14 14 0 -2
BITMAP
0000
0000
0000
0000
0470
04c0
0d00
0e00
0900
1900
11a0
10c0
0000
0000
ENDCHAR
STARTCHAR 01-06-43
ENCODING 9803
SWIDTH 960 0
DWIDTH 14 0
BBX 14 14 0 -2
BITMAP
0000
0380
00c0
0040
00c0
0140
0140
0240
0640
0440
0c60
0830
0000
0000
ENDCHAR
STARTCHAR 01-06-44
ENCODING 9804
SWIDTH 960 0
DWIDTH 14 0
BBX 14 14 0 -2
BITMAP
0000
0000
0000
0000
0420
0420
0460
0c40
0840
0840
0ce8
1b30
1000
1000
ENDCHAR
STARTCHAR 01-06-45
ENCODING 9805
SWIDTH 960 0
DWIDTH 14 0
BBX 14 14 0 -2
BITMAP
0000
0000
0000
0000
0820
0c20
0440
0440
0480
0700
0e00
0800
0000
0000
ENDCHAR
STARTCHAR 01-06-46
ENCODING 9806
SWIDTH 960 0
DWIDTH 14 0
BBX 14 14 0 -2
BITMAP
0300
0460
03e0
0200
0400
0400
03c0
04c0
0800
0800
0e00
0780
00c0
0780
ENDCHAR
STARTCHAR 01-06-47
ENCODING 9807
SWIDTH 960 0
DWIDTH 14 0
BBX 14 14 0 -2
BITMAP
0000
0000
0000
0000
00c0
0320
0610
0c30
0c30
0860
04c0
0300
0000
0000
ENDCHAR
STARTCHAR 01-06-48
ENCODING 9808
SWIDTH 960 0
DWIDTH 14 0
BBX 14 14 0 -2
BITMAP
0000
0000
0000
0c08
1ff0
2240
0440
0480
0880
0880
18c0
3060
0000
0000
ENDCHAR
STARTCHAR 01-06-49
ENCODING 9809
SWIDTH 960 0
DWIDTH 14 0
BBX 14 14 0 -2
BITMAP
0000
0000
0000
0000
01e0
0310
0610
0410
0c30
0c20
0c60
1b80
1000
1000
ENDCHAR
STARTCHAR 01-06-50
ENCODING 9810
SWIDTH 960 0
DWIDTH 14 0
BBX 14 14 0 -2
BITMAP
0000
0000
0000
0000
01f0
0780
0c40
1840
1040
10c0
1180
0f00
0000
0000
ENDCHAR
STARTCHAR 01-06-51
ENCODING 9811
SWIDTH 960 0
DWIDTH 14 0
BBX 14 14 0 -2
BITMAP
0000
0000
0000
0000
0630
0fe0
1100
0300
0200
0400
0680
0300
0000
0000
ENDCHAR
STARTCHAR 01-06-52
ENCODING 9812
SWIDTH 960 0
DWIDTH 14 0
BBX 14 14 0 -2
BITMAP
0000
0000
0000
0000
0440
0460
0c20
0c20
0860
0840
08c0
0780
0000
0000
ENDCHAR
STARTCHAR 01-06-53
ENCODING 9813
SWIDTH 960 0
DWIDTH 14 0
BBX 14 14 0 -2
BITMAP
0000
0080
0080
0080
0380
0dc0
1920
3130
3230
1260
0ec0
0700
0400
0400
ENDCHAR
STARTCHAR 01-06-54
ENCODING 9814
SWIDTH 960 0
DWIDTH 14 0
BBX 14 14 0 -2
BITMAP
0000
0610
0b30
0160
0140
0180
0100
0300
0700
0500
0900
1900
31a0
20c0
ENDCHAR
STARTCHAR 01-06-55
ENCODING 9815
SWIDTH 960 0
DWIDTH 14 0
BBX 14 14 0 -2
BITMAP
0000
0080
0080
0080
31a0
5930
0910
0910
1230
1260
12c0
0f00
0400
0400
ENDCHAR
STARTCHAR 01-06-56
ENCODING 9816
SWIDTH 960 0
DWIDTH 14 0
BBX 14 14 0 -2
BITMAP
0000
0000
0000
0000
0820
1010
3110
2310
2230
2220
3660
1980
0000
0000
ENDCHAR
STARTCHAR 01-06-57
ENCODING 9817
SWIDTH 960 0
DWIDTH 14 0
BBX 14 14 0 -2
BITMAP
0000
0000
0000
01c0
03a0
0610
0c30
0830
0c60
0400
0200
0100
0480
0300
ENDCHAR
STARTCHAR 01-06-58
ENCODING 9818
SWIDTH 960 0
DWIDTH 14 0
BBX 14 14 0 -2
BITMAP
0780
1860
2790
5868
5128
a714
a114
a114
a114
5128
5868
2790
1860
0780
ENDCHAR
STARTCHAR 01-06-59
ENCODING 9819
SWIDTH 960 0
DWIDTH 14 0
BBX 14 14 0 -2
BITMAP
0780
1860
2790
5868
5328
a494
a094
a314
a414
57a8
5868
2790
1860
0780
ENDCHAR
STARTCHAR 01-06-60
ENCODING 9820
SWIDTH 960 0
DWIDTH 14 0
BBX 14 14 0 -2
BITMAP
0780
1860
2790
5868
5328
a494
a314
a094
a494
5328
5868
2790
1860
0780
ENDCHAR
STARTCHAR 01-06-61
ENCODING 9821
SWIDTH 960 0
DWIDTH 14 0
BBX 14 14 0 -2
BITMAP
0780
1860
2790
5868
5128
a314
a514
a514
a794
5128
5868
2790
1860
0780
ENDCHAR
STARTCHAR 01-06-62
ENCODING 9822
SWIDTH 960 0
DWIDTH 14 0
BBX 14 14 0 -2
BITMAP
0780
1860
2790
5868
57a8
a414
a714
a094
a494
5328
5868
2790
1860
0780
ENDCHAR
STARTCHAR 01-06-63
ENCODING 9823
SWIDTH 960 0
DWIDTH 14 0
BBX 14 14 0 -2
BITMAP
0780
1860
2790
5868
5328
a494
a714
a494
a494
5328
5868
2790
1860
0780
ENDCHAR
STARTCHAR 01-06-64
ENCODING 9824
SWIDTH 960 0
DWIDTH 14 0
BBX 14 14 0 -2
BITMAP
0780
1860
2790
5868
57a8
a094
a114
a214
a214
5228
5868
2790
1860
0780
ENDCHAR
STARTCHAR 01-06-65
ENCODING 9825
SWIDTH 960 0
DWIDTH 14 0
BBX 14 14 0 -2
BITMAP
0780
1860
2790
5868
5328
a494
a314
a494
a494
5328
5868
2790
1860
0780
ENDCHAR
STARTCHAR 01-06-66
ENCODING 9826
SWIDTH 960 0
DWIDTH 14 0
BBX 14 14 0 -2
BITMAP
0780
1860
2790
5868
5328
a494
a494
a394
a494
5328
5868
2790
1860
0780
ENDCHAR
STARTCHAR 01-06-67
ENCODING 9827
SWIDTH 960 0
DWIDTH 14 0
BBX 14 14 0 -2
BITMAP
0780
1860
2790
5868
54a8
ad54
a554
a554
a554
54a8
5868
2790
1860
0780
ENDCHAR
STARTCHAR 01-06-68
ENCODING 9828
SWIDTH 960 0
DWIDTH 14 0
BBX 14 14 0 -2
BITMAP
0000
0100
06c0
1830
1010
1010
2008
2008
2008
2008
4004
4004
7ffc
0000
ENDCHAR
STARTCHAR 01-06-69
ENCODING 9829
SWIDTH 960 0
DWIDTH 14 0
BBX 14 14 0 -2
BITMAP
0000
0100
07c0
1ff0
1ff0
1ff0
3ff8
3ff8
3ff8
3ff8
7ffc
7ffc
7ffc
0000
ENDCHAR
STARTCHAR 01-06-70
ENCODING 9830
SWIDTH 960 0
DWIDTH 14 0
BBX 14 14 0 -2
BITMAP
3ff0
3ff0
0000
3ff0
3ff0
4308
bb74
ab54
bb74
4008
4848
4788
3030
0fc0
ENDCHAR
STARTCHAR 01-06-71
ENCODING 9831
SWIDTH 960 0
DWIDTH 14 0
BBX 14 14 0 -2
BITMAP
0000
0000
3ff0
6498
6498
0fc0
3cf0
3870
3870
7cf8
7ff8
7ff8
0000
0000
ENDCHAR
STARTCHAR 01-06-72
ENCODING 9832
SWIDTH 960 0
DWIDTH 14 0
BBX 14 14 0 -2
BITMAP
0200
4210
2020
0000
0700
0f80
cf98
0f80
0700
0000
2020
4210
0200
0000
ENDCHAR
STARTCHAR 01-06-73
ENCODING 9833
SWIDTH 960 0
DWIDTH 14 0
BBX 14 14 0 -2
BITMAP
0000
0000
0600
0f60
0ff0
37e0
7fd0
fff8
7ff8
3bf0
01e0
0000
0000
0000
ENDCHAR
STARTCHAR 01-06-74
ENCODING 9834
SWIDTH 960 0
DWIDTH 14 0
BBX 14 14 0 -2
BITMAP
0200
0200
0f80
3fe0
7ff0
7ff0
dad8
9288
0200
0200
0200
1200
0a00
0600
ENDCHAR
STARTCHAR 01-06-75
ENCODING 9835
SWIDTH 960 0
DWIDTH 14 0
BBX 14 14 0 -2
BITMAP
0260
20f4
8ff0
1020
26d0
a6d4
5008
2290
4108
4004
4104
2008
9110
0fe0
ENDCHAR
STARTCHAR 01-06-76
ENCODING 9836
SWIDTH 960 0
DWIDTH 14 0
BBX 14 14 0 -2
BITMAP
0000
0100
0920
0a20
1240
1240
0920
2930
4928
5248
4208
3030
0fc0
0000
ENDCHAR
STARTCHAR 01-06-77
ENCODING 9837
SWIDTH 960 0
DWIDTH 14 0
BBX 14 14 0 -2
BITMAP
0000
0000
0000
0ffc
1008
1008
2010
2010
4020
4020
ffc0
0000
0000
0000
ENDCHAR
STARTCHAR 01-06-78
ENCODING 9838
SWIDTH 960 0
DWIDTH 14 0
BBX 14 14 0 -2
BITMAP
0000
0000
0000
0000
0400
0200
03e0
0420
0840
1040
0080
0100
0200
0c00
ENDCHAR
STARTCHAR 01-06-79
ENCODING 9839
SWIDTH 960 0
DWIDTH 14 0
BBX 14 14 0 -2
BITMAP
0000
0000
0000
0000
0000
0c00
0200
1800
0400
0020
0040
0080
1300
0c00
ENDCHAR
STARTCHAR 01-06-80
ENCODING 9840
SWIDTH 960 0
DWIDTH 14 0
BBX 14 14 0 -2
BITMAP
0000
0000
0000
0000
0000
11c0
0e40
0080
0080
0100
0180
0240
0420
1820
ENDCHAR
STARTCHAR 01-06-81
ENCODING 9841
SWIDTH 960 0
DWIDTH 14 0
BBX 14 14 0 -2
BITMAP
0000
0000
0000
0000
0800
0400
0400
0400
0600
0580
0440
0400
0400
0400
ENDCHAR
STARTCHAR 01-06-82
ENCODING 9842
SWIDTH 960 0
DWIDTH 14 0
BBX 14 14 0 -2
BITMAP
0000
0000
0000
0000
0000
09e0
0620
0040
0080
0e80
0180
0240
0420
1800
ENDCHAR
STARTCHAR 01-06-83
ENCODING 9843
SWIDTH 960 0
DWIDTH 14 0
BBX 14 14 0 -2
BITMAP
0000
0000
0000
0000
0000
0000
0880
0440
0440
0820
0820
1010
2010
0000
ENDCHAR
STARTCHAR 01-06-84
ENCODING 9844
SWIDTH 960 0
DWIDTH 14 0
BBX 14 14 0 -2
BITMAP
0000
0000
0000
0000
0000
1000
0800
08c0
0f00
0800
0800
0800
0400
03e0
ENDCHAR
STARTCHAR 01-06-85
ENCODING 9845
SWIDTH 960 0
DWIDTH 14 0
BBX 14 14 0 -2
BITMAP
0000
0000
0000
0000
0000
0000
11e0
0e20
0040
0040
0080
0100
0200
0400
ENDCHAR
STARTCHAR 01-06-86
ENCODING 9846
SWIDTH 960 0
DWIDTH 14 0
BBX 14 14 0 -2
BITMAP
0000
0000
0000
0000
0000
0000
0400
0600
0a00
0900
10c0
1060
0000
0000
ENDCHAR
STARTCHAR 01-06-87
ENCODING 9847
SWIDTH 960 0
DWIDTH 14 0
BBX 14 14 0 -2
BITMAP
0000
0000
0000
0000
0200
0100
11e0
0f00
0100
0140
0920
0920
1320
0100
ENDCHAR
STARTCHAR 01-06-88
ENCODING 9848
SWIDTH 960 0
DWIDTH 14 0
BBX 14 14 0 -2
BITMAP
0000
0000
0000
0030
0048
0048
13b0
0c40
0080
0080
0100
0200
0400
0800
ENDCHAR
STARTCHAR 01-06-89
ENCODING 9849
SWIDTH 960 0
DWIDTH 14 0
BBX 14 14 0 -2
BITMAP
0000
0000
0000
0000
0400
0200
0200
0400
0480
0440
0840
09a0
1620
0000
ENDCHAR
STARTCHAR 01-06-90
ENCODING 9850
SWIDTH 960 0
DWIDTH 14 0
BBX 14 14 0 -2
BITMAP
0000
0000
0000
0000
0000
09c0
0600
00e0
1320
0c20
0040
0080
0100
0600
ENDCHAR
STARTCHAR 01-06-91
ENCODING 9851
SWIDTH 960 0
DWIDTH 14 0
BBX 14 14 0 -2
BITMAP
0000
0000
0000
0000
0080
1040
0840
0840
0840
0840
0080
0080
0100
0200
ENDCHAR
STARTCHAR 01-06-92
ENCODING 9852
SWIDTH 960 0
DWIDTH 14 0
BBX 14 14 0 -2
BITMAP
0000
0000
0000
0000
0000
0200
1100
0900
0910
0910
0910
1120
1140
2180
ENDCHAR
STARTCHAR 01-06-93
ENCODING 9853
SWIDTH 960 0
DWIDTH 14 0
BBX 14 14 0 -2
BITMAP
0000
0000
0000
0000
0000
1000
0800
0800
0800
0820
0840
0880
0b00
0c00
ENDCHAR
STARTCHAR 01-06-94
ENCODING 9854
SWIDTH 960 0
DWIDTH 14 0
BBX 14 14 0 -2
BITMAP
0000
0000
0000
0000
0000
0000
21e0
1e20
1020
1040
1040
09c0
0e20
0800
ENDCHAR
STARTCHAR 01-07-01
ENCODING 10017
SWIDTH 960 0
DWIDTH 14 0
BBX 14 14 0 -2
BITMAP
0000
0100
0100
0380
0380
04c0
04c0
0860
0fe0
1030
1030
7878
0000
0000
ENDCHAR
STARTCHAR 01-07-02
ENCODING 10018
SWIDTH 960 0
DWIDTH 14 0
BBX 14 14 0 -2
BITMAP
0000
3fe0
0c20
0c10
0c00
0c00
0f80
0c60
0c30
0c30
0c30
0c60
3f80
0000
ENDCHAR
STARTCHAR 01-07-03
ENCODING 10019
SWIDTH 960 0
DWIDTH 14 0
BBX 14 14 0 -2
BITMAP
0000
3f80
0c60
0c30
0c30
0c60
0fc0
0c30
0c18
0c18
0c30
3fc0
0000
0000
ENDCHAR
STARTCHAR 01-07-04
ENCODING 10020
SWIDTH 960 0
DWIDTH 14 0
BBX 14 14 0 -2
BITMAP
0000
3fe0
0c60
0c10
0c00
0c00
0c00
0c00
0c00
0c00
0c00
3f00
0000
0000
ENDCHAR
STARTCHAR 01-07-05
ENCODING 10021
SWIDTH 960 0
DWIDTH 14 0
BBX 14 14 0 -2
BITMAP
0000
0ff0
0460
0460
0460
0460
0460
0460
0460
0860
0860
1ff8
3018
2008
ENDCHAR
STARTCHAR 01-07-06
ENCODING 10022
SWIDTH 960 0
DWIDTH 14 0
BBX 14 14 0 -2
BITMAP
0000
3fe0
0c20
0c10
0c00
0c40
0fc0
0c40
0c00
0c08
0c10
3ff0
0000
0000
ENDCHAR
STARTCHAR 01-07-07
ENCODING 10023
SWIDTH 960 0
DWIDTH 14 0
BBX 14 14 0 -2
BITMAP
0cc0
0cc0
3fe0
0c10
0c00
0c40
0fc0
0c40
0c00
0c08
0c10
3ff0
0000
0000
ENDCHAR
STARTCHAR 01-07-08
ENCODING 10024
SWIDTH 960 0
DWIDTH 14 0
BBX 14 14 0 -2
BITMAP
0000
6798
7338
1320
1320
1320
0fc0
0b40
1320
3330
2310
77b8
0000
0000
ENDCHAR
STARTCHAR 01-07-09
ENCODING 10025
SWIDTH 960 0
DWIDTH 14 0
BBX 14 14 0 -2
BITMAP
0000
0780
1c60
1030
0030
0060
03c0
0060
0030
1030
1c60
0780
0000
0000
ENDCHAR
STARTCHAR 01-07-10
ENCODING 10026
SWIDTH 960 0
DWIDTH 14 0
BBX 14 14 0 -2
BITMAP
0000
3c78
1830
1830
1870
18b0
1930
1a30
1c30
1830
1830
3c78
0000
0000
ENDCHAR
STARTCHAR 01-07-11
ENCODING 10027
SWIDTH 960 0
DWIDTH 14 0
BBX 14 14 0 -2
BITMAP
06c0
0380
3c78
1830
1870
18b0
1930
1a30
1c30
1830
1830
3c78
0000
0000
ENDCHAR
STARTCHAR 01-07-12
ENCODING 10028
SWIDTH 960 0
DWIDTH 14 0
BBX 14 14 0 -2
BITMAP
0000
3c38
1858
1880
1880
1900
1f00
1980
18c0
1860
1830
3c78
0000
0000
ENDCHAR
STARTCHAR 01-07-13
ENCODING 10029
SWIDTH 960 0
DWIDTH 14 0
BBX 14 14 0 -2
BITMAP
0000
07f8
0230
0230
0230
0230
0230
0230
0230
3430
3430
1878
0000
0000
ENDCHAR
STARTCHAR 01-07-14
ENCODING 10030
SWIDTH 960 0
DWIDTH 14 0
BBX 14 14 0 -2
BITMAP
0000
3870
1860
1860
1ce0
1ce0
1760
2630
2230
2230
2030
7078
0000
0000
ENDCHAR
STARTCHAR 01-07-15
ENCODING 10031
SWIDTH 960 0
DWIDTH 14 0
BBX 14 14 0 -2
BITMAP
0000
3c78
1830
1830
1830
1830
1ff0
1830
1830
1830
1830
3c78
0000
0000
ENDCHAR
STARTCHAR 01-07-16
ENCODING 10032
SWIDTH 960 0
DWIDTH 14 0
BBX 14 14 0 -2
BITMAP
0000
0380
0c60
1830
3018
3018
3018
3018
3018
1830
0c60
0380
0000
0000
ENDCHAR
STARTCHAR 01-07-17
ENCODING 10033
SWIDTH 960 0
DWIDTH 14 0
BBX 14 14 0 -2
BITMAP
0000
3ff8
1830
1830
1830
1830
1830
1830
1830
1830
1830
3c78
0000
0000
ENDCHAR
STARTCHAR 01-07-18
ENCODING 10034
SWIDTH 960 0
DWIDTH 14 0
BBX 14 14 0 -2
BITMAP
0000
3f80
0c60
0c30
0c30
0c60
0f80
0c00
0c00
0c00
0c00
3f00
0000
0000
ENDCHAR
STARTCHAR 01-07-19
ENCODING 10035
SWIDTH 960 0
DWIDTH 14 0
BBX 14 14 0 -2
BITMAP
0000
03d0
0c30
1810
3010
3000
3000
3000
3000
1810
0c30
03c0
0000
0000
ENDCHAR
STARTCHAR 01-07-20
ENCODING 10036
SWIDTH 960 0
DWIDTH 14 0
BBX 14 14 0 -2
BITMAP
0000
3ff0
2310
4308
0300
0300
0300
0300
0300
0300
0300
0fc0
0000
0000
ENDCHAR
STARTCHAR 01-07-21
ENCODING 10037
SWIDTH 960 0
DWIDTH 14 0
BBX 14 14 0 -2
BITMAP
0000
3c78
1810
1810
0c20
0c20
0640
0640
0380
0380
0100
1900
1a00
0c00
ENDCHAR
STARTCHAR 01-07-22
ENCODING 10038
SWIDTH 960 0
DWIDTH 14 0
BBX 14 14 0 -2
BITMAP
0000
0fc0
0300
0780
1b60
3330
3330
3330
1b60
0780
0300
0fc0
0000
0000
ENDCHAR
STARTCHAR 01-07-23
ENCODING 10039
SWIDTH 960 0
DWIDTH 14 0
BBX 14 14 0 -2
BITMAP
0000
3c78
1820
0c40
0680
0300
0300
0380
04c0
0860
1030
3878
0000
0000
ENDCHAR
STARTCHAR 01-07-24
ENCODING 10040
SWIDTH 960 0
DWIDTH 14 0
BBX 14 14 0 -2
BITMAP
0000
3c78
1830
1830
1830
1830
1830
1830
1830
1830
1830
3ff8
0018
0008
ENDCHAR
STARTCHAR 01-07-25
ENCODING 10041
SWIDTH 960 0
DWIDTH 14 0
BBX 14 14 0 -2
BITMAP
0000
3cf0
1860
1860
1860
1860
1860
0fe0
0060
0060
0060
01f0
0000
0000
ENDCHAR
STARTCHAR 01-07-26
ENCODING 10042
SWIDTH 960 0
DWIDTH 14 0
BBX 14 14 0 -2
BITMAP
0000
77b8
3330
3330
3330
3330
3330
3330
3330
3330
3330
7ff8
0000
0000
ENDCHAR
STARTCHAR 01-07-27
ENCODING 10043
SWIDTH 960 0
DWIDTH 14 0
BBX 14 14 0 -2
BITMAP
0000
77b8
3330
3330
3330
3330
3330
3330
3330
3330
3330
7ff8
0018
0008
ENDCHAR
STARTCHAR 01-07-28
ENCODING 10044
SWIDTH 960 0
DWIDTH 14 0
BBX 14 14 0 -2
BITMAP
0000
3f00
2600
4600
0600
07e0
0630
0618
0618
0618
0630
1fc0
0000
0000
ENDCHAR
STARTCHAR 01-07-29
ENCODING 10045
SWIDTH 960 0
DWIDTH 14 0
BBX 14 14 0 -2
BITMAP
0000
3c78
1830
1830
1830
1e30
19b0
18f0
18f0
18f0
19b0
3e78
0000
0000
ENDCHAR
STARTCHAR 01-07-30
ENCODING 10046
SWIDTH 960 0
DWIDTH 14 0
BBX 14 14 0 -2
BITMAP
0000
3f00
0c00
0c00
0c00
0f80
0c60
0c30
0c30
0c30
0c60
3f80
0000
0000
ENDCHAR
STARTCHAR 01-07-31
ENCODING 10047
SWIDTH 960 0
DWIDTH 14 0
BBX 14 14 0 -2
BITMAP
0000
0780
1c60
1030
0010
0618
0bb8
00d8
0010
1030
1c60
0780
0000
0000
ENDCHAR
STARTCHAR 01-07-32
ENCODING 10048
SWIDTH 960 0
DWIDTH 14 0
BBX 14 14 0 -2
BITMAP
0000
78c0
3330
3210
3618
3618
3e18
3618
3618
3210
3330
78c0
0000
0000
ENDCHAR
STARTCHAR 01-07-33
ENCODING 10049
SWIDTH 960 0
DWIDTH 14 0
BBX 14 14 0 -2
BITMAP
0000
03f8
0c30
1830
1830
1830
0c30
07f0
0330
0630
0c30
3078
0000
0000
ENDCHAR
STARTCHAR 01-07-34
ENCODING 10050
SWIDTH 960 0
DWIDTH 14 0
BBX 14 14 0 -2
BITMAP
01fc
0100
0100
0100
0100
0100
0100
0100
0100
0100
0100
0100
0100
0100
ENDCHAR
STARTCHAR 01-07-35
ENCODING 10051
SWIDTH 960 0
DWIDTH 14 0
BBX 14 14 0 -2
BITMAP
0100
0100
0100
0100
0100
0100
0100
0100
0100
0100
0100
0100
0100
01fc
ENDCHAR
STARTCHAR 01-07-36
ENCODING 10052
SWIDTH 960 0
DWIDTH 14 0
BBX 14 14 0 -2
BITMAP
0100
0100
07c0
1930
1110
2108
2108
2108
2108
1110
1930
07c0
0100
0100
ENDCHAR
STARTCHAR 01-07-37
ENCODING 10053
SWIDTH 960 0
DWIDTH 14 0
BBX 14 14 0 -2
BITMAP
fffc
0100
07c0
1930
1110
2108
2108
2108
2108
1110
1930
07c0
0100
0100
ENDCHAR
STARTCHAR 01-07-38
ENCODING 10054
SWIDTH 960 0
DWIDTH 14 0
BBX 14 14 0 -2
BITMAP
0100
0100
07c0
1930
1110
2108
2108
2108
2108
1110
1930
07c0
0100
fffc
ENDCHAR
STARTCHAR 01-07-39
ENCODING 10055
SWIDTH 960 0
DWIDTH 14 0
BBX 14 14 0 -2
BITMAP
0100
0100
0100
0380
0380
0540
0540
0920
0920
1110
1110
3ff8
0100
0100
ENDCHAR
STARTCHAR 01-07-40
ENCODING 10056
SWIDTH 960 0
DWIDTH 14 0
BBX 14 14 0 -2
BITMAP
fffc
0100
0100
0380
0380
0540
0540
0920
0920
1110
1110
3ff8
0100
0100
ENDCHAR
STARTCHAR 01-07-41
ENCODING 10057
SWIDTH 960 0
DWIDTH 14 0
BBX 14 14 0 -2
BITMAP
0100
0100
0100
0380
0380
0540
0540
0920
0920
1110
1110
3ff8
0100
fffc
ENDCHAR
STARTCHAR 01-07-42
ENCODING 10058
SWIDTH 960 0
DWIDTH 14 0
BBX 14 14 0 -2
BITMAP
0100
0100
0100
0100
0100
1d00
2308
2188
0170
0100
0100
0100
0100
0100
ENDCHAR
STARTCHAR 01-07-43
ENCODING 10059
SWIDTH 960 0
DWIDTH 14 0
BBX 14 14 0 -2
BITMAP
fffc
0100
0100
0100
0100
1d00
2308
2188
0170
0100
0100
0100
0100
0100
ENDCHAR
STARTCHAR 01-07-44
ENCODING 10060
SWIDTH 960 0
DWIDTH 14 0
BBX 14 14 0 -2
BITMAP
0100
0100
0100
0100
0100
1d00
2308
2188
0170
0100
0100
0100
0100
fffc
ENDCHAR
STARTCHAR 01-07-45
ENCODING 10061
SWIDTH 960 0
DWIDTH 14 0
BBX 14 14 0 -2
BITMAP
fffc
0100
0100
0100
0100
0100
0100
0100
0100
0100
0100
0100
0100
0100
ENDCHAR
STARTCHAR 01-07-46
ENCODING 10062
SWIDTH 960 0
DWIDTH 14 0
BBX 14 14 0 -2
BITMAP
0100
0100
0100
0100
0100
0100
0100
0100
0100
0100
0100
0100
0100
fffc
ENDCHAR
STARTCHAR 01-07-47
ENCODING 10063
SWIDTH 960 0
DWIDTH 14 0
BBX 14 14 0 -2
BITMAP
ff00
0100
0100
0100
0100
0100
0100
0100
0100
0100
0100
0100
0100
0100
ENDCHAR
STARTCHAR 01-07-48
ENCODING 10064
SWIDTH 960 0
DWIDTH 14 0
BBX 14 14 0 -2
BITMAP
0100
0100
0100
0100
0100
0100
0100
0100
0100
0100
0100
0100
0100
ff00
ENDCHAR
STARTCHAR 01-07-49
ENCODING 10065
SWIDTH 960 0
DWIDTH 14 0
BBX 14 14 0 -2
BITMAP
0000
0000
0000
0000
0780
0c40
0c60
03e0
0c60
1860
18e0
0f30
0000
0000
ENDCHAR
STARTCHAR 01-07-50
ENCODING 10066
SWIDTH 960 0
DWIDTH 14 0
BBX 14 14 0 -2
BITMAP
0010
00e0
03c0
0400
0580
0e60
0c30
0c30
0c30
0c30
0660
0180
0000
0000
ENDCHAR
STARTCHAR 01-07-51
ENCODING 10067
SWIDTH 960 0
DWIDTH 14 0
BBX 14 14 0 -2
BITMAP
0000
0000
0000
0000
1fc0
0c60
0c60
0fc0
0c20
0c30
0c30
1fe0
0000
0000
ENDCHAR
STARTCHAR 01-07-52
ENCODING 10068
SWIDTH 960 0
DWIDTH 14 0
BBX 14 14 0 -2
BITMAP
0000
0000
0000
0000
1fe0
0c20
0c10
0c00
0c00
0c00
0c00
1f00
0000
0000
ENDCHAR
STARTCHAR 01-07-53
ENCODING 10069
SWIDTH 960 0
DWIDTH 14 0
BBX 14 14 0 -2
BITMAP
0000
0000
0000
0000
0ff0
0460
0460
0460
0460
0460
0860
3fe0
2010
0000
ENDCHAR
STARTCHAR 01-07-54
ENCODING 10070
SWIDTH 960 0
DWIDTH 14 0
BBX 14 14 0 -2
BITMAP
0000
0000
0000
0000
07c0
0820
1830
1ff0
1800
1810
0c30
03c0
0000
0000
ENDCHAR
STARTCHAR 01-07-55
ENCODING 10071
SWIDTH 960 0
DWIDTH 14 0
BBX 14 14 0 -2
BITMAP
0000
0660
0660
0000
07c0
0820
1830
1ff0
1800
1810
0c30
03c0
0000
0000
ENDCHAR
STARTCHAR 01-07-56
ENCODING 10072
SWIDTH 960 0
DWIDTH 14 0
BBX 14 14 0 -2
BITMAP
0000
0000
0000
0000
6798
7338
0b40
0fc0
0b40
1320
3330
6798
0000
0000
ENDCHAR
STARTCHAR 01-07-57
ENCODING 10073
SWIDTH 960 0
DWIDTH 14 0
BBX 14 14 0 -2
BITMAP
0000
0000
0000
0000
0780
1860
1060
03c0
0060
1060
1860
0780
0000
0000
ENDCHAR
STARTCHAR 01-07-58
ENCODING 10074
SWIDTH 960 0
DWIDTH 14 0
BBX 14 14 0 -2
BITMAP
0000
0000
0000
0000
3cf0
1860
18e0
1960
1a60
1c60
1860
3cf0
0000
0000
ENDCHAR
STARTCHAR 01-07-59
ENCODING 10075
SWIDTH 960 0
DWIDTH 14 0
BBX 14 14 0 -2
BITMAP
0000
06c0
0380
0000
3cf0
1860
18e0
1960
1a60
1c60
1860
3cf0
0000
0000
ENDCHAR
STARTCHAR 01-07-60
ENCODING 10076
SWIDTH 960 0
DWIDTH 14 0
BBX 14 14 0 -2
BITMAP
0000
0000
0000
0000
3c60
18e0
1900
1f00
1980
18c0
1860
3c70
0000
0000
ENDCHAR
STARTCHAR 01-07-61
ENCODING 10077
SWIDTH 960 0
DWIDTH 14 0
BBX 14 14 0 -2
BITMAP
0000
0000
0000
0000
07f0
0260
0260
0260
0260
3460
3460
18f0
0000
0000
ENDCHAR
STARTCHAR 01-07-62
ENCODING 10078
SWIDTH 960 0
DWIDTH 14 0
BBX 14 14 0 -2
BITMAP
0000
0000
0000
0000
3838
1c70
1c70
16b0
16b0
1330
1330
3878
0000
0000
ENDCHAR
STARTCHAR 01-07-63
ENCODING 10079
SWIDTH 960 0
DWIDTH 14 0
BBX 14 14 0 -2
BITMAP
0000
0000
0000
0000
3cf0
1860
1860
1fe0
1860
1860
1860
3cf0
0000
0000
ENDCHAR
STARTCHAR 01-07-64
ENCODING 10080
SWIDTH 960 0
DWIDTH 14 0
BBX 14 14 0 -2
BITMAP
0000
0000
0000
0000
0380
0c60
1830
1830
1830
1830
0c60
0380
0000
0000
ENDCHAR
STARTCHAR 01-07-65
ENCODING 10081
SWIDTH 960 0
DWIDTH 14 0
BBX 14 14 0 -2
BITMAP
0000
0000
0000
0000
3ff0
1860
1860
1860
1860
1860
1860
3cf0
0000
0000
ENDCHAR
STARTCHAR 01-07-66
ENCODING 10082
SWIDTH 960 0
DWIDTH 14 0
BBX 14 14 0 -2
BITMAP
0000
0000
0000
0000
1dc0
0e60
0c30
0c30
0c30
0c30
0e60
0dc0
0c00
1e00
ENDCHAR
STARTCHAR 01-07-67
ENCODING 10083
SWIDTH 960 0
DWIDTH 14 0
BBX 14 14 0 -2
BITMAP
0000
0000
0000
0000
0380
0c60
1820
1800
1800
1820
0c60
0380
0000
0000
ENDCHAR
STARTCHAR 01-07-68
ENCODING 10084
SWIDTH 960 0
DWIDTH 14 0
BBX 14 14 0 -2
BITMAP
0000
0000
0000
0000
1fe0
1320
2310
0300
0300
0300
0300
0780
0000
0000
ENDCHAR
STARTCHAR 01-07-69
ENCODING 10085
SWIDTH 960 0
DWIDTH 14 0
BBX 14 14 0 -2
BITMAP
0000
0000
0000
0000
1f70
0c20
0620
0640
0340
0380
0180
1900
1900
0e00
ENDCHAR
STARTCHAR 01-07-70
ENCODING 10086
SWIDTH 960 0
DWIDTH 14 0
BBX 14 14 0 -2
BITMAP
0000
0100
0300
0300
1b60
37b0
6318
6318
6318
6318
37b0
1b60
0300
0780
ENDCHAR
STARTCHAR 01-07-71
ENCODING 10087
SWIDTH 960 0
DWIDTH 14 0
BBX 14 14 0 -2
BITMAP
0000
0000
0000
0000
1e70
0c20
0640
0380
0380
04c0
0860
1cf0
0000
0000
ENDCHAR
STARTCHAR 01-07-72
ENCODING 10088
SWIDTH 960 0
DWIDTH 14 0
BBX 14 14 0 -2
BITMAP
0000
0000
0000
0000
3cf0
1860
1860
1860
1860
1860
1860
1ff0
0030
0010
ENDCHAR
STARTCHAR 01-07-73
ENCODING 10089
SWIDTH 960 0
DWIDTH 14 0
BBX 14 14 0 -2
BITMAP
0000
0000
0000
0000
3cf0
1860
1860
1860
0fe0
0060
0060
00f0
0000
0000
ENDCHAR
STARTCHAR 01-07-74
ENCODING 10090
SWIDTH 960 0
DWIDTH 14 0
BBX 14 14 0 -2
BITMAP
0000
0000
0000
0000
7778
3330
3330
3330
3330
3330
3330
7ff8
0000
0000
ENDCHAR
STARTCHAR 01-07-75
ENCODING 10091
SWIDTH 960 0
DWIDTH 14 0
BBX 14 14 0 -2
BITMAP
0000
0000
0000
0000
7778
3330
3330
3330
3330
3330
3330
7ff8
0018
0008
ENDCHAR
STARTCHAR 01-07-76
ENCODING 10092
SWIDTH 960 0
DWIDTH 14 0
BBX 14 14 0 -2
BITMAP
0000
0000
0000
0000
3f00
2600
4600
07e0
0630
0630
0630
0fe0
0000
0000
ENDCHAR
STARTCHAR 01-07-77
ENCODING 10093
SWIDTH 960 0
DWIDTH 14 0
BBX 14 14 0 -2
BITMAP
0000
0000
0000
0000
3c78
1830
1830
1f30
19b0
19b0
19b0
3f78
0000
0000
ENDCHAR
STARTCHAR 01-07-78
ENCODING 10094
SWIDTH 960 0
DWIDTH 14 0
BBX 14 14 0 -2
BITMAP
0000
0000
0000
0000
1e00
0c00
0c00
0fe0
0c30
0c30
0c30
1fe0
0000
0000
ENDCHAR
STARTCHAR 01-07-79
ENCODING 10095
SWIDTH 960 0
DWIDTH 14 0
BBX 14 14 0 -2
BITMAP
0000
0000
0000
0000
0780
1860
1030
0370
05b0
1030
1860
0780
0000
0000
ENDCHAR
STARTCHAR 01-07-80
ENCODING 10096
SWIDTH 960 0
DWIDTH 14 0
BBX 14 14 0 -2
BITMAP
0000
0000
0000
0000
3ce0
1910
1b18
1f18
1b18
1b18
1910
3ce0
0000
0000
ENDCHAR
STARTCHAR 01-07-81
ENCODING 10097
SWIDTH 960 0
DWIDTH 14 0
BBX 14 14 0 -2
BITMAP
0000
0000
0000
0000
07f0
0860
1860
1860
0fe0
0660
0c60
10f0
0000
0000
ENDCHAR
STARTCHAR 01-07-82
ENCODING 10098
SWIDTH 960 0
DWIDTH 14 0
BBX 14 14 0 -2
BITMAP
0008
0024
43d4
3c50
2040
1040
1080
1080
0080
0100
0100
0200
0400
0800
ENDCHAR
STARTCHAR 01-07-83
ENCODING 10099
SWIDTH 960 0
DWIDTH 14 0
BBX 14 14 0 -2
BITMAP
0008
0224
0114
0110
03e0
3d00
1100
0900
0be0
7d10
0100
0100
0100
0100
ENDCHAR
STARTCHAR 01-07-84
ENCODING 10100
SWIDTH 960 0
DWIDTH 14 0
BBX 14 14 0 -2
BITMAP
0008
0024
0014
03d0
3c40
0480
0300
0200
0200
03e0
7c10
0000
0000
0000
ENDCHAR
STARTCHAR 01-07-85
ENCODING 10101
SWIDTH 960 0
DWIDTH 14 0
BBX 14 14 0 -2
BITMAP
0008
0024
03d4
3c50
0040
0040
03c0
1c80
0080
0100
0100
0200
0c00
3000
ENDCHAR
STARTCHAR 01-07-86
ENCODING 10102
SWIDTH 960 0
DWIDTH 14 0
BBX 14 14 0 -2
BITMAP
0000
00e0
0700
3800
0700
00e0
3ff0
1c00
0380
0070
0380
1c00
0000
0000
ENDCHAR
STARTCHAR 01-07-87
ENCODING 10103
SWIDTH 960 0
DWIDTH 14 0
BBX 14 14 0 -2
BITMAP
0000
1c00
0380
0070
0380
1c00
3ff0
00e0
0700
3800
0700
00e0
0000
0000
ENDCHAR
STARTCHAR 01-07-88
ENCODING 10104
SWIDTH 960 0
DWIDTH 14 0
BBX 14 14 0 -2
BITMAP
0000
0800
1810
2820
0840
0880
0970
0288
0408
0870
1008
2088
0070
0000
ENDCHAR
STARTCHAR 01-07-89
ENCODING 10105
SWIDTH 960 0
DWIDTH 14 0
BBX 14 14 0 -2
BITMAP
0000
3800
4410
0420
3840
4080
4170
7e88
0408
0870
1008
2088
0070
0000
ENDCHAR
STARTCHAR 01-07-90
ENCODING 10106
SWIDTH 960 0
DWIDTH 14 0
BBX 14 14 0 -2
BITMAP
0000
0800
1810
2820
0840
0880
09f8
0280
0480
08f0
1008
2088
0070
0000
ENDCHAR
STARTCHAR 01-07-91
ENCODING 10107
SWIDTH 960 0
DWIDTH 14 0
BBX 14 14 0 -2
BITMAP
0000
0000
0010
0020
0040
0080
0180
0100
3200
1a00
0c00
0800
0000
0000
ENDCHAR
STARTCHAR 01-07-92
ENCODING 10108
SWIDTH 960 0
DWIDTH 14 0
BBX 14 14 0 -2
BITMAP
0000
0000
1860
2490
2490
1fe0
0480
0480
1fe0
2490
2490
1860
0000
0000
ENDCHAR
STARTCHAR 01-07-93
ENCODING 10109
SWIDTH 960 0
DWIDTH 14 0
BBX 14 14 0 -2
BITMAP
0000
0000
0000
0000
0000
0000
0000
0000
0000
0000
1020
1020
1fe0
0000
ENDCHAR
STARTCHAR 01-07-94
ENCODING 10110
SWIDTH 960 0
DWIDTH 14 0
BBX 14 14 0 -2
BITMAP
0000
0000
0078
0048
0448
0c48
1448
7788
c018
77f0
1400
0c00
0400
0000
ENDCHAR
STARTCHAR 01-08-01
ENCODING 10273
SWIDTH 960 0
DWIDTH 14 0
BBX 14 14 0 -2
BITMAP
0000
0000
0000
0000
0000
0000
0000
fffc
0000
0000
0000
0000
0000
0000
ENDCHAR
STARTCHAR 01-08-02
ENCODING 10274
SWIDTH 960 0
DWIDTH 14 0
BBX 14 14 0 -2
BITMAP
0100
0100
0100
0100
0100
0100
0100
0100
0100
0100
0100
0100
0100
0100
ENDCHAR
STARTCHAR 01-08-03
ENCODING 10275
SWIDTH 960 0
DWIDTH 14 0
BBX 14 14 0 -2
BITMAP
0000
0000
0000
0000
0000
0000
0000
01fc
0100
0100
0100
0100
0100
0100
ENDCHAR
STARTCHAR 01-08-04
ENCODING 10276
SWIDTH 960 0
DWIDTH 14 0
BBX 14 14 0 -2
BITMAP
0000
0000
0000
0000
0000
0000
0000
ff00
0100
0100
0100
0100
0100
0100
ENDCHAR
STARTCHAR 01-08-05
ENCODING 10277
SWIDTH 960 0
DWIDTH 14 0
BBX 14 14 0 -2
BITMAP
0100
0100
0100
0100
0100
0100
0100
ff00
0000
0000
0000
0000
0000
0000
ENDCHAR
STARTCHAR 01-08-06
ENCODING 10278
SWIDTH 960 0
DWIDTH 14 0
BBX 14 14 0 -2
BITMAP
0100
0100
0100
0100
0100
0100
0100
01fc
0000
0000
0000
0000
0000
0000
ENDCHAR
STARTCHAR 01-08-07
ENCODING 10279
SWIDTH 960 0
DWIDTH 14 0
BBX 14 14 0 -2
BITMAP
0100
0100
0100
0100
0100
0100
0100
01fc
0100
0100
0100
0100
0100
0100
ENDCHAR
STARTCHAR 01-08-08
ENCODING 10280
SWIDTH 960 0
DWIDTH 14 0
BBX 14 14 0 -2
BITMAP
0000
0000
0000
0000
0000
0000
0000
fffc
0100
0100
0100
0100
0100
0100
ENDCHAR
STARTCHAR 01-08-09
ENCODING 10281
SWIDTH 960 0
DWIDTH 14 0
BBX 14 14 0 -2
BITMAP
0100
0100
0100
0100
0100
0100
0100
ff00
0100
0100
0100
0100
0100
0100
ENDCHAR
STARTCHAR 01-08-10
ENCODING 10282
SWIDTH 960 0
DWIDTH 14 0
BBX 14 14 0 -2
BITMAP
0100
0100
0100
0100
0100
0100
0100
fffc
0000
0000
0000
0000
0000
0000
ENDCHAR
STARTCHAR 01-08-11
ENCODING 10283
SWIDTH 960 0
DWIDTH 14 0
BBX 14 14 0 -2
BITMAP
0100
0100
0100
0100
0100
0100
0100
fffc
0100
0100
0100
0100
0100
0100
ENDCHAR
STARTCHAR 01-08-12
ENCODING 10284
SWIDTH 960 0
DWIDTH 14 0
BBX 14 14 0 -2
BITMAP
0000
0000
0000
0000
0000
0000
fffc
fffc
0000
0000
0000
0000
0000
0000
ENDCHAR
STARTCHAR 01-08-13
ENCODING 10285
SWIDTH 960 0
DWIDTH 14 0
BBX 14 14 0 -2
BITMAP
0300
0300
0300
0300
0300
0300
0300
0300
0300
0300
0300
0300
0300
0300
ENDCHAR
STARTCHAR 01-08-14
ENCODING 10286
SWIDTH 960 0
DWIDTH 14 0
BBX 14 14 0 -2
BITMAP
0000
0000
0000
0000
0000
0000
03fc
03fc
0300
0300
0300
0300
0300
0300
ENDCHAR
STARTCHAR 01-08-15
ENCODING 10287
SWIDTH 960 0
DWIDTH 14 0
BBX 14 14 0 -2
BITMAP
0000
0000
0000
0000
0000
0000
ff00
ff00
0300
0300
0300
0300
0300
0300
ENDCHAR
STARTCHAR 01-08-16
ENCODING 10288
SWIDTH 960 0
DWIDTH 14 0
BBX 14 14 0 -2
BITMAP
0300
0300
0300
0300
0300
0300
ff00
ff00
0000
0000
0000
0000
0000
0000
ENDCHAR
STARTCHAR 01-08-17
ENCODING 10289
SWIDTH 960 0
DWIDTH 14 0
BBX 14 14 0 -2
BITMAP
0300
0300
0300
0300
0300
0300
03fc
03fc
0000
0000
0000
0000
0000
0000
ENDCHAR
STARTCHAR 01-08-18
ENCODING 10290
SWIDTH 960 0
DWIDTH 14 0
BBX 14 14 0 -2
BITMAP
0300
0300
0300
0300
0300
0300
03fc
03fc
0300
0300
0300
0300
0300
0300
ENDCHAR
STARTCHAR 01-08-19
ENCODING 10291
SWIDTH 960 0
DWIDTH 14 0
BBX 14 14 0 -2
BITMAP
0000
0000
0000
0000
0000
0000
fffc
fffc
0300
0300
0300
0300
0300
0300
ENDCHAR
STARTCHAR 01-08-20
ENCODING 10292
SWIDTH 960 0
DWIDTH 14 0
BBX 14 14 0 -2
BITMAP
0300
0300
0300
0300
0300
0300
ff00
ff00
0300
0300
0300
0300
0300
0300
ENDCHAR
STARTCHAR 01-08-21
ENCODING 10293
SWIDTH 960 0
DWIDTH 14 0
BBX 14 14 0 -2
BITMAP
0300
0300
0300
0300
0300
0300
fffc
fffc
0000
0000
0000
0000
0000
0000
ENDCHAR
STARTCHAR 01-08-22
ENCODING 10294
SWIDTH 960 0
DWIDTH 14 0
BBX 14 14 0 -2
BITMAP
0300
0300
0300
0300
0300
0300
fffc
fffc
0300
0300
0300
0300
0300
0300
ENDCHAR
STARTCHAR 01-08-23
ENCODING 10295
SWIDTH 960 0
DWIDTH 14 0
BBX 14 14 0 -2
BITMAP
0300
0300
0300
0300
0300
0300
0300
03fc
0300
0300
0300
0300
0300
0300
ENDCHAR
STARTCHAR 01-08-24
ENCODING 10296
SWIDTH 960 0
DWIDTH 14 0
BBX 14 14 0 -2
BITMAP
0000
0000
0000
0000
0000
0000
fffc
fffc
0100
0100
0100
0100
0100
0100
ENDCHAR
STARTCHAR 01-08-25
ENCODING 10297
SWIDTH 960 0
DWIDTH 14 0
BBX 14 14 0 -2
BITMAP
0300
0300
0300
0300
0300
0300
0300
ff00
0300
0300
0300
0300
0300
0300
ENDCHAR
STARTCHAR 01-08-26
ENCODING 10298
SWIDTH 960 0
DWIDTH 14 0
BBX 14 14 0 -2
BITMAP
0100
0100
0100
0100
0100
0100
fffc
fffc
0000
0000
0000
0000
0000
0000
ENDCHAR
STARTCHAR 01-08-27
ENCODING 10299
SWIDTH 960 0
DWIDTH 14 0
BBX 14 14 0 -2
BITMAP
0100
0100
0100
0100
0100
0100
fffc
fffc
0100
0100
0100
0100
0100
0100
ENDCHAR
STARTCHAR 01-08-28
ENCODING 10300
SWIDTH 960 0
DWIDTH 14 0
BBX 14 14 0 -2
BITMAP
0100
0100
0100
0100
0100
0100
01fc
01fc
0100
0100
0100
0100
0100
0100
ENDCHAR
STARTCHAR 01-08-29
ENCODING 10301
SWIDTH 960 0
DWIDTH 14 0
BBX 14 14 0 -2
BITMAP
0000
0000
0000
0000
0000
0000
0000
fffc
0300
0300
0300
0300
0300
0300
ENDCHAR
STARTCHAR 01-08-30
ENCODING 10302
SWIDTH 960 0
DWIDTH 14 0
BBX 14 14 0 -2
BITMAP
0100
0100
0100
0100
0100
0100
ff00
ff00
0100
0100
0100
0100
0100
0100
ENDCHAR
STARTCHAR 01-08-31
ENCODING 10303
SWIDTH 960 0
DWIDTH 14 0
BBX 14 14 0 -2
BITMAP
0300
0300
0300
0300
0300
0300
0300
fffc
0000
0000
0000
0000
0000
0000
ENDCHAR
STARTCHAR 01-08-32
ENCODING 10304
SWIDTH 960 0
DWIDTH 14 0
BBX 14 14 0 -2
BITMAP
0300
0300
0300
0300
0300
0300
0300
fffc
0300
0300
0300
0300
0300
0300
ENDCHAR
STARTCHAR 01-08-33
ENCODING 10305
SWIDTH 960 0
DWIDTH 14 0
BBX 14 14 0 -2
BITMAP
0780
1860
2c70
76e8
77e8
9464
8464
8864
9064
5e68
7df8
2010
1860
0780
ENDCHAR
STARTCHAR 01-08-34
ENCODING 10306
SWIDTH 960 0
DWIDTH 14 0
BBX 14 14 0 -2
BITMAP
0780
1860
2cd0
7728
77b8
95b4
8424
8844
9084
5ef8
7de8
2010
1860
0780
ENDCHAR
STARTCHAR 01-08-35
ENCODING 10307
SWIDTH 960 0
DWIDTH 14 0
BBX 14 14 0 -2
BITMAP
0780
1860
2cd0
77a8
77b8
9434
84e4
8834
91b4
5fb8
7ce8
2010
1860
0780
ENDCHAR
STARTCHAR 01-08-36
ENCODING 10308
SWIDTH 960 0
DWIDTH 14 0
BBX 14 14 0 -2
BITMAP
0780
1860
2c30
7668
76e8
9564
8664
8bf4
9064
5e68
7ce8
2010
1860
0780
ENDCHAR
STARTCHAR 01-08-37
ENCODING 10309
SWIDTH 960 0
DWIDTH 14 0
BBX 14 14 0 -2
BITMAP
0780
1860
2df0
77e8
7708
95e4
8434
89b4
91b4
5f38
7ce8
2010
1860
0780
ENDCHAR
STARTCHAR 01-08-38
ENCODING 10310
SWIDTH 960 0
DWIDTH 14 0
BBX 14 14 0 -2
BITMAP
0780
1860
2cd0
77b8
77b8
9584
85e4
89b4
91b4
5fb8
7ce8
2010
1860
0780
ENDCHAR
STARTCHAR 01-08-39
ENCODING 10311
SWIDTH 960 0
DWIDTH 14 0
BBX 14 14 0 -2
BITMAP
0780
1860
2df0
77e8
7628
9444
8444
88c4
90c4
5ec8
7cc8
2010
1860
0780
ENDCHAR
STARTCHAR 01-08-40
ENCODING 10312
SWIDTH 960 0
DWIDTH 14 0
BBX 14 14 0 -2
BITMAP
0780
1860
2cd0
77b8
77b8
95b4
84e4
89b4
91b4
5fb8
7cc8
2010
1860
0780
ENDCHAR
STARTCHAR 01-08-41
ENCODING 10313
SWIDTH 960 0
DWIDTH 14 0
BBX 14 14 0 -2
BITMAP
0780
1860
2cd0
77a8
77b8
95b4
84f4
8834
91b4
5fb8
7ce8
2010
1860
0780
ENDCHAR
STARTCHAR 01-08-42
ENCODING 10314
SWIDTH 960 0
DWIDTH 14 0
BBX 14 14 0 -2
BITMAP
0780
1860
2cd0
7768
7768
8564
9964
8564
b764
7768
5cc8
2010
1860
0780
ENDCHAR
STARTCHAR 01-08-43
ENCODING 10315
SWIDTH 960 0
DWIDTH 14 0
BBX 14 14 0 -2
BITMAP
0780
1860
2c70
76e8
77e8
8464
9864
8464
b664
7668
5df8
2010
1860
0780
ENDCHAR
STARTCHAR 01-08-44
ENCODING 10316
SWIDTH 960 0
DWIDTH 14 0
BBX 14 14 0 -2
BITMAP
0780
1860
2cd0
7728
77b8
85b4
9824
8444
b684
76f8
5de8
2010
1860
0780
ENDCHAR
STARTCHAR 01-08-45
ENCODING 10317
SWIDTH 960 0
DWIDTH 14 0
BBX 14 14 0 -2
BITMAP
0780
1860
2cd0
77a8
77b8
8434
98e4
8434
b7b4
77b8
5ce8
2010
1860
0780
ENDCHAR
STARTCHAR 01-08-46
ENCODING 10318
SWIDTH 960 0
DWIDTH 14 0
BBX 14 14 0 -2
BITMAP
0780
1860
2c30
7668
76e8
8564
9964
85f4
b664
7668
5ce8
2010
1860
0780
ENDCHAR
STARTCHAR 01-08-47
ENCODING 10319
SWIDTH 960 0
DWIDTH 14 0
BBX 14 14 0 -2
BITMAP
0780
1860
2df0
77e8
7708
85e4
9834
85b4
b7b4
7738
5ce8
2010
1860
0780
ENDCHAR
STARTCHAR 01-08-48
ENCODING 10320
SWIDTH 960 0
DWIDTH 14 0
BBX 14 14 0 -2
BITMAP
0780
1860
2cd0
77b8
77b8
8584
99e4
85b4
b7b4
77b8
5ce8
2010
1860
0780
ENDCHAR
STARTCHAR 01-08-49
ENCODING 10321
SWIDTH 960 0
DWIDTH 14 0
BBX 14 14 0 -2
BITMAP
0780
1860
2df0
77e8
7628
8444
9844
84c4
b6c4
76c8
5cc8
2010
1860
0780
ENDCHAR
STARTCHAR 01-08-50
ENCODING 10322
SWIDTH 960 0
DWIDTH 14 0
BBX 14 14 0 -2
BITMAP
0780
1860
2cd0
77b8
77b8
85b4
98e4
85b4
b7b4
77b8
5cc8
2010
1860
0780
ENDCHAR
STARTCHAR 01-08-51
ENCODING 10323
SWIDTH 960 0
DWIDTH 14 0
BBX 14 14 0 -2
BITMAP
0780
1860
2cd0
77a8
77b8
85b4
98f4
8434
b7b4
77b8
5ce8
2010
1860
0780
ENDCHAR
STARTCHAR 01-08-52
ENCODING 10324
SWIDTH 960 0
DWIDTH 14 0
BBX 14 14 0 -2
BITMAP
0780
1860
24d0
4d68
5d68
9d64
ad64
cd64
ff64
4d68
5cc8
2010
1860
0780
ENDCHAR
STARTCHAR 01-08-53
ENCODING 10325
SWIDTH 960 0
DWIDTH 14 0
BBX 14 14 0 -2
BITMAP
0780
1860
2470
4ce8
5de8
9c64
ac64
cc64
fe64
4c68
5df8
2010
1860
0780
ENDCHAR
STARTCHAR 01-08-54
ENCODING 10326
SWIDTH 960 0
DWIDTH 14 0
BBX 14 14 0 -2
BITMAP
0780
1860
24d0
4d28
5db8
9db4
ac24
cc44
fe84
4cf8
5fe8
2010
1860
0780
ENDCHAR
STARTCHAR 01-08-55
ENCODING 10327
SWIDTH 960 0
DWIDTH 14 0
BBX 14 14 0 -2
BITMAP
0780
1860
24d0
4da8
5db8
9c34
ace4
cc34
ffb4
4db8
5ce8
2010
1860
0780
ENDCHAR
STARTCHAR 01-08-56
ENCODING 10328
SWIDTH 960 0
DWIDTH 14 0
BBX 14 14 0 -2
BITMAP
0780
1860
2430
4c68
5ce8
9d64
ae64
cff4
fe64
4c68
5ce8
2010
1860
0780
ENDCHAR
STARTCHAR 01-08-57
ENCODING 10329
SWIDTH 960 0
DWIDTH 14 0
BBX 14 14 0 -2
BITMAP
0780
1860
25f0
4de8
5d08
9de4
ac34
cdb4
ffb4
4d38
5ce8
2010
1860
0780
ENDCHAR
STARTCHAR 01-08-58
ENCODING 10330
SWIDTH 960 0
DWIDTH 14 0
BBX 14 14 0 -2
BITMAP
0780
1860
24d0
4df8
5db8
9d84
ade4
cdb4
ffb4
4db8
5ce8
2010
1860
0780
ENDCHAR
STARTCHAR 01-08-59
ENCODING 10331
SWIDTH 960 0
DWIDTH 14 0
BBX 14 14 0 -2
BITMAP
0780
1860
25f0
4de8
5e28
9c44
ac44
ccc4
fec4
4cc8
5cc8
2010
1860
0780
ENDCHAR
STARTCHAR 01-08-60
ENCODING 10332
SWIDTH 960 0
DWIDTH 14 0
BBX 14 14 0 -2
BITMAP
0780
1860
24d0
4db8
5db8
9db4
ace4
cdb4
ffb4
4db8
5cc8
2010
1860
0780
ENDCHAR
STARTCHAR 01-08-61
ENCODING 10333
SWIDTH 960 0
DWIDTH 14 0
BBX 14 14 0 -2
BITMAP
0780
1860
24d0
4da8
5db8
9db4
acf4
cc34
ffb4
4db8
5cc8
2010
1860
0780
ENDCHAR
STARTCHAR 01-08-62
ENCODING 10334
SWIDTH 960 0
DWIDTH 14 0
BBX 14 14 0 -2
BITMAP
0780
1860
3ed0
5d68
5168
9d64
8764
b764
b764
6768
5cc8
2010
1860
0780
ENDCHAR
STARTCHAR 01-08-71
ENCODING 10343
SWIDTH 960 0
DWIDTH 14 0
BBX 14 14 0 -2
BITMAP
0000
0780
1e60
3e10
3e10
7e08
7e08
7e08
7e08
3e10
3e10
1e60
0780
0000
ENDCHAR
STARTCHAR 01-08-72
ENCODING 10344
SWIDTH 960 0
DWIDTH 14 0
BBX 14 14 0 -2
BITMAP
0000
0780
19e0
21f0
21f0
41f8
41f8
41f8
41f8
21f0
21f0
1de0
0780
0000
ENDCHAR
STARTCHAR 01-08-73
ENCODING 10345
SWIDTH 960 0
DWIDTH 14 0
BBX 14 14 0 -2
BITMAP
0000
0780
1860
2010
2010
4008
4008
7ff8
7ff8
3ff0
3ff0
1fe0
0780
0000
ENDCHAR
STARTCHAR 01-08-74
ENCODING 10346
SWIDTH 960 0
DWIDTH 14 0
BBX 14 14 0 -2
BITMAP
0000
0780
1fe0
3ff0
3ff0
7ff8
7ff8
4008
4008
2010
2010
1860
0780
0000
ENDCHAR
STARTCHAR 01-08-75
ENCODING 10347
SWIDTH 960 0
DWIDTH 14 0
BBX 14 14 0 -2
BITMAP
0000
0840
1ce0
1ce0
1ce0
1ce0
1ce0
0840
0840
0840
0000
0840
1ce0
0840
ENDCHAR
STARTCHAR 01-08-76
ENCODING 10348
SWIDTH 960 0
DWIDTH 14 0
BBX 14 14 0 -2
BITMAP
0000
0c30
1658
2288
32c8
32c8
0618
0410
0820
0820
0820
0000
0c30
0c30
ENDCHAR
STARTCHAR 01-08-77
ENCODING 10349
SWIDTH 960 0
DWIDTH 14 0
BBX 14 14 0 -2
BITMAP
0000
0c20
1670
2270
3270
3270
0670
0420
0820
0820
0800
0020
0c70
0c20
ENDCHAR
STARTCHAR 01-08-78
ENCODING 10350
SWIDTH 960 0
DWIDTH 14 0
BBX 14 14 0 -2
BITMAP
0000
0830
1c58
1c88
1cc8
1cc8
1c18
0810
0820
0820
0020
0800
1c30
0830
ENDCHAR
STARTCHAR 01-08-79
ENCODING 10351
SWIDTH 960 0
DWIDTH 14 0
BBX 14 14 0 -2
BITMAP
0440
0280
0100
0380
0380
04c0
04c0
0860
0fe0
1030
1030
7878
0000
0000
ENDCHAR
STARTCHAR 01-08-80
ENCODING 10352
SWIDTH 960 0
DWIDTH 14 0
BBX 14 14 0 -2
BITMAP
0880
0500
0200
0000
0780
0c40
0c60
03e0
0c60
1860
18e0
0f30
0000
0000
ENDCHAR
STARTCHAR 01-08-81
ENCODING 10353
SWIDTH 960 0
DWIDTH 14 0
BBX 14 14 0 -2
BITMAP
0000
0440
0280
0100
0000
0f00
0300
0300
0300
0300
0300
0fc0
0000
0000
ENDCHAR
STARTCHAR 01-08-82
ENCODING 10354
SWIDTH 960 0
DWIDTH 14 0
BBX 14 14 0 -2
BITMAP
0180
3938
1a30
1c70
1c70
16b0
16b0
1730
1330
1230
1030
3878
0000
0000
ENDCHAR
STARTCHAR 01-08-83
ENCODING 10355
SWIDTH 960 0
DWIDTH 14 0
BBX 14 14 0 -2
BITMAP
0300
0200
0400
0000
76e0
3b30
3330
3330
3330
3330
3330
7bb8
0000
0000
ENDCHAR
STARTCHAR 01-08-84
ENCODING 10356
SWIDTH 960 0
DWIDTH 14 0
BBX 14 14 0 -2
BITMAP
0600
3a70
1920
1c20
1620
1620
1320
11a0
11a0
10e0
1060
3860
0000
0000
ENDCHAR
STARTCHAR 01-08-85
ENCODING 10357
SWIDTH 960 0
DWIDTH 14 0
BBX 14 14 0 -2
BITMAP
0300
0100
0080
0000
1dc0
0e20
0c30
0c30
0c30
0c30
0c30
1e78
0000
0000
ENDCHAR
STARTCHAR 01-08-86
ENCODING 10358
SWIDTH 960 0
DWIDTH 14 0
BBX 14 14 0 -2
BITMAP
0440
0280
0100
0380
0c60
1830
3018
3018
3018
1830
0c60
0380
0000
0000
ENDCHAR
STARTCHAR 01-08-87
ENCODING 10359
SWIDTH 960 0
DWIDTH 14 0
BBX 14 14 0 -2
BITMAP
0000
0440
0280
0100
0380
0c60
1830
1830
1830
1830
0c60
0380
0000
0000
ENDCHAR
STARTCHAR 01-08-88
ENCODING 10360
SWIDTH 960 0
DWIDTH 14 0
BBX 14 14 0 -2
BITMAP
0000
0440
0280
0100
1cf0
0c30
0c30
0c30
0c30
0c30
0c70
0798
0000
0000
ENDCHAR
STARTCHAR 01-08-89
ENCODING 10361
SWIDTH 960 0
DWIDTH 14 0
BBX 14 14 0 -2
BITMAP
0fe0
0000
0c60
0c60
0000
1cf0
0c30
0c30
0c30
0c30
0c70
0798
0000
0000
ENDCHAR
STARTCHAR 01-08-90
ENCODING 10362
SWIDTH 960 0
DWIDTH 14 0
BBX 14 14 0 -2
BITMAP
0180
0100
0e60
0c60
0000
1cf0
0c30
0c30
0c30
0c30
0c70
0798
0000
0000
ENDCHAR
STARTCHAR 01-08-91
ENCODING 10363
SWIDTH 960 0
DWIDTH 14 0
BBX 14 14 0 -2
BITMAP
0440
0280
0d60
0c60
0000
1cf0
0c30
0c30
0c30
0c30
0c70
0798
0000
0000
ENDCHAR
STARTCHAR 01-08-92
ENCODING 10364
SWIDTH 960 0
DWIDTH 14 0
BBX 14 14 0 -2
BITMAP
0300
0100
0ce0
0c60
0000
1cf0
0c30
0c30
0c30
0c30
0c70
0798
0000
0000
ENDCHAR
STARTCHAR 01-09-01
ENCODING 10529
SWIDTH 960 0
DWIDTH 14 0
BBX 14 14 0 -2
BITMAP
0000
03c0
0c30
1810
3000
7fe0
2000
7fc0
3000
1810
0c30
03c0
0000
0000
ENDCHAR
STARTCHAR 01-09-02
ENCODING 10530
SWIDTH 960 0
DWIDTH 14 0
BBX 14 14 0 -2
BITMAP
0000
0000
0000
0000
0000
0000
0000
0000
0000
0000
0000
0000
0000
aaa8
ENDCHAR
STARTCHAR 01-09-03
ENCODING 10531
SWIDTH 960 0
DWIDTH 14 0
BBX 14 14 0 -2
BITMAP
0100
0380
0100
0000
0100
0100
0100
0380
0380
0380
0380
0380
0380
0100
ENDCHAR
STARTCHAR 01-09-04
ENCODING 10532
SWIDTH 960 0
DWIDTH 14 0
BBX 14 14 0 -2
BITMAP
0000
4008
2310
1ce0
1020
1020
2010
2010
1020
1020
1ce0
2310
4008
0000
ENDCHAR
STARTCHAR 01-09-05
ENCODING 10533
SWIDTH 960 0
DWIDTH 14 0
BBX 14 14 0 -2
BITMAP
0000
0100
0100
0100
0100
0100
0000
0100
0100
0100
0100
0100
0000
0000
ENDCHAR
STARTCHAR 01-09-06
ENCODING 10534
SWIDTH 960 0
DWIDTH 14 0
BBX 14 14 0 -2
BITMAP
0780
1860
2010
47a8
4c68
9824
9824
9804
9824
4c48
4788
2010
1860
0780
ENDCHAR
STARTCHAR 01-09-07
ENCODING 10535
SWIDTH 960 0
DWIDTH 14 0
BBX 14 14 0 -2
BITMAP
0700
0480
00c0
07c0
08c0
08c0
07c0
0000
0000
0000
0000
0000
0000
0000
ENDCHAR
STARTCHAR 01-09-08
ENCODING 10536
SWIDTH 960 0
DWIDTH 14 0
BBX 14 14 0 -2
BITMAP
0000
0000
0000
0000
0000
0000
0000
0048
0090
01b0
0090
0048
0000
0000
ENDCHAR
STARTCHAR 01-09-09
ENCODING 10537
SWIDTH 960 0
DWIDTH 14 0
BBX 14 14 0 -2
BITMAP
0000
0000
0000
0000
0000
0000
0fe0
0000
0000
0000
0000
0000
0000
aaa8
ENDCHAR
STARTCHAR 01-09-10
ENCODING 10538
SWIDTH 960 0
DWIDTH 14 0
BBX 14 14 0 -2
BITMAP
0780
1860
2010
5f88
4c48
8c44
8f84
8c84
8c84
4c48
5e68
2010
1860
0780
ENDCHAR
STARTCHAR 01-09-11
ENCODING 10539
SWIDTH 960 0
DWIDTH 14 0
BBX 14 14 0 -2
BITMAP
3ff0
0000
0000
0000
0000
0000
0000
0000
0000
0000
0000
0000
0000
0000
ENDCHAR
STARTCHAR 01-09-12
ENCODING 10540
SWIDTH 960 0
DWIDTH 14 0
BBX 14 14 0 -2
BITMAP
0780
08c0
00c0
0780
0c00
0c00
0fc0
0000
0000
0000
0000
0000
0000
0000
ENDCHAR
STARTCHAR 01-09-13
ENCODING 10541
SWIDTH 960 0
DWIDTH 14 0
BBX 14 14 0 -2
BITMAP
0780
08c0
00c0
0780
00c0
08c0
0780
0000
0000
0000
0000
0000
0000
0000
ENDCHAR
STARTCHAR 01-09-14
ENCODING 10542
SWIDTH 960 0
DWIDTH 14 0
BBX 14 14 0 -2
BITMAP
0000
0000
0000
0000
0000
0000
0300
0300
0000
0000
0000
0000
0000
0000
ENDCHAR
STARTCHAR 01-09-15
ENCODING 10543
SWIDTH 960 0
DWIDTH 14 0
BBX 14 14 0 -2
BITMAP
0000
0000
0000
0000
0000
0000
0000
0000
0000
0100
0180
0040
0240
0180
ENDCHAR
STARTCHAR 01-09-16
ENCODING 10544
SWIDTH 960 0
DWIDTH 14 0
BBX 14 14 0 -2
BITMAP
0100
0300
0f00
0300
0300
0300
0fc0
0000
0000
0000
0000
0000
0000
0000
ENDCHAR
STARTCHAR 01-09-17
ENCODING 10545
SWIDTH 960 0
DWIDTH 14 0
BBX 14 14 0 -2
BITMAP
0700
0d80
18c0
18c0
18c0
0880
0700
0000
0000
0000
0000
0000
0000
0000
ENDCHAR
STARTCHAR 01-09-18
ENCODING 10546
SWIDTH 960 0
DWIDTH 14 0
BBX 14 14 0 -2
BITMAP
0000
0000
0000
0000
0000
0000
0000
0120
0090
00d8
0090
0120
0000
0000
ENDCHAR
STARTCHAR 01-09-19
ENCODING 10547
SWIDTH 960 0
DWIDTH 14 0
BBX 14 14 0 -2
BITMAP
0800
1808
3810
0820
0840
0880
0910
3e30
0450
0890
1110
21f8
4010
0010
ENDCHAR
STARTCHAR 01-09-20
ENCODING 10548
SWIDTH 960 0
DWIDTH 14 0
BBX 14 14 0 -2
BITMAP
0800
1808
3810
0820
0840
0880
09f0
3e88
0588
0830
1040
2080
4100
01f8
ENDCHAR
STARTCHAR 01-09-21
ENCODING 10549
SWIDTH 960 0
DWIDTH 14 0
BBX 14 14 0 -2
BITMAP
1c00
2208
0210
0c20
0240
2280
2510
1a30
0450
0890
1110
21f8
4010
0010
ENDCHAR
STARTCHAR 01-09-22
ENCODING 10550
SWIDTH 960 0
DWIDTH 14 0
BBX 14 14 0 -2
BITMAP
0600
0600
0000
0200
0200
0200
0100
0180
18c0
18c0
10c0
0980
0700
0000
ENDCHAR
STARTCHAR 01-09-23
ENCODING 10551
SWIDTH 960 0
DWIDTH 14 0
BBX 14 14 0 -2
BITMAP
0180
0080
0040
0380
0380
04c0
0440
0860
0fe0
1030
1030
7878
0000
0000
ENDCHAR
STARTCHAR 01-09-24
ENCODING 10552
SWIDTH 960 0
DWIDTH 14 0
BBX 14 14 0 -2
BITMAP
0300
0200
0400
0380
0380
04c0
04c0
0860
0fe0
1030
1030
7878
0000
0000
ENDCHAR
STARTCHAR 01-09-25
ENCODING 10553
SWIDTH 960 0
DWIDTH 14 0
BBX 14 14 0 -2
BITMAP
0100
0280
0440
0380
0380
04c0
04c0
0860
0fe0
1030
1030
7878
0000
0000
ENDCHAR
STARTCHAR 01-09-26
ENCODING 10554
SWIDTH 960 0
DWIDTH 14 0
BBX 14 14 0 -2
BITMAP
0320
04c0
0000
0380
0380
04c0
04c0
0860
0fe0
1030
1030
7878
0000
0000
ENDCHAR
STARTCHAR 01-09-27
ENCODING 10555
SWIDTH 960 0
DWIDTH 14 0
BBX 14 14 0 -2
BITMAP
0cc0
0cc0
0000
0380
0380
04c0
04c0
0860
0fe0
1030
1030
7878
0000
0000
ENDCHAR
STARTCHAR 01-09-28
ENCODING 10556
SWIDTH 960 0
DWIDTH 14 0
BBX 14 14 0 -2
BITMAP
0180
0240
0240
0380
0380
04c0
04c0
0860
0fe0
1030
1030
7878
0000
0000
ENDCHAR
STARTCHAR 01-09-29
ENCODING 10557
SWIDTH 960 0
DWIDTH 14 0
BBX 14 14 0 -2
BITMAP
0000
07f8
0388
0384
0580
0990
09f0
1190
3f80
2184
4188
e3f8
0000
0000
ENDCHAR
STARTCHAR 01-09-30
ENCODING 10558
SWIDTH 960 0
DWIDTH 14 0
BBX 14 14 0 -2
BITMAP
0000
03d0
0c30
1810
3010
3000
3000
3000
3000
1810
0c30
03c0
0180
0700
ENDCHAR
STARTCHAR 01-09-31
ENCODING 10559
SWIDTH 960 0
DWIDTH 14 0
BBX 14 14 0 -2
BITMAP
0300
0100
0080
3fe0
0c20
0c10
0c40
0fc0
0c40
0c08
0c10
3ff0
0000
0000
ENDCHAR
STARTCHAR 01-09-32
ENCODING 10560
SWIDTH 960 0
DWIDTH 14 0
BBX 14 14 0 -2
BITMAP
0180
0100
0200
3fe0
0c20
0c10
0c40
0fc0
0c40
0c08
0c10
3ff0
0000
0000
ENDCHAR
STARTCHAR 01-09-33
ENCODING 10561
SWIDTH 960 0
DWIDTH 14 0
BBX 14 14 0 -2
BITMAP
0100
0280
0440
3fe0
0c20
0c10
0c40
0fc0
0c40
0c08
0c10
3ff0
0000
0000
ENDCHAR
STARTCHAR 01-09-34
ENCODING 10562
SWIDTH 960 0
DWIDTH 14 0
BBX 14 14 0 -2
BITMAP
0cc0
0cc0
0000
3fe0
0c20
0c10
0c40
0fc0
0c40
0c08
0c10
3ff0
0000
0000
ENDCHAR
STARTCHAR 01-09-35
ENCODING 10563
SWIDTH 960 0
DWIDTH 14 0
BBX 14 14 0 -2
BITMAP
0300
0100
0080
0fc0
0300
0300
0300
0300
0300
0300
0300
0fc0
0000
0000
ENDCHAR
STARTCHAR 01-09-36
ENCODING 10564
SWIDTH 960 0
DWIDTH 14 0
BBX 14 14 0 -2
BITMAP
0180
0100
0200
0fc0
0300
0300
0300
0300
0300
0300
0300
0fc0
0000
0000
ENDCHAR
STARTCHAR 01-09-37
ENCODING 10565
SWIDTH 960 0
DWIDTH 14 0
BBX 14 14 0 -2
BITMAP
0200
0500
0880
0fc0
0300
0300
0300
0300
0300
0300
0300
0fc0
0000
0000
ENDCHAR
STARTCHAR 01-09-38
ENCODING 10566
SWIDTH 960 0
DWIDTH 14 0
BBX 14 14 0 -2
BITMAP
0cc0
0cc0
0000
0fc0
0300
0300
0300
0300
0300
0300
0300
0fc0
0000
0000
ENDCHAR
STARTCHAR 01-09-39
ENCODING 10567
SWIDTH 960 0
DWIDTH 14 0
BBX 14 14 0 -2
BITMAP
0000
3f80
0c60
0c30
0c18
0c18
7f98
0c18
0c18
0c30
0c60
3f80
0000
0000
ENDCHAR
STARTCHAR 01-09-40
ENCODING 10568
SWIDTH 960 0
DWIDTH 14 0
BBX 14 14 0 -2
BITMAP
0640
0980
3870
1c20
1620
1620
1320
11a0
11a0
10e0
1060
3860
0000
0000
ENDCHAR
STARTCHAR 01-09-41
ENCODING 10569
SWIDTH 960 0
DWIDTH 14 0
BBX 14 14 0 -2
BITMAP
0300
0100
0080
0380
0c60
1830
3018
3018
3018
1830
0c60
0380
0000
0000
ENDCHAR
STARTCHAR 01-09-42
ENCODING 10570
SWIDTH 960 0
DWIDTH 14 0
BBX 14 14 0 -2
BITMAP
0180
0100
0200
0380
0c60
1830
3018
3018
3018
1830
0c60
0380
0000
0000
ENDCHAR
STARTCHAR 01-09-43
ENCODING 10571
SWIDTH 960 0
DWIDTH 14 0
BBX 14 14 0 -2
BITMAP
0100
0280
0440
0380
0c60
1830
3018
3018
3018
1830
0c60
0380
0000
0000
ENDCHAR
STARTCHAR 01-09-44
ENCODING 10572
SWIDTH 960 0
DWIDTH 14 0
BBX 14 14 0 -2
BITMAP
0640
0980
0000
0380
0c60
1830
3018
3018
3018
1830
0c60
0380
0000
0000
ENDCHAR
STARTCHAR 01-09-45
ENCODING 10573
SWIDTH 960 0
DWIDTH 14 0
BBX 14 14 0 -2
BITMAP
0cc0
0cc0
0000
0380
0c60
1830
3018
3018
3018
1830
0c60
0380
0000
0000
ENDCHAR
STARTCHAR 01-09-46
ENCODING 10574
SWIDTH 960 0
DWIDTH 14 0
BBX 14 14 0 -2
BITMAP
0000
0388
0c70
1830
3058
3098
3118
3218
3418
1830
1c60
2380
0000
0000
ENDCHAR
STARTCHAR 01-09-47
ENCODING 10575
SWIDTH 960 0
DWIDTH 14 0
BBX 14 14 0 -2
BITMAP
0300
0100
0080
3c38
1810
1810
1810
1810
1810
1810
0c20
03c0
0000
0000
ENDCHAR
STARTCHAR 01-09-48
ENCODING 10576
SWIDTH 960 0
DWIDTH 14 0
BBX 14 14 0 -2
BITMAP
0180
0100
0200
3c38
1810
1810
1810
1810
1810
1810
0c20
03c0
0000
0000
ENDCHAR
STARTCHAR 01-09-49
ENCODING 10577
SWIDTH 960 0
DWIDTH 14 0
BBX 14 14 0 -2
BITMAP
0100
0280
0440
3c38
1810
1810
1810
1810
1810
1810
0c20
03c0
0000
0000
ENDCHAR
STARTCHAR 01-09-50
ENCODING 10578
SWIDTH 960 0
DWIDTH 14 0
BBX 14 14 0 -2
BITMAP
0cc0
0cc0
0000
3c38
1810
1810
1810
1810
1810
1810
0c20
03c0
0000
0000
ENDCHAR
STARTCHAR 01-09-51
ENCODING 10579
SWIDTH 960 0
DWIDTH 14 0
BBX 14 14 0 -2
BITMAP
0180
0100
3e78
1820
0c40
0680
0300
0300
0300
0300
0300
0fc0
0000
0000
ENDCHAR
STARTCHAR 01-09-52
ENCODING 10580
SWIDTH 960 0
DWIDTH 14 0
BBX 14 14 0 -2
BITMAP
0000
3f00
0c00
0f80
0c60
0c30
0c30
0c60
0f80
0c00
0c00
3f00
0000
0000
ENDCHAR
STARTCHAR 01-09-53
ENCODING 10581
SWIDTH 960 0
DWIDTH 14 0
BBX 14 14 0 -2
BITMAP
0000
0380
0440
0c60
0c40
0d80
0c60
0c60
0c60
0c60
0d40
1c80
0000
0000
ENDCHAR
STARTCHAR 01-09-54
ENCODING 10582
SWIDTH 960 0
DWIDTH 14 0
BBX 14 14 0 -2
BITMAP
0300
0100
0080
0000
0780
0c40
0c60
03e0
0c60
1860
18e0
0f30
0000
0000
ENDCHAR
STARTCHAR 01-09-55
ENCODING 10583
SWIDTH 960 0
DWIDTH 14 0
BBX 14 14 0 -2
BITMAP
0180
0100
0200
0000
0780
0c40
0c60
03e0
0c60
1860
18e0
0f30
0000
0000
ENDCHAR
STARTCHAR 01-09-56
ENCODING 10584
SWIDTH 960 0
DWIDTH 14 0
BBX 14 14 0 -2
BITMAP
0100
0280
0440
0000
0780
0c40
0c60
03e0
0c60
1860
18e0
0f30
0000
0000
ENDCHAR
STARTCHAR 01-09-57
ENCODING 10585
SWIDTH 960 0
DWIDTH 14 0
BBX 14 14 0 -2
BITMAP
0000
0640
0980
0000
0780
0c40
0c60
03e0
0c60
1860
18e0
0f30
0000
0000
ENDCHAR
STARTCHAR 01-09-58
ENCODING 10586
SWIDTH 960 0
DWIDTH 14 0
BBX 14 14 0 -2
BITMAP
0000
0cc0
0cc0
0000
0780
0c40
0c60
03e0
0c60
1860
18e0
0f30
0000
0000
ENDCHAR
STARTCHAR 01-09-59
ENCODING 10587
SWIDTH 960 0
DWIDTH 14 0
BBX 14 14 0 -2
BITMAP
0300
0480
0480
0300
0780
0c40
0c60
03e0
0c60
1860
18e0
0f30
0000
0000
ENDCHAR
STARTCHAR 01-09-60
ENCODING 10588
SWIDTH 960 0
DWIDTH 14 0
BBX 14 14 0 -2
BITMAP
0000
0000
0000
0000
1c60
3390
2318
1ff8
2300
6308
6788
3b70
0000
0000
ENDCHAR
STARTCHAR 01-09-61
ENCODING 10589
SWIDTH 960 0
DWIDTH 14 0
BBX 14 14 0 -2
BITMAP
0000
0000
0000
0000
0380
0c60
1820
1800
1800
1820
0c60
0380
0300
0e00
ENDCHAR
STARTCHAR 01-09-62
ENCODING 10590
SWIDTH 960 0
DWIDTH 14 0
BBX 14 14 0 -2
BITMAP
0300
0100
0080
0000
07c0
0820
1830
1ff0
1800
1810
0c30
03c0
0000
0000
ENDCHAR
STARTCHAR 01-09-63
ENCODING 10591
SWIDTH 960 0
DWIDTH 14 0
BBX 14 14 0 -2
BITMAP
0180
0100
0200
0000
07c0
0820
1830
1ff0
1800
1810
0c30
03c0
0000
0000
ENDCHAR
STARTCHAR 01-09-64
ENCODING 10592
SWIDTH 960 0
DWIDTH 14 0
BBX 14 14 0 -2
BITMAP
0100
0280
0440
0000
07c0
0820
1830
1ff0
1800
1810
0c30
03c0
0000
0000
ENDCHAR
STARTCHAR 01-09-65
ENCODING 10593
SWIDTH 960 0
DWIDTH 14 0
BBX 14 14 0 -2
BITMAP
0000
0cc0
0cc0
0000
07c0
0820
1830
1ff0
1800
1810
0c30
03c0
0000
0000
ENDCHAR
STARTCHAR 01-09-66
ENCODING 10594
SWIDTH 960 0
DWIDTH 14 0
BBX 14 14 0 -2
BITMAP
0000
0300
0100
0080
0000
0f00
0300
0300
0300
0300
0300
0fc0
0000
0000
ENDCHAR
STARTCHAR 01-09-67
ENCODING 10595
SWIDTH 960 0
DWIDTH 14 0
BBX 14 14 0 -2
BITMAP
0000
0180
0100
0200
0000
0f00
0300
0300
0300
0300
0300
0fc0
0000
0000
ENDCHAR
STARTCHAR 01-09-68
ENCODING 10596
SWIDTH 960 0
DWIDTH 14 0
BBX 14 14 0 -2
BITMAP
0000
0100
0280
0440
0000
0f00
0300
0300
0300
0300
0300
0fc0
0000
0000
ENDCHAR
STARTCHAR 01-09-69
ENCODING 10597
SWIDTH 960 0
DWIDTH 14 0
BBX 14 14 0 -2
BITMAP
0000
0cc0
0cc0
0000
0000
0f00
0300
0300
0300
0300
0300
0fc0
0000
0000
ENDCHAR
STARTCHAR 01-09-70
ENCODING 10598
SWIDTH 960 0
DWIDTH 14 0
BBX 14 14 0 -2
BITMAP
0000
0720
08c0
0340
0460
0060
0760
08e0
1860
1860
1860
08c0
0780
0000
ENDCHAR
STARTCHAR 01-09-71
ENCODING 10599
SWIDTH 960 0
DWIDTH 14 0
BBX 14 14 0 -2
BITMAP
0000
0640
0980
0000
1dc0
0e20
0c30
0c30
0c30
0c30
0c30
1e78
0000
0000
ENDCHAR
STARTCHAR 01-09-72
ENCODING 10600
SWIDTH 960 0
DWIDTH 14 0
BBX 14 14 0 -2
BITMAP
0300
0100
0080
0000
0380
0c60
1830
1830
1830
1830
0c60
0380
0000
0000
ENDCHAR
STARTCHAR 01-09-73
ENCODING 10601
SWIDTH 960 0
DWIDTH 14 0
BBX 14 14 0 -2
BITMAP
0180
0100
0200
0000
0380
0c60
1830
1830
1830
1830
0c60
0380
0000
0000
ENDCHAR
STARTCHAR 01-09-74
ENCODING 10602
SWIDTH 960 0
DWIDTH 14 0
BBX 14 14 0 -2
BITMAP
0100
0280
0440
0000
0380
0c60
1830
1830
1830
1830
0c60
0380
0000
0000
ENDCHAR
STARTCHAR 01-09-75
ENCODING 10603
SWIDTH 960 0
DWIDTH 14 0
BBX 14 14 0 -2
BITMAP
0000
0640
0980
0000
0380
0c60
1830
1830
1830
1830
0c60
0380
0000
0000
ENDCHAR
STARTCHAR 01-09-76
ENCODING 10604
SWIDTH 960 0
DWIDTH 14 0
BBX 14 14 0 -2
BITMAP
0000
0cc0
0cc0
0000
0380
0c60
1830
1830
1830
1830
0c60
0380
0000
0000
ENDCHAR
STARTCHAR 01-09-77
ENCODING 10605
SWIDTH 960 0
DWIDTH 14 0
BBX 14 14 0 -2
BITMAP
0000
0000
0000
0000
03a0
0c60
18b0
1930
1930
1a30
0c60
0b80
0000
0000
ENDCHAR
STARTCHAR 01-09-78
ENCODING 10606
SWIDTH 960 0
DWIDTH 14 0
BBX 14 14 0 -2
BITMAP
0300
0100
0080
0000
1cf0
0c30
0c30
0c30
0c30
0c30
0c70
0798
0000
0000
ENDCHAR
STARTCHAR 01-09-79
ENCODING 10607
SWIDTH 960 0
DWIDTH 14 0
BBX 14 14 0 -2
BITMAP
0180
0100
0200
0000
1cf0
0c30
0c30
0c30
0c30
0c30
0c70
0798
0000
0000
ENDCHAR
STARTCHAR 01-09-80
ENCODING 10608
SWIDTH 960 0
DWIDTH 14 0
BBX 14 14 0 -2
BITMAP
0100
0280
0440
0000
1cf0
0c30
0c30
0c30
0c30
0c30
0c70
0798
0000
0000
ENDCHAR
STARTCHAR 01-09-81
ENCODING 10609
SWIDTH 960 0
DWIDTH 14 0
BBX 14 14 0 -2
BITMAP
0000
0cc0
0cc0
0000
1cf0
0c30
0c30
0c30
0c30
0c30
0c70
0798
0000
0000
ENDCHAR
STARTCHAR 01-09-82
ENCODING 10610
SWIDTH 960 0
DWIDTH 14 0
BBX 14 14 0 -2
BITMAP
0180
0100
0200
0000
1f70
0c20
0620
0640
0340
0380
0180
1900
1900
0e00
ENDCHAR
STARTCHAR 01-09-83
ENCODING 10611
SWIDTH 960 0
DWIDTH 14 0
BBX 14 14 0 -2
BITMAP
1c00
0c00
0c00
0c00
0dc0
0e60
0c30
0c30
0c30
0c30
0e60
0dc0
0c00
1e00
ENDCHAR
STARTCHAR 01-09-84
ENCODING 10612
SWIDTH 960 0
DWIDTH 14 0
BBX 14 14 0 -2
BITMAP
0000
0cc0
0cc0
0000
1f70
0c20
0620
0640
0340
0380
0180
1900
1900
0e00
ENDCHAR
STARTCHAR 01-09-85
ENCODING 10613
SWIDTH 960 0
DWIDTH 14 0
BBX 14 14 0 -2
BITMAP
0fc0
0000
0100
0380
0380
04c0
04c0
0860
0fe0
1030
1030
7878
0000
0000
ENDCHAR
STARTCHAR 01-09-86
ENCODING 10614
SWIDTH 960 0
DWIDTH 14 0
BBX 14 14 0 -2
BITMAP
0fc0
0000
0fc0
0300
0300
0300
0300
0300
0300
0300
0300
0fc0
0000
0000
ENDCHAR
STARTCHAR 01-09-87
ENCODING 10615
SWIDTH 960 0
DWIDTH 14 0
BBX 14 14 0 -2
BITMAP
0fc0
0000
3c38
1810
1810
1810
1810
1810
1810
1810
0c20
03c0
0000
0000
ENDCHAR
STARTCHAR 01-09-88
ENCODING 10616
SWIDTH 960 0
DWIDTH 14 0
BBX 14 14 0 -2
BITMAP
0fc0
0000
3fe0
0c20
0c10
0c40
0fc0
0c40
0c00
0c08
0c10
3ff0
0000
0000
ENDCHAR
STARTCHAR 01-09-89
ENCODING 10617
SWIDTH 960 0
DWIDTH 14 0
BBX 14 14 0 -2
BITMAP
0fc0
0000
0380
0c60
1830
3018
3018
3018
3018
1830
0c60
0380
0000
0000
ENDCHAR
STARTCHAR 01-09-90
ENCODING 10618
SWIDTH 960 0
DWIDTH 14 0
BBX 14 14 0 -2
BITMAP
0000
0000
0fc0
0000
0780
0c40
0c60
03e0
0c60
1860
18e0
0f30
0000
0000
ENDCHAR
STARTCHAR 01-09-91
ENCODING 10619
SWIDTH 960 0
DWIDTH 14 0
BBX 14 14 0 -2
BITMAP
0000
0000
0fc0
0000
0000
0f00
0300
0300
0300
0300
0300
0fc0
0000
0000
ENDCHAR
STARTCHAR 01-09-92
ENCODING 10620
SWIDTH 960 0
DWIDTH 14 0
BBX 14 14 0 -2
BITMAP
0000
0000
0fc0
0000
1cf0
0c30
0c30
0c30
0c30
0c30
0c70
0798
0000
0000
ENDCHAR
STARTCHAR 01-09-93
ENCODING 10621
SWIDTH 960 0
DWIDTH 14 0
BBX 14 14 0 -2
BITMAP
0000
0000
0fc0
0000
07c0
0820
1830
1ff0
1800
1810
0c30
03c0
0000
0000
ENDCHAR
STARTCHAR 01-09-94
ENCODING 10622
SWIDTH 960 0
DWIDTH 14 0
BBX 14 14 0 -2
BITMAP
0000
0000
0fc0
0000
0380
0c60
1830
1830
1830
1830
0c60
0380
0000
0000
ENDCHAR
STARTCHAR 01-10-01
ENCODING 10785
SWIDTH 960 0
DWIDTH 14 0
BBX 14 14 0 -2
BITMAP
0000
0100
0100
0380
0380
04c0
04c0
0860
0fe0
1030
1030
7878
0020
0018
ENDCHAR
STARTCHAR 01-10-02
ENCODING 10786
SWIDTH 960 0
DWIDTH 14 0
BBX 14 14 0 -2
BITMAP
0840
0840
0480
0300
0000
0000
0000
0000
0000
0000
0000
0000
0000
0000
ENDCHAR
STARTCHAR 01-10-03
ENCODING 10787
SWIDTH 960 0
DWIDTH 14 0
BBX 14 14 0 -2
BITMAP
0000
3f00
0c00
0c00
0d00
0e00
0c00
1c00
2c00
0c08
0c10
3ff0
0000
0000
ENDCHAR
STARTCHAR 01-10-04
ENCODING 10788
SWIDTH 960 0
DWIDTH 14 0
BBX 14 14 0 -2
BITMAP
0220
3d40
0c80
0c00
0c00
0c00
0c00
0c00
0c00
0c08
0c10
3ff0
0000
0000
ENDCHAR
STARTCHAR 01-10-05
ENCODING 10789
SWIDTH 960 0
DWIDTH 14 0
BBX 14 14 0 -2
BITMAP
0180
0100
0200
07a0
0860
1820
0f00
07c0
11e0
1830
1c20
13c0
0000
0000
ENDCHAR
STARTCHAR 01-10-06
ENCODING 10790
SWIDTH 960 0
DWIDTH 14 0
BBX 14 14 0 -2
BITMAP
0440
0280
0100
07a0
0860
1820
0f00
07c0
11e0
1830
1c20
13c0
0000
0000
ENDCHAR
STARTCHAR 01-10-07
ENCODING 10791
SWIDTH 960 0
DWIDTH 14 0
BBX 14 14 0 -2
BITMAP
0000
07a0
0860
1820
1c00
0f00
03c0
00e0
1030
1830
1c20
13c0
0100
0600
ENDCHAR
STARTCHAR 01-10-08
ENCODING 10792
SWIDTH 960 0
DWIDTH 14 0
BBX 14 14 0 -2
BITMAP
0440
0280
0100
3ff0
2310
4308
0300
0300
0300
0300
0300
0fc0
0000
0000
ENDCHAR
STARTCHAR 01-10-09
ENCODING 10793
SWIDTH 960 0
DWIDTH 14 0
BBX 14 14 0 -2
BITMAP
0180
0100
0200
1ff0
1060
20c0
0180
0300
0600
0c08
1810
3ff0
0000
0000
ENDCHAR
STARTCHAR 01-10-10
ENCODING 10794
SWIDTH 960 0
DWIDTH 14 0
BBX 14 14 0 -2
BITMAP
0440
0280
0100
1ff0
1060
20c0
0180
0300
0600
0c08
1810
3ff0
0000
0000
ENDCHAR
STARTCHAR 01-10-11
ENCODING 10795
SWIDTH 960 0
DWIDTH 14 0
BBX 14 14 0 -2
BITMAP
0300
0300
0000
1ff0
1060
20c0
0180
0300
0600
0c08
1810
3ff0
0000
0000
ENDCHAR
STARTCHAR 01-10-12
ENCODING 10796
SWIDTH 960 0
DWIDTH 14 0
BBX 14 14 0 -2
BITMAP
0000
0000
0000
0000
0780
0c40
0c60
03e0
0c60
1860
18e0
0f30
0010
000c
ENDCHAR
STARTCHAR 01-10-13
ENCODING 10797
SWIDTH 960 0
DWIDTH 14 0
BBX 14 14 0 -2
BITMAP
0000
0000
0000
0000
0000
0000
0000
0000
0040
0080
0080
0060
0060
0000
ENDCHAR
STARTCHAR 01-10-14
ENCODING 10798
SWIDTH 960 0
DWIDTH 14 0
BBX 14 14 0 -2
BITMAP
0000
0f00
0300
0340
0380
0300
0700
0b00
0300
0300
0300
0fc0
0000
0000
ENDCHAR
STARTCHAR 01-10-15
ENCODING 10799
SWIDTH 960 0
DWIDTH 14 0
BBX 14 14 0 -2
BITMAP
0440
0280
0100
0f00
0300
0300
0300
0300
0300
0300
0300
0fc0
0000
0000
ENDCHAR
STARTCHAR 01-10-16
ENCODING 10800
SWIDTH 960 0
DWIDTH 14 0
BBX 14 14 0 -2
BITMAP
0180
0100
0200
0000
0fc0
1840
1c00
0f00
03c0
10e0
1860
17c0
0000
0000
ENDCHAR
STARTCHAR 01-10-17
ENCODING 10801
SWIDTH 960 0
DWIDTH 14 0
BBX 14 14 0 -2
BITMAP
0820
0440
0280
0100
0000
0000
0000
0000
0000
0000
0000
0000
0000
0000
ENDCHAR
STARTCHAR 01-10-18
ENCODING 10802
SWIDTH 960 0
DWIDTH 14 0
BBX 14 14 0 -2
BITMAP
0440
0280
0100
0000
0fc0
1840
1c00
0f00
03c0
10e0
1860
17c0
0000
0000
ENDCHAR
STARTCHAR 01-10-19
ENCODING 10803
SWIDTH 960 0
DWIDTH 14 0
BBX 14 14 0 -2
BITMAP
0000
0000
0000
0000
0fc0
1840
1c00
0f00
03c0
10e0
1860
17c0
0100
0600
ENDCHAR
STARTCHAR 01-10-20
ENCODING 10804
SWIDTH 960 0
DWIDTH 14 0
BBX 14 14 0 -2
BITMAP
0220
0140
0280
0600
0600
1fe0
0600
0600
0600
0600
0620
03c0
0000
0000
ENDCHAR
STARTCHAR 01-10-21
ENCODING 10805
SWIDTH 960 0
DWIDTH 14 0
BBX 14 14 0 -2
BITMAP
0180
0100
0200
0000
1fe0
10c0
0180
0300
0600
0c00
1820
1fe0
0000
0000
ENDCHAR
STARTCHAR 01-10-22
ENCODING 10806
SWIDTH 960 0
DWIDTH 14 0
BBX 14 14 0 -2
BITMAP
0000
0140
0280
0500
0000
0000
0000
0000
0000
0000
0000
0000
0000
0000
ENDCHAR
STARTCHAR 01-10-23
ENCODING 10807
SWIDTH 960 0
DWIDTH 14 0
BBX 14 14 0 -2
BITMAP
0440
0280
0100
0000
1fe0
10c0
0180
0300
0600
0c00
1820
1fe0
0000
0000
ENDCHAR
STARTCHAR 01-10-24
ENCODING 10808
SWIDTH 960 0
DWIDTH 14 0
BBX 14 14 0 -2
BITMAP
0000
0300
0300
0000
1fe0
10c0
0180
0300
0600
0c00
1820
1fe0
0000
0000
ENDCHAR
STARTCHAR 01-10-25
ENCODING 10809
SWIDTH 960 0
DWIDTH 14 0
BBX 14 14 0 -2
BITMAP
0180
0100
0200
3fc0
0c70
0c30
0c60
0f80
0cc0
0c60
0c70
3e38
0000
0000
ENDCHAR
STARTCHAR 01-10-26
ENCODING 10810
SWIDTH 960 0
DWIDTH 14 0
BBX 14 14 0 -2
BITMAP
0440
0380
0000
0380
0380
04c0
04c0
0860
0fe0
1030
1030
7878
0000
0000
ENDCHAR
STARTCHAR 01-10-27
ENCODING 10811
SWIDTH 960 0
DWIDTH 14 0
BBX 14 14 0 -2
BITMAP
00c0
3e80
0d00
0c00
0c00
0c00
0c00
0c00
0c00
0c08
0c10
3ff0
0000
0000
ENDCHAR
STARTCHAR 01-10-28
ENCODING 10812
SWIDTH 960 0
DWIDTH 14 0
BBX 14 14 0 -2
BITMAP
0180
0100
0200
03d0
0c30
1810
3010
3000
3000
1810
0c30
03c0
0000
0000
ENDCHAR
STARTCHAR 01-10-29
ENCODING 10813
SWIDTH 960 0
DWIDTH 14 0
BBX 14 14 0 -2
BITMAP
0440
0280
0100
03d0
0c30
1810
3010
3000
3000
1810
0c30
03c0
0000
0000
ENDCHAR
STARTCHAR 01-10-30
ENCODING 10814
SWIDTH 960 0
DWIDTH 14 0
BBX 14 14 0 -2
BITMAP
0000
3fe0
0c20
0c10
0c00
0c40
0fc0
0c40
0c00
0c08
0c10
3ff0
0020
0018
ENDCHAR
STARTCHAR 01-10-31
ENCODING 10815
SWIDTH 960 0
DWIDTH 14 0
BBX 14 14 0 -2
BITMAP
0440
0280
0100
3fe0
0c20
0c10
0c40
0fc0
0c40
0c08
0c10
3ff0
0000
0000
ENDCHAR
STARTCHAR 01-10-32
ENCODING 10816
SWIDTH 960 0
DWIDTH 14 0
BBX 14 14 0 -2
BITMAP
0440
0280
0100
3f80
0c60
0c30
0c18
0c18
0c18
0c30
0c60
3f80
0000
0000
ENDCHAR
STARTCHAR 01-10-33
ENCODING 10817
SWIDTH 960 0
DWIDTH 14 0
BBX 14 14 0 -2
BITMAP
0180
0100
3a70
1c20
1620
1620
1320
11a0
11a0
10e0
1060
3860
0000
0000
ENDCHAR
STARTCHAR 01-10-34
ENCODING 10818
SWIDTH 960 0
DWIDTH 14 0
BBX 14 14 0 -2
BITMAP
0640
0980
0000
3870
1c20
1e20
1720
13a0
11a0
10e0
1060
3860
0000
0000
ENDCHAR
STARTCHAR 01-10-35
ENCODING 10819
SWIDTH 960 0
DWIDTH 14 0
BBX 14 14 0 -2
BITMAP
0660
0440
0880
0380
0c60
1830
3018
3018
3018
1830
0c60
0380
0000
0000
ENDCHAR
STARTCHAR 01-10-36
ENCODING 10820
SWIDTH 960 0
DWIDTH 14 0
BBX 14 14 0 -2
BITMAP
0440
0280
0100
3fc0
0c30
0c30
0c60
0f80
0cc0
0c60
0c30
3e38
0000
0000
ENDCHAR
STARTCHAR 01-10-37
ENCODING 10821
SWIDTH 960 0
DWIDTH 14 0
BBX 14 14 0 -2
BITMAP
0180
0240
0240
3db8
1810
1810
1810
1810
1810
1810
0c20
03c0
0000
0000
ENDCHAR
STARTCHAR 01-10-38
ENCODING 10822
SWIDTH 960 0
DWIDTH 14 0
BBX 14 14 0 -2
BITMAP
0360
0240
0480
3c38
1810
1810
1810
1810
1810
1810
0c20
03c0
0000
0000
ENDCHAR
STARTCHAR 01-10-39
ENCODING 10823
SWIDTH 960 0
DWIDTH 14 0
BBX 14 14 0 -2
BITMAP
0000
3ff0
2310
4308
0300
0300
0300
0300
0300
0300
0300
0fc0
0200
0c00
ENDCHAR
STARTCHAR 01-10-40
ENCODING 10824
SWIDTH 960 0
DWIDTH 14 0
BBX 14 14 0 -2
BITMAP
0180
0100
0200
0000
1dc0
0e60
0c60
0c00
0c00
0c00
0c00
1e00
0000
0000
ENDCHAR
STARTCHAR 01-10-41
ENCODING 10825
SWIDTH 960 0
DWIDTH 14 0
BBX 14 14 0 -2
BITMAP
0000
0440
0380
0000
0780
0c40
0c60
03e0
0c60
1860
18e0
0f30
0000
0000
ENDCHAR
STARTCHAR 01-10-42
ENCODING 10826
SWIDTH 960 0
DWIDTH 14 0
BBX 14 14 0 -2
BITMAP
0180
0100
0200
0f00
0300
0300
0300
0300
0300
0300
0300
0fc0
0000
0000
ENDCHAR
STARTCHAR 01-10-43
ENCODING 10827
SWIDTH 960 0
DWIDTH 14 0
BBX 14 14 0 -2
BITMAP
0180
0100
0200
0000
0380
0c60
1820
1800
1800
1820
0c60
0380
0000
0000
ENDCHAR
STARTCHAR 01-10-44
ENCODING 10828
SWIDTH 960 0
DWIDTH 14 0
BBX 14 14 0 -2
BITMAP
0440
0280
0100
0000
0380
0c60
1820
1800
1800
1820
0c60
0380
0000
0000
ENDCHAR
STARTCHAR 01-10-45
ENCODING 10829
SWIDTH 960 0
DWIDTH 14 0
BBX 14 14 0 -2
BITMAP
0000
0000
0000
0000
07c0
0820
1830
1ff0
1800
1810
0c30
03c0
0040
0030
ENDCHAR
STARTCHAR 01-10-46
ENCODING 10830
SWIDTH 960 0
DWIDTH 14 0
BBX 14 14 0 -2
BITMAP
0440
0280
0100
0000
07c0
0820
1830
1ff0
1800
1810
0c30
03c0
0000
0000
ENDCHAR
STARTCHAR 01-10-47
ENCODING 10831
SWIDTH 960 0
DWIDTH 14 0
BBX 14 14 0 -2
BITMAP
0440
0280
01e0
0060
0060
0760
0ce0
1860
1860
1860
0ce0
0370
0000
0000
ENDCHAR
STARTCHAR 01-10-48
ENCODING 10832
SWIDTH 960 0
DWIDTH 14 0
BBX 14 14 0 -2
BITMAP
0000
00e0
0060
07f0
0060
0360
0ce0
1860
1860
1860
0ce0
0370
0000
0000
ENDCHAR
STARTCHAR 01-10-49
ENCODING 10833
SWIDTH 960 0
DWIDTH 14 0
BBX 14 14 0 -2
BITMAP
0180
0100
0200
0000
1dc0
0e20
0c30
0c30
0c30
0c30
0c30
1e78
0000
0000
ENDCHAR
STARTCHAR 01-10-50
ENCODING 10834
SWIDTH 960 0
DWIDTH 14 0
BBX 14 14 0 -2
BITMAP
0440
0280
0100
0000
1dc0
0e20
0c30
0c30
0c30
0c30
0c30
1e78
0000
0000
ENDCHAR
STARTCHAR 01-10-51
ENCODING 10835
SWIDTH 960 0
DWIDTH 14 0
BBX 14 14 0 -2
BITMAP
0360
0240
0480
0000
0380
0c60
1830
1830
1830
1830
0c60
0380
0000
0000
ENDCHAR
STARTCHAR 01-10-52
ENCODING 10836
SWIDTH 960 0
DWIDTH 14 0
BBX 14 14 0 -2
BITMAP
0440
0280
0100
0000
1dc0
0e60
0c60
0c00
0c00
0c00
0c00
1e00
0000
0000
ENDCHAR
STARTCHAR 01-10-53
ENCODING 10837
SWIDTH 960 0
DWIDTH 14 0
BBX 14 14 0 -2
BITMAP
0300
0480
0480
0300
1cf0
0c30
0c30
0c30
0c30
0c30
0c70
0798
0000
0000
ENDCHAR
STARTCHAR 01-10-54
ENCODING 10838
SWIDTH 960 0
DWIDTH 14 0
BBX 14 14 0 -2
BITMAP
0360
0240
0480
0000
1cf0
0c30
0c30
0c30
0c30
0c30
0c70
0798
0000
0000
ENDCHAR
STARTCHAR 01-10-55
ENCODING 10839
SWIDTH 960 0
DWIDTH 14 0
BBX 14 14 0 -2
BITMAP
0000
0000
0200
0600
0600
1fe0
0600
0600
0600
0600
0620
03c0
0100
0600
ENDCHAR
STARTCHAR 01-10-56
ENCODING 10840
SWIDTH 960 0
DWIDTH 14 0
BBX 14 14 0 -2
BITMAP
0000
0300
0300
0000
0000
0000
0000
0000
0000
0000
0000
0000
0000
0000
ENDCHAR
STARTCHAR 01-10-57
ENCODING 10841
SWIDTH 960 0
DWIDTH 14 0
BBX 14 14 0 -2
BITMAP
0100
0280
0440
03d0
0c30
1810
3010
3000
3000
1810
0c30
03c0
0000
0000
ENDCHAR
STARTCHAR 01-10-58
ENCODING 10842
SWIDTH 960 0
DWIDTH 14 0
BBX 14 14 0 -2
BITMAP
0100
0280
0440
03d0
0c30
1810
3000
30f8
3030
1830
0c60
0380
0000
0000
ENDCHAR
STARTCHAR 01-10-59
ENCODING 10843
SWIDTH 960 0
DWIDTH 14 0
BBX 14 14 0 -2
BITMAP
0100
0280
0440
3c78
1830
1830
1830
1ff0
1830
1830
1830
3c78
0000
0000
ENDCHAR
STARTCHAR 01-10-60
ENCODING 10844
SWIDTH 960 0
DWIDTH 14 0
BBX 14 14 0 -2
BITMAP
0100
0280
0440
01f8
0060
0060
0060
1060
3860
3060
18c0
0700
0000
0000
ENDCHAR
STARTCHAR 01-10-61
ENCODING 10845
SWIDTH 960 0
DWIDTH 14 0
BBX 14 14 0 -2
BITMAP
0100
0280
0440
07a0
0860
1820
0f00
07c0
11e0
1830
1c20
13c0
0000
0000
ENDCHAR
STARTCHAR 01-10-62
ENCODING 10846
SWIDTH 960 0
DWIDTH 14 0
BBX 14 14 0 -2
BITMAP
0440
0380
3c38
1810
1810
1810
1810
1810
1810
1810
0c20
03c0
0000
0000
ENDCHAR
STARTCHAR 01-10-63
ENCODING 10847
SWIDTH 960 0
DWIDTH 14 0
BBX 14 14 0 -2
BITMAP
0100
0280
0440
0000
0380
0c60
1820
1800
1800
1820
0c60
0380
0000
0000
ENDCHAR
STARTCHAR 01-10-64
ENCODING 10848
SWIDTH 960 0
DWIDTH 14 0
BBX 14 14 0 -2
BITMAP
0100
0280
0440
0000
07e0
0cc0
08c0
0880
0700
0c00
0fc0
18e0
0820
07c0
ENDCHAR
STARTCHAR 01-10-65
ENCODING 10849
SWIDTH 960 0
DWIDTH 14 0
BBX 14 14 0 -2
BITMAP
0080
1d40
0e20
0c00
0dc0
0e60
0c30
0c30
0c30
0c30
0c30
1e78
0000
0000
ENDCHAR
STARTCHAR 01-10-66
ENCODING 10850
SWIDTH 960 0
DWIDTH 14 0
BBX 14 14 0 -2
BITMAP
0000
0100
0280
0440
0000
0f80
0180
0180
0180
0180
0180
1980
1900
0e00
ENDCHAR
STARTCHAR 01-10-67
ENCODING 10851
SWIDTH 960 0
DWIDTH 14 0
BBX 14 14 0 -2
BITMAP
0200
0500
0880
0000
0fc0
1840
1c00
0f00
03c0
10e0
1860
17c0
0000
0000
ENDCHAR
STARTCHAR 01-10-68
ENCODING 10852
SWIDTH 960 0
DWIDTH 14 0
BBX 14 14 0 -2
BITMAP
0000
0440
0380
0000
1cf0
0c30
0c30
0c30
0c30
0c30
0c70
0798
0000
0000
ENDCHAR
STARTCHAR 01-10-69
ENCODING 10853
SWIDTH 960 0
DWIDTH 14 0
BBX 14 14 0 -2
BITMAP
0000
0000
0000
0000
76e0
3b30
3330
3330
3330
3330
3330
7b30
01b0
01e0
ENDCHAR
STARTCHAR 01-10-70
ENCODING 10854
SWIDTH 960 0
DWIDTH 14 0
BBX 14 14 0 -2
BITMAP
0000
0000
0000
0000
1cf0
0c30
0c30
0c30
0c30
0c20
0c60
0780
0000
0000
ENDCHAR
STARTCHAR 01-10-71
ENCODING 10855
SWIDTH 960 0
DWIDTH 14 0
BBX 14 14 0 -2
BITMAP
0000
0000
0000
0000
01c0
0320
0360
0360
0300
0300
0300
0fc0
0000
0000
ENDCHAR
STARTCHAR 01-10-72
ENCODING 10856
SWIDTH 960 0
DWIDTH 14 0
BBX 14 14 0 -2
BITMAP
01e0
0330
0330
0300
0300
0300
0300
0300
0300
0300
0300
3300
3300
1e00
ENDCHAR
STARTCHAR 01-10-73
ENCODING 10857
SWIDTH 960 0
DWIDTH 14 0
BBX 14 14 0 -2
BITMAP
0000
0000
0000
0000
1fe0
10c0
1180
0180
0300
07c0
00e0
18e0
18c0
0f80
ENDCHAR
STARTCHAR 01-10-74
ENCODING 10858
SWIDTH 960 0
DWIDTH 14 0
BBX 14 14 0 -2
BITMAP
0000
0f00
0300
0300
0f00
1300
1300
1300
0fe0
0300
0300
0fc0
0000
0000
ENDCHAR
STARTCHAR 01-10-75
ENCODING 10859
SWIDTH 960 0
DWIDTH 14 0
BBX 14 14 0 -2
BITMAP
0000
3c00
0c00
0c00
0ff8
0c30
0c60
0c60
0cc0
0df0
0c38
3e38
0630
03e0
ENDCHAR
STARTCHAR 01-10-76
ENCODING 10860
SWIDTH 960 0
DWIDTH 14 0
BBX 14 14 0 -2
BITMAP
0000
0000
0000
0000
01e0
00c0
00c0
00c0
00c0
18c0
19c0
0ee0
0000
0000
ENDCHAR
STARTCHAR 01-10-77
ENCODING 10861
SWIDTH 960 0
DWIDTH 14 0
BBX 14 14 0 -2
BITMAP
0000
0000
0200
0600
0600
1fe0
0600
0600
0600
0600
0600
0600
0640
03c0
ENDCHAR
STARTCHAR 01-10-78
ENCODING 10862
SWIDTH 960 0
DWIDTH 14 0
BBX 14 14 0 -2
BITMAP
0000
00e0
0060
0060
0360
0ce0
1860
1860
1860
1860
0ce0
0360
0068
0038
ENDCHAR
STARTCHAR 01-10-79
ENCODING 10863
SWIDTH 960 0
DWIDTH 14 0
BBX 14 14 0 -2
BITMAP
0000
0000
0000
0000
3b80
1c40
1860
1860
1860
1860
1860
3c60
0068
0038
ENDCHAR
STARTCHAR 01-10-80
ENCODING 10864
SWIDTH 960 0
DWIDTH 14 0
BBX 14 14 0 -2
BITMAP
0000
0000
0000
0000
1dc0
0e60
0c60
0c00
0c00
0c00
0c00
0c00
0c80
0780
ENDCHAR
STARTCHAR 01-10-81
ENCODING 10865
SWIDTH 960 0
DWIDTH 14 0
BBX 14 14 0 -2
BITMAP
0000
0000
0000
0000
0fc0
1840
1c00
0f00
03c0
10e0
1860
17c0
1000
0c00
ENDCHAR
STARTCHAR 01-10-82
ENCODING 10866
SWIDTH 960 0
DWIDTH 14 0
BBX 14 14 0 -2
BITMAP
0000
0000
0000
0000
1fe0
10c0
0180
0300
0600
0c00
1820
1fe0
0028
0018
ENDCHAR
STARTCHAR 01-10-83
ENCODING 10867
SWIDTH 960 0
DWIDTH 14 0
BBX 14 14 0 -2
BITMAP
0000
0000
0000
0000
01e0
00c0
00c0
00c0
00c0
18c0
19c0
0ec0
00c8
0078
ENDCHAR
STARTCHAR 01-10-84
ENCODING 10868
SWIDTH 960 0
DWIDTH 14 0
BBX 14 14 0 -2
BITMAP
0000
0f00
0300
0300
0300
0300
0300
0300
0300
0300
0300
0300
0320
01e0
ENDCHAR
STARTCHAR 01-10-85
ENCODING 10869
SWIDTH 960 0
DWIDTH 14 0
BBX 14 14 0 -2
BITMAP
0000
0000
0000
0000
0000
07e0
0180
0180
07e0
0180
0180
1980
1900
0e00
ENDCHAR
STARTCHAR 01-10-86
ENCODING 10870
SWIDTH 960 0
DWIDTH 14 0
BBX 14 14 0 -2
BITMAP
0000
0000
0000
0000
0ec0
0720
0630
0630
0630
0630
0630
6678
6400
3800
ENDCHAR
STARTCHAR 01-10-87
ENCODING 10871
SWIDTH 960 0
DWIDTH 14 0
BBX 14 14 0 -2
BITMAP
0000
0100
0380
0100
0000
0fc0
0300
0300
0300
0300
0300
1fc0
1300
0e00
ENDCHAR
STARTCHAR 01-10-88
ENCODING 10872
SWIDTH 960 0
DWIDTH 14 0
BBX 14 14 0 -2
BITMAP
0000
0000
00e0
0130
0130
0300
0380
0580
04c0
08c0
0860
1df0
0000
0000
ENDCHAR
STARTCHAR 01-10-89
ENCODING 10873
SWIDTH 960 0
DWIDTH 14 0
BBX 14 14 0 -2
BITMAP
0000
0000
0000
0000
03a0
0c60
1860
1860
1860
0ce0
0360
1860
1840
0f80
ENDCHAR
STARTCHAR 01-10-90
ENCODING 10874
SWIDTH 960 0
DWIDTH 14 0
BBX 14 14 0 -2
BITMAP
0000
0000
0000
0000
1dc0
0e20
0c30
0c30
0c30
0c30
0c30
1e30
0120
01c0
ENDCHAR
STARTCHAR 01-10-91
ENCODING 10875
SWIDTH 960 0
DWIDTH 14 0
BBX 14 14 0 -2
BITMAP
0000
0000
0000
0000
7778
3330
3330
3330
3330
3330
3370
1db0
0030
0038
ENDCHAR
STARTCHAR 01-10-92
ENCODING 10876
SWIDTH 960 0
DWIDTH 14 0
BBX 14 14 0 -2
BITMAP
0000
0000
0000
0000
1c70
0cb0
0d80
0e60
0c30
0c30
0e60
1d80
0000
0000
ENDCHAR
STARTCHAR 01-10-93
ENCODING 10877
SWIDTH 960 0
DWIDTH 14 0
BBX 14 14 0 -2
BITMAP
0000
1c00
0c00
1f80
0c00
0dc0
0e60
0c30
0c30
0c30
0c30
1e78
0000
0000
ENDCHAR
STARTCHAR 01-10-94
ENCODING 10878
SWIDTH 960 0
DWIDTH 14 0
BBX 14 14 0 -2
BITMAP
0000
0780
0e40
1820
1860
1860
0f00
0300
0300
0300
0300
0fc0
0000
0000
ENDCHAR
STARTCHAR 01-11-01
ENCODING 11041
SWIDTH 960 0
DWIDTH 14 0
BBX 14 14 0 -2
BITMAP
0000
0780
09c0
1060
1860
1860
03c0
0300
0300
0300
0300
0fc0
0000
0000
ENDCHAR
STARTCHAR 01-11-02
ENCODING 11042
SWIDTH 960 0
DWIDTH 14 0
BBX 14 14 0 -2
BITMAP
0000
03c0
0460
0c60
0c00
0dc0
0e60
0c30
0c30
0c30
0c30
1e78
0000
0000
ENDCHAR
STARTCHAR 01-11-03
ENCODING 11043
SWIDTH 960 0
DWIDTH 14 0
BBX 14 14 0 -2
BITMAP
0000
0000
0fc0
1860
3030
2010
2310
2310
2010
3030
1860
0fc0
0000
0000
ENDCHAR
STARTCHAR 01-11-04
ENCODING 11044
SWIDTH 960 0
DWIDTH 14 0
BBX 14 14 0 -2
BITMAP
0000
0100
0100
0100
0fe0
0100
0100
0100
0fe0
0100
0100
0100
0000
0000
ENDCHAR
STARTCHAR 01-11-05
ENCODING 11045
SWIDTH 960 0
DWIDTH 14 0
BBX 14 14 0 -2
BITMAP
0000
03c0
0460
0c60
0c00
0d80
0e60
0c30
0c30
0c30
0e60
1d80
0000
0000
ENDCHAR
STARTCHAR 01-11-06
ENCODING 11046
SWIDTH 960 0
DWIDTH 14 0
BBX 14 14 0 -2
BITMAP
0000
0078
00c8
00c0
06c0
19c0
30c0
30c0
30c0
30c0
19c0
06e0
0000
0000
ENDCHAR
STARTCHAR 01-11-07
ENCODING 11047
SWIDTH 960 0
DWIDTH 14 0
BBX 14 14 0 -2
BITMAP
0000
0000
0000
00e0
0130
0330
0300
0300
0300
0300
0fc0
0300
1300
1e00
ENDCHAR
STARTCHAR 01-11-08
ENCODING 11048
SWIDTH 960 0
DWIDTH 14 0
BBX 14 14 0 -2
BITMAP
0000
0000
0000
0038
0748
18c0
30c0
30c0
30c0
19c0
06c0
30c0
3080
1f00
ENDCHAR
STARTCHAR 01-11-09
ENCODING 11049
SWIDTH 960 0
DWIDTH 14 0
BBX 14 14 0 -2
BITMAP
0000
03b8
0c68
1820
3000
3000
30f8
3030
3030
1830
0c60
0380
0000
0000
ENDCHAR
STARTCHAR 01-11-10
ENCODING 11050
SWIDTH 960 0
DWIDTH 14 0
BBX 14 14 0 -2
BITMAP
0000
0000
0000
0000
1c60
3790
6318
63f8
6300
6308
3788
1cf0
0000
0000
ENDCHAR
STARTCHAR 01-11-11
ENCODING 11051
SWIDTH 960 0
DWIDTH 14 0
BBX 14 14 0 -2
BITMAP
0000
1df8
3388
2184
6180
6190
61f0
6190
6180
2184
3388
1df8
0000
0000
ENDCHAR
STARTCHAR 01-11-12
ENCODING 11052
SWIDTH 960 0
DWIDTH 14 0
BBX 14 14 0 -2
BITMAP
0000
0100
0380
0100
0000
0f00
0300
0300
0fc0
0300
0300
0fc0
0000
0000
ENDCHAR
STARTCHAR 01-11-13
ENCODING 11053
SWIDTH 960 0
DWIDTH 14 0
BBX 14 14 0 -2
BITMAP
0000
0000
0000
0000
1cf0
0c30
0c30
1ff8
0c30
0c30
0c70
0798
0000
0000
ENDCHAR
STARTCHAR 01-11-14
ENCODING 11054
SWIDTH 960 0
DWIDTH 14 0
BBX 14 14 0 -2
BITMAP
0000
0000
0000
0000
07c0
0820
1830
1ff0
0030
1030
1860
0780
0000
0000
ENDCHAR
STARTCHAR 01-11-15
ENCODING 11055
SWIDTH 960 0
DWIDTH 14 0
BBX 14 14 0 -2
BITMAP
0000
0000
0000
0000
07c0
0820
1830
1ff0
1830
1830
0c60
0380
0000
0000
ENDCHAR
STARTCHAR 01-11-16
ENCODING 11056
SWIDTH 960 0
DWIDTH 14 0
BBX 14 14 0 -2
BITMAP
0000
0000
0000
0000
0780
1860
1030
0030
1ff0
1830
0820
07c0
0000
0000
ENDCHAR
STARTCHAR 01-11-17
ENCODING 11057
SWIDTH 960 0
DWIDTH 14 0
BBX 14 14 0 -2
BITMAP
0000
0000
0000
0000
07c0
1870
0030
03e0
0030
1030
0860
07c0
0000
0000
ENDCHAR
STARTCHAR 01-11-18
ENCODING 11058
SWIDTH 960 0
DWIDTH 14 0
BBX 14 14 0 -2
BITMAP
0000
0000
0000
0000
07c0
0870
1030
13e0
1030
1030
0860
07c0
0000
0000
ENDCHAR
STARTCHAR 01-11-19
ENCODING 11059
SWIDTH 960 0
DWIDTH 14 0
BBX 14 14 0 -2
BITMAP
0000
0000
0000
0000
33c0
1c60
1860
18c0
1f00
18c0
08c0
0780
0000
0000
ENDCHAR
STARTCHAR 01-11-20
ENCODING 11060
SWIDTH 960 0
DWIDTH 14 0
BBX 14 14 0 -2
BITMAP
0000
0000
0000
0000
7778
3330
3330
3330
3330
3330
3370
1db8
0000
0000
ENDCHAR
STARTCHAR 01-11-21
ENCODING 11061
SWIDTH 960 0
DWIDTH 14 0
BBX 14 14 0 -2
BITMAP
0000
0000
0000
0000
1ef0
1290
0440
0c60
1830
1830
0c60
07c0
0000
0000
ENDCHAR
STARTCHAR 01-11-22
ENCODING 11062
SWIDTH 960 0
DWIDTH 14 0
BBX 14 14 0 -2
BITMAP
0000
0000
0000
0000
1ef0
0c60
06c0
0380
0100
0380
0280
0100
0000
0000
ENDCHAR
STARTCHAR 01-11-23
ENCODING 11063
SWIDTH 960 0
DWIDTH 14 0
BBX 14 14 0 -2
BITMAP
0000
0000
0000
0000
0300
0300
0580
0580
08c0
08c0
1060
39f0
0000
0000
ENDCHAR
STARTCHAR 01-11-24
ENCODING 11064
SWIDTH 960 0
DWIDTH 14 0
BBX 14 14 0 -2
BITMAP
0000
0000
0000
0000
0700
18c0
1060
0060
0060
1060
18c0
1700
0000
0000
ENDCHAR
STARTCHAR 01-11-25
ENCODING 11065
SWIDTH 960 0
DWIDTH 14 0
BBX 14 14 0 -2
BITMAP
0000
0000
0000
0000
0360
0ce0
1860
1860
1860
1860
0ce0
0330
0000
0000
ENDCHAR
STARTCHAR 01-11-26
ENCODING 11066
SWIDTH 960 0
DWIDTH 14 0
BBX 14 14 0 -2
BITMAP
0000
0000
0000
0000
3300
1cc0
1860
1860
1860
1860
1cc0
1b00
0000
0000
ENDCHAR
STARTCHAR 01-11-27
ENCODING 11067
SWIDTH 960 0
DWIDTH 14 0
BBX 14 14 0 -2
BITMAP
0000
0000
0000
0000
0cc0
0cc0
0cc0
0ee0
16e0
1330
1330
3b78
0000
0000
ENDCHAR
STARTCHAR 01-11-28
ENCODING 11068
SWIDTH 960 0
DWIDTH 14 0
BBX 14 14 0 -2
BITMAP
0000
1e30
0c30
0c30
0c30
0c30
0c30
0670
03b0
0030
0030
0038
0000
0000
ENDCHAR
STARTCHAR 01-11-29
ENCODING 11069
SWIDTH 960 0
DWIDTH 14 0
BBX 14 14 0 -2
BITMAP
0000
0780
0e40
1820
1860
1860
0f00
0300
0fc0
0300
0300
0fc0
0000
0000
ENDCHAR
STARTCHAR 01-11-30
ENCODING 11070
SWIDTH 960 0
DWIDTH 14 0
BBX 14 14 0 -2
BITMAP
0000
0780
09c0
1060
1860
1860
03c0
0300
0fc0
0300
0300
0fc0
0000
0000
ENDCHAR
STARTCHAR 01-11-31
ENCODING 11071
SWIDTH 960 0
DWIDTH 14 0
BBX 14 14 0 -2
BITMAP
0000
0000
0000
0000
0380
0c60
1820
1800
1840
18a0
0d20
03c0
0200
0400
ENDCHAR
STARTCHAR 01-11-32
ENCODING 11072
SWIDTH 960 0
DWIDTH 14 0
BBX 14 14 0 -2
BITMAP
0000
0000
0000
0000
1fe0
10c0
0180
0300
0640
0ca0
1920
1fe0
0200
0400
ENDCHAR
STARTCHAR 01-11-33
ENCODING 11073
SWIDTH 960 0
DWIDTH 14 0
BBX 14 14 0 -2
BITMAP
0000
01e0
00c0
00c0
00c0
00c0
00c0
00c0
00c0
18c0
19c0
0ee0
0000
0000
ENDCHAR
STARTCHAR 01-11-34
ENCODING 11074
SWIDTH 960 0
DWIDTH 14 0
BBX 14 14 0 -2
BITMAP
0000
03c0
0460
0c60
0c00
0dc0
0e60
0c30
0c30
0c30
0c30
1e30
0120
01c0
ENDCHAR
STARTCHAR 01-11-35
ENCODING 11075
SWIDTH 960 0
DWIDTH 14 0
BBX 14 14 0 -2
BITMAP
0000
0000
0000
0000
0788
19d8
10e4
0360
0460
1860
0c40
0780
0000
0000
ENDCHAR
STARTCHAR 01-11-36
ENCODING 11076
SWIDTH 960 0
DWIDTH 14 0
BBX 14 14 0 -2
BITMAP
0300
0100
0080
0000
1c60
3390
2318
1ff8
2300
6308
6788
3b70
0000
0000
ENDCHAR
STARTCHAR 01-11-37
ENCODING 11077
SWIDTH 960 0
DWIDTH 14 0
BBX 14 14 0 -2
BITMAP
0180
0100
0200
0000
1c60
3390
2318
1ff8
2300
6308
6788
3b70
0000
0000
ENDCHAR
STARTCHAR 01-11-38
ENCODING 11078
SWIDTH 960 0
DWIDTH 14 0
BBX 14 14 0 -2
BITMAP
0300
0100
0080
0000
0360
0ce0
1860
1860
1860
1860
0ce0
0330
0000
0000
ENDCHAR
STARTCHAR 01-11-39
ENCODING 11079
SWIDTH 960 0
DWIDTH 14 0
BBX 14 14 0 -2
BITMAP
0180
0100
0200
0000
0360
0ce0
1860
1860
1860
1860
0ce0
0330
0000
0000
ENDCHAR
STARTCHAR 01-11-40
ENCODING 11080
SWIDTH 960 0
DWIDTH 14 0
BBX 14 14 0 -2
BITMAP
0300
0100
0080
0000
0700
18c0
1060
0060
0060
1060
18c0
1700
0000
0000
ENDCHAR
STARTCHAR 01-11-41
ENCODING 11081
SWIDTH 960 0
DWIDTH 14 0
BBX 14 14 0 -2
BITMAP
0180
0100
0200
0000
0700
18c0
1060
0060
0060
1060
18c0
1700
0000
0000
ENDCHAR
STARTCHAR 01-11-42
ENCODING 11082
SWIDTH 960 0
DWIDTH 14 0
BBX 14 14 0 -2
BITMAP
0300
0100
0080
0000
0300
0300
0580
0580
08c0
08c0
1060
39f0
0000
0000
ENDCHAR
STARTCHAR 01-11-43
ENCODING 11083
SWIDTH 960 0
DWIDTH 14 0
BBX 14 14 0 -2
BITMAP
0180
0100
0200
0000
0300
0300
0580
0580
08c0
08c0
1060
39f0
0000
0000
ENDCHAR
STARTCHAR 01-11-44
ENCODING 11084
SWIDTH 960 0
DWIDTH 14 0
BBX 14 14 0 -2
BITMAP
0300
0100
0080
0000
0780
1860
1030
0030
1ff0
1830
0820
07c0
0000
0000
ENDCHAR
STARTCHAR 01-11-45
ENCODING 11085
SWIDTH 960 0
DWIDTH 14 0
BBX 14 14 0 -2
BITMAP
0180
0100
0200
0000
0780
1860
1030
0030
1ff0
1830
0820
07c0
0000
0000
ENDCHAR
STARTCHAR 01-11-46
ENCODING 11086
SWIDTH 960 0
DWIDTH 14 0
BBX 14 14 0 -2
BITMAP
0300
0100
0080
0000
0788
19d8
10e4
0360
0460
1860
0c40
0780
0000
0000
ENDCHAR
STARTCHAR 01-11-47
ENCODING 11087
SWIDTH 960 0
DWIDTH 14 0
BBX 14 14 0 -2
BITMAP
0180
0100
0200
0000
0788
19d8
10e4
0360
0460
1860
0c40
0780
0000
0000
ENDCHAR
STARTCHAR 01-11-48
ENCODING 11088
SWIDTH 960 0
DWIDTH 14 0
BBX 14 14 0 -2
BITMAP
0300
0100
0080
0000
07c0
1c70
1800
0fc0
1800
1810
0c20
07c0
0000
0000
ENDCHAR
STARTCHAR 01-11-49
ENCODING 11089
SWIDTH 960 0
DWIDTH 14 0
BBX 14 14 0 -2
BITMAP
0180
0100
0200
0000
07c0
1c70
1800
0fc0
1800
1810
0c20
07c0
0000
0000
ENDCHAR
STARTCHAR 01-11-50
ENCODING 11090
SWIDTH 960 0
DWIDTH 14 0
BBX 14 14 0 -2
BITMAP
0000
0780
1860
2010
0000
0000
0000
0000
0000
0000
0000
0000
0000
0000
ENDCHAR
STARTCHAR 01-11-51
ENCODING 11091
SWIDTH 960 0
DWIDTH 14 0
BBX 14 14 0 -2
BITMAP
0000
0100
0100
0100
0100
0000
0000
0000
0000
0000
0000
0000
0000
0000
ENDCHAR
STARTCHAR 01-11-52
ENCODING 11092
SWIDTH 960 0
DWIDTH 14 0
BBX 14 14 0 -2
BITMAP
0000
0000
0000
0000
0000
0000
0000
0000
0000
0100
0100
0100
0100
0000
ENDCHAR
STARTCHAR 01-11-53
ENCODING 11093
SWIDTH 960 0
DWIDTH 14 0
BBX 14 14 0 -2
BITMAP
0000
0000
0000
07c0
0380
0100
0100
0000
0100
0100
0380
07c0
0000
0000
ENDCHAR
STARTCHAR 01-11-54
ENCODING 11094
SWIDTH 960 0
DWIDTH 14 0
BBX 14 14 0 -2
BITMAP
0000
0000
0000
07c0
0380
0100
0100
0000
0000
0000
0000
0000
0000
0000
ENDCHAR
STARTCHAR 01-11-55
ENCODING 11095
SWIDTH 960 0
DWIDTH 14 0
BBX 14 14 0 -2
BITMAP
0000
0840
0840
0480
0300
0000
0000
0000
0000
0000
0000
0000
0000
0000
ENDCHAR
STARTCHAR 01-11-56
ENCODING 11096
SWIDTH 960 0
DWIDTH 14 0
BBX 14 14 0 -2
BITMAP
0000
0000
0000
0000
0000
0000
0000
0000
0000
0000
2010
1860
0780
0000
ENDCHAR
STARTCHAR 01-11-57
ENCODING 11097
SWIDTH 960 0
DWIDTH 14 0
BBX 14 14 0 -2
BITMAP
0000
0140
0280
0500
0000
0000
0000
0000
0000
0000
0000
0000
0000
0000
ENDCHAR
STARTCHAR 01-11-58
ENCODING 11098
SWIDTH 960 0
DWIDTH 14 0
BBX 14 14 0 -2
BITMAP
0000
00c0
0180
0200
0000
0000
0000
0000
0000
0000
0000
0000
0000
0000
ENDCHAR
STARTCHAR 01-11-59
ENCODING 11099
SWIDTH 960 0
DWIDTH 14 0
BBX 14 14 0 -2
BITMAP
0000
07c0
0000
0000
0000
0000
0000
0000
0000
0000
0000
0000
0000
0000
ENDCHAR
STARTCHAR 01-11-60
ENCODING 11100
SWIDTH 960 0
DWIDTH 14 0
BBX 14 14 0 -2
BITMAP
0000
0600
0300
0080
0000
0000
0000
0000
0000
0000
0000
0000
0000
0000
ENDCHAR
STARTCHAR 01-11-61
ENCODING 11101
SWIDTH 960 0
DWIDTH 14 0
BBX 14 14 0 -2
BITMAP
0000
0500
0280
0140
0000
0000
0000
0000
0000
0000
0000
0000
0000
0000
ENDCHAR
STARTCHAR 01-11-62
ENCODING 11102
SWIDTH 960 0
DWIDTH 14 0
BBX 14 14 0 -2
BITMAP
0000
0440
0280
0100
0000
0000
0000
0000
0000
0000
0000
0000
0000
0000
ENDCHAR
STARTCHAR 01-11-63
ENCODING 11103
SWIDTH 960 0
DWIDTH 14 0
BBX 14 14 0 -2
BITMAP
0000
0100
0280
0440
0000
0000
0000
0000
0000
0000
0000
0000
0000
0000
ENDCHAR
STARTCHAR 01-11-64
ENCODING 11104
SWIDTH 960 0
DWIDTH 14 0
BBX 14 14 0 -2
BITMAP
ff00
0100
0100
0100
0100
0100
0100
0100
0100
0100
0100
0100
0100
0100
ENDCHAR
STARTCHAR 01-11-65
ENCODING 11105
SWIDTH 960 0
DWIDTH 14 0
BBX 14 14 0 -2
BITMAP
0100
0100
0100
ff00
0100
0100
0100
0100
0100
0100
0100
0100
0100
0100
ENDCHAR
STARTCHAR 01-11-66
ENCODING 11106
SWIDTH 960 0
DWIDTH 14 0
BBX 14 14 0 -2
BITMAP
0100
0100
0100
0100
0100
0100
0100
ff00
0100
0100
0100
0100
0100
0100
ENDCHAR
STARTCHAR 01-11-67
ENCODING 11107
SWIDTH 960 0
DWIDTH 14 0
BBX 14 14 0 -2
BITMAP
0100
0100
0100
0100
0100
0100
0100
0100
0100
0100
ff00
0100
0100
0100
ENDCHAR
STARTCHAR 01-11-68
ENCODING 11108
SWIDTH 960 0
DWIDTH 14 0
BBX 14 14 0 -2
BITMAP
0100
0100
0100
0100
0100
0100
0100
0100
0100
0100
0100
0100
0100
ff00
ENDCHAR
STARTCHAR 01-11-69
ENCODING 11109
SWIDTH 960 0
DWIDTH 14 0
BBX 14 14 0 -2
BITMAP
0010
0030
0030
0050
0090
0110
0110
0210
0410
0810
0810
1010
2010
4010
ENDCHAR
STARTCHAR 01-11-70
ENCODING 11110
SWIDTH 960 0
DWIDTH 14 0
BBX 14 14 0 -2
BITMAP
4010
2010
1010
0810
0810
0410
0210
0110
0110
0090
0050
0030
0030
0010
ENDCHAR
STARTCHAR 01-11-71
ENCODING 11111
SWIDTH 960 0
DWIDTH 14 0
BBX 14 14 0 -2
BITMAP
0000
0000
0000
0000
0000
0000
0000
0000
0000
0000
0380
0440
0440
0380
ENDCHAR
STARTCHAR 01-11-72
ENCODING 11112
SWIDTH 960 0
DWIDTH 14 0
BBX 14 14 0 -2
BITMAP
0000
0000
0000
0000
0000
0000
0000
0000
0000
0000
0000
0440
0280
0100
ENDCHAR
STARTCHAR 01-11-73
ENCODING 11113
SWIDTH 960 0
DWIDTH 14 0
BBX 14 14 0 -2
BITMAP
0000
0000
0000
0000
0000
0000
0000
0000
0000
0000
0380
0040
0040
0380
ENDCHAR
STARTCHAR 01-11-74
ENCODING 11114
SWIDTH 960 0
DWIDTH 14 0
BBX 14 14 0 -2
BITMAP
0000
0000
0000
0000
0000
0000
0000
0000
0000
0000
0380
0400
0400
0380
ENDCHAR
STARTCHAR 01-11-75
ENCODING 11115
SWIDTH 960 0
DWIDTH 14 0
BBX 14 14 0 -2
BITMAP
0000
0000
0000
0000
0000
0000
0000
0000
0000
0100
0100
0fe0
0100
0100
ENDCHAR
STARTCHAR 01-11-76
ENCODING 11116
SWIDTH 960 0
DWIDTH 14 0
BBX 14 14 0 -2
BITMAP
0000
0000
0000
0000
0000
0000
0000
0000
0000
0000
0000
0fe0
0000
0000
ENDCHAR
STARTCHAR 01-11-77
ENCODING 11117
SWIDTH 960 0
DWIDTH 14 0
BBX 14 14 0 -2
BITMAP
0cc0
0cc0
0000
0000
0000
0000
0000
0000
0000
0000
0000
0000
0000
0000
ENDCHAR
STARTCHAR 01-11-78
ENCODING 11118
SWIDTH 960 0
DWIDTH 14 0
BBX 14 14 0 -2
BITMAP
0480
0300
0480
0000
0000
0000
0000
0000
0000
0000
0000
0000
0000
0000
ENDCHAR
STARTCHAR 01-11-79
ENCODING 11119
SWIDTH 960 0
DWIDTH 14 0
BBX 14 14 0 -2
BITMAP
0000
0000
0000
0000
0000
0000
0000
0000
0000
0000
0100
0100
0100
0100
ENDCHAR
STARTCHAR 01-11-80
ENCODING 11120
SWIDTH 960 0
DWIDTH 14 0
BBX 14 14 0 -2
BITMAP
0000
0000
0000
0000
0000
0000
0000
0000
0000
0300
0480
0840
0840
0000
ENDCHAR
STARTCHAR 01-11-81
ENCODING 11121
SWIDTH 960 0
DWIDTH 14 0
BBX 14 14 0 -2
BITMAP
0000
0000
0000
0000
0000
0000
1c00
0480
0480
0300
0000
0000
0000
0000
ENDCHAR
STARTCHAR 01-11-82
ENCODING 11122
SWIDTH 960 0
DWIDTH 14 0
BBX 14 14 0 -2
BITMAP
0000
0000
0000
0000
0000
0000
0000
0000
0000
0000
0000
0000
0cc0
0cc0
ENDCHAR
STARTCHAR 01-11-83
ENCODING 11123
SWIDTH 960 0
DWIDTH 14 0
BBX 14 14 0 -2
BITMAP
0000
0000
0000
0000
0000
0000
0000
0000
0000
0000
0000
0000
0640
0980
ENDCHAR
STARTCHAR 01-11-84
ENCODING 11124
SWIDTH 960 0
DWIDTH 14 0
BBX 14 14 0 -2
BITMAP
0000
0000
0000
0000
0000
0000
0000
0000
0000
0000
0000
0000
0cc0
1320
ENDCHAR
STARTCHAR 01-11-85
ENCODING 11125
SWIDTH 960 0
DWIDTH 14 0
BBX 14 14 0 -2
BITMAP
0000
0000
0000
0000
0000
0000
0640
0980
0000
0000
0000
0000
0000
0000
ENDCHAR
STARTCHAR 01-11-86
ENCODING 11126
SWIDTH 960 0
DWIDTH 14 0
BBX 14 14 0 -2
BITMAP
0000
0000
0000
0000
0000
0000
0000
0000
0000
0100
0100
0fe0
0000
0000
ENDCHAR
STARTCHAR 01-11-87
ENCODING 11127
SWIDTH 960 0
DWIDTH 14 0
BBX 14 14 0 -2
BITMAP
0000
0000
0000
0000
0000
0000
0000
0000
0000
0000
0000
0fe0
0100
0100
ENDCHAR
STARTCHAR 01-11-88
ENCODING 11128
SWIDTH 960 0
DWIDTH 14 0
BBX 14 14 0 -2
BITMAP
0000
0000
0000
0000
0000
0000
0000
0000
0000
0100
0100
0f00
0100
0100
ENDCHAR
STARTCHAR 01-11-89
ENCODING 11129
SWIDTH 960 0
DWIDTH 14 0
BBX 14 14 0 -2
BITMAP
0000
0000
0000
0000
0000
0000
0000
0000
0000
0100
0100
01e0
0100
0100
ENDCHAR
STARTCHAR 01-11-90
ENCODING 11130
SWIDTH 960 0
DWIDTH 14 0
BBX 14 14 0 -2
BITMAP
0000
0000
0000
0000
0000
0000
0000
0000
0000
0000
0fe0
0820
0820
0000
ENDCHAR
STARTCHAR 01-11-91
ENCODING 11131
SWIDTH 960 0
DWIDTH 14 0
BBX 14 14 0 -2
BITMAP
0000
0000
0000
0000
0000
0000
0000
0000
0000
0000
0820
0820
0fe0
0000
ENDCHAR
STARTCHAR 01-11-92
ENCODING 11132
SWIDTH 960 0
DWIDTH 14 0
BBX 14 14 0 -2
BITMAP
0000
0000
0000
0000
0000
0000
0000
0000
0000
0000
0fe0
0820
0fe0
0000
ENDCHAR
STARTCHAR 01-11-93
ENCODING 11133
SWIDTH 960 0
DWIDTH 14 0
BBX 14 14 0 -2
BITMAP
0000
0640
0980
0000
0000
0000
0000
0000
0000
0000
0000
0000
0000
0000
ENDCHAR
STARTCHAR 01-11-94
ENCODING 11134
SWIDTH 960 0
DWIDTH 14 0
BBX 14 14 0 -2
BITMAP
0000
00e0
0020
0020
0000
0000
0000
0000
0000
0000
0000
0000
0000
0000
ENDCHAR
STARTCHAR 01-12-01
ENCODING 11297
SWIDTH 960 0
DWIDTH 14 0
BBX 14 14 0 -2
BITMAP
0780
1fe0
3ef0
7cf8
70f8
fcfc
fcfc
fcfc
fcfc
7cf8
7cf8
3030
1fe0
0780
ENDCHAR
STARTCHAR 01-12-02
ENCODING 11298
SWIDTH 960 0
DWIDTH 14 0
BBX 14 14 0 -2
BITMAP
0780
1fe0
3070
6738
6738
ff3c
fe7c
fcfc
f9fc
77d8
7038
2030
1fe0
0780
ENDCHAR
STARTCHAR 01-12-03
ENCODING 11299
SWIDTH 960 0
DWIDTH 14 0
BBX 14 14 0 -2
BITMAP
0780
1fe0
3070
6738
6738
ff3c
fc7c
f73c
e33c
6738
7738
3870
1fe0
0780
ENDCHAR
STARTCHAR 01-12-04
ENCODING 11300
SWIDTH 960 0
DWIDTH 14 0
BBX 14 14 0 -2
BITMAP
0780
1fe0
3cf0
78f8
70f8
f4fc
e4fc
ecfc
e03c
7cf8
7cf8
3870
1fe0
0780
ENDCHAR
STARTCHAR 01-12-05
ENCODING 11301
SWIDTH 960 0
DWIDTH 14 0
BBX 14 14 0 -2
BITMAP
0780
1fe0
3030
7078
77f8
f7fc
f07c
ff3c
ff3c
6738
6738
3070
1fe0
0780
ENDCHAR
STARTCHAR 01-12-06
ENCODING 11302
SWIDTH 960 0
DWIDTH 14 0
BBX 14 14 0 -2
BITMAP
0780
1fe0
3870
7738
6738
e7fc
e07c
e73c
e73c
6738
6738
3070
1fe0
0780
ENDCHAR
STARTCHAR 01-12-07
ENCODING 11303
SWIDTH 960 0
DWIDTH 14 0
BBX 14 14 0 -2
BITMAP
0780
1fe0
3030
7078
6778
ff7c
fefc
fefc
fcfc
7cfc
7cf8
3cf0
1fe0
0780
ENDCHAR
STARTCHAR 01-12-08
ENCODING 11304
SWIDTH 960 0
DWIDTH 14 0
BBX 14 14 0 -2
BITMAP
0780
1fe0
3070
6738
6738
e33c
f07c
e63c
e73c
6738
6738
3070
1fe0
0780
ENDCHAR
STARTCHAR 01-12-09
ENCODING 11305
SWIDTH 960 0
DWIDTH 14 0
BBX 14 14 0 -2
BITMAP
0780
1fe0
3070
6738
6738
e73c
e73c
f03c
ff3c
6738
6778
30f0
1fe0
0780
ENDCHAR
STARTCHAR 01-12-10
ENCODING 11306
SWIDTH 960 0
DWIDTH 14 0
BBX 14 14 0 -2
BITMAP
0780
1fe0
3630
6498
4498
e49c
e49c
e49c
e49c
6498
6498
2230
1fe0
0780
ENDCHAR
STARTCHAR 01-12-11
ENCODING 11307
SWIDTH 960 0
DWIDTH 14 0
BBX 14 14 0 -2
BITMAP
0780
1fe0
37b0
6738
4638
e73c
e73c
e73c
e73c
6738
6738
2210
1fe0
0780
ENDCHAR
STARTCHAR 01-12-12
ENCODING 11308
SWIDTH 960 0
DWIDTH 14 0
BBX 14 14 0 -2
BITMAP
0780
1fe0
3610
64c8
44c8
e7cc
e79c
e73c
e77c
6678
6608
2010
1fe0
0780
ENDCHAR
STARTCHAR 01-12-13
ENCODING 11309
SWIDTH 960 0
DWIDTH 14 0
BBX 14 14 0 -2
BITMAP
0780
1fe0
3610
64c8
44c8
e7cc
e71c
e7cc
e4cc
64c8
65c8
2210
1fe0
0780
ENDCHAR
STARTCHAR 01-12-14
ENCODING 11310
SWIDTH 960 0
DWIDTH 14 0
BBX 14 14 0 -2
BITMAP
0780
1fe0
3790
6718
4618
e69c
e49c
e59c
e40c
6798
6798
2310
1fe0
0780
ENDCHAR
STARTCHAR 01-12-15
ENCODING 11311
SWIDTH 960 0
DWIDTH 14 0
BBX 14 14 0 -2
BITMAP
0780
1fe0
3610
6618
46f8
e6fc
e61c
e7cc
e7cc
64c8
64c8
2210
1fe0
0780
ENDCHAR
STARTCHAR 01-12-16
ENCODING 11312
SWIDTH 960 0
DWIDTH 14 0
BBX 14 14 0 -2
BITMAP
0780
1fe0
3610
64c8
44c8
e4fc
e41c
e4cc
e4cc
64c8
64c8
2210
1fe0
0780
ENDCHAR
STARTCHAR 01-12-17
ENCODING 11313
SWIDTH 960 0
DWIDTH 14 0
BBX 14 14 0 -2
BITMAP
0780
1fe0
3610
6608
44d8
e7dc
e7bc
e7bc
e73c
6738
6738
2330
1fe0
0780
ENDCHAR
STARTCHAR 01-12-18
ENCODING 11314
SWIDTH 960 0
DWIDTH 14 0
BBX 14 14 0 -2
BITMAP
0780
1fe0
3610
64c8
44e8
e46c
e61c
e58c
e5cc
65c8
64c8
2210
1fe0
0780
ENDCHAR
STARTCHAR 01-12-19
ENCODING 11315
SWIDTH 960 0
DWIDTH 14 0
BBX 14 14 0 -2
BITMAP
0780
1fe0
3610
64c8
44c8
e4cc
e4cc
e60c
e7cc
64c8
64c8
2210
1fe0
0780
ENDCHAR
STARTCHAR 01-12-20
ENCODING 11316
SWIDTH 960 0
DWIDTH 14 0
BBX 14 14 0 -2
BITMAP
0780
1fe0
2310
4a48
4848
f84c
f24c
f64c
e64c
4e48
4048
2110
1fe0
0780
ENDCHAR
STARTCHAR 01-12-21
ENCODING 11317
SWIDTH 960 0
DWIDTH 14 0
BBX 14 14 0 -2
BITMAP
0000
0100
0380
0100
0000
0f00
0300
0300
0300
0300
0300
0fc0
0000
0000
ENDCHAR
STARTCHAR 01-12-22
ENCODING 11318
SWIDTH 960 0
DWIDTH 14 0
BBX 14 14 0 -2
BITMAP
0000
0840
1ce0
0840
0000
3de0
0c60
0c60
0c60
0c60
0c60
3ff0
0000
0000
ENDCHAR
STARTCHAR 01-12-23
ENCODING 11319
SWIDTH 960 0
DWIDTH 14 0
BBX 14 14 0 -2
BITMAP
0000
1110
3bb8
1110
0000
7770
3330
3330
3330
3330
3330
7ffc
0000
0000
ENDCHAR
STARTCHAR 01-12-24
ENCODING 11320
SWIDTH 960 0
DWIDTH 14 0
BBX 14 14 0 -2
BITMAP
0000
0800
1c00
0800
07b8
7a10
1b10
1b20
19a0
19a0
18c0
7cc0
0000
0000
ENDCHAR
STARTCHAR 01-12-25
ENCODING 11321
SWIDTH 960 0
DWIDTH 14 0
BBX 14 14 0 -2
BITMAP
0000
0000
0000
0000
3e70
1820
0c40
0c40
0680
0680
0300
0300
0000
0000
ENDCHAR
STARTCHAR 01-12-26
ENCODING 11322
SWIDTH 960 0
DWIDTH 14 0
BBX 14 14 0 -2
BITMAP
0000
0010
0038
0010
7b80
2170
3130
3230
1a30
1a30
0c30
0cf8
0000
0000
ENDCHAR
STARTCHAR 01-12-27
ENCODING 11323
SWIDTH 960 0
DWIDTH 14 0
BBX 14 14 0 -2
BITMAP
0000
0090
01f8
0090
7700
22f8
32d8
34d8
34d8
18d8
18d8
19f8
0000
0000
ENDCHAR
STARTCHAR 01-12-28
ENCODING 11324
SWIDTH 960 0
DWIDTH 14 0
BBX 14 14 0 -2
BITMAP
0000
0150
03f8
0150
ee00
45f0
6550
6950
6950
3150
3150
33f8
0000
0000
ENDCHAR
STARTCHAR 01-12-29
ENCODING 11325
SWIDTH 960 0
DWIDTH 14 0
BBX 14 14 0 -2
BITMAP
0000
1000
3800
1000
0f38
7610
3320
31c0
31c0
3260
3430
7e78
0000
0000
ENDCHAR
STARTCHAR 01-12-30
ENCODING 11326
SWIDTH 960 0
DWIDTH 14 0
BBX 14 14 0 -2
BITMAP
0000
0000
0000
0000
1e70
0c20
0640
0380
0380
04c0
0860
1cf0
0000
0000
ENDCHAR
STARTCHAR 01-12-31
ENCODING 11327
SWIDTH 960 0
DWIDTH 14 0
BBX 14 14 0 -2
BITMAP
0000
0010
0038
0010
79c0
30b0
1930
0e30
0e30
1330
21b0
73f8
0000
0000
ENDCHAR
STARTCHAR 01-12-32
ENCODING 11328
SWIDTH 960 0
DWIDTH 14 0
BBX 14 14 0 -2
BITMAP
0000
0090
01f8
0090
7b00
32f8
34d8
18d8
1cd8
2ed8
26d8
77f8
0000
0000
ENDCHAR
STARTCHAR 01-12-33
ENCODING 11329
SWIDTH 960 0
DWIDTH 14 0
BBX 14 14 0 -2
BITMAP
0780
1860
2010
4008
4f88
98c4
80c4
8fc4
98c4
58c8
4f28
2010
1860
0780
ENDCHAR
STARTCHAR 01-12-34
ENCODING 11330
SWIDTH 960 0
DWIDTH 14 0
BBX 14 14 0 -2
BITMAP
0780
1860
3c10
4c08
4d88
8e44
8c64
8c64
8c64
4e48
5d88
2010
1860
0780
ENDCHAR
STARTCHAR 01-12-35
ENCODING 11331
SWIDTH 960 0
DWIDTH 14 0
BBX 14 14 0 -2
BITMAP
0780
1860
2010
4008
4388
8c64
9824
9804
9824
4c68
4388
2010
1860
0780
ENDCHAR
STARTCHAR 01-12-36
ENCODING 11332
SWIDTH 960 0
DWIDTH 14 0
BBX 14 14 0 -2
BITMAP
0780
1860
21d0
40c8
46c8
89c4
98c4
98c4
98c4
49c8
46e8
2010
1860
0780
ENDCHAR
STARTCHAR 01-12-37
ENCODING 11333
SWIDTH 960 0
DWIDTH 14 0
BBX 14 14 0 -2
BITMAP
0780
1860
2010
4008
4788
8844
9864
9fe4
9804
4c28
43c8
2010
1860
0780
ENDCHAR
STARTCHAR 01-12-38
ENCODING 11334
SWIDTH 960 0
DWIDTH 14 0
BBX 14 14 0 -2
BITMAP
0780
1860
2390
46c8
4608
8f84
8604
8604
8604
4608
4f88
2010
1860
0780
ENDCHAR
STARTCHAR 01-12-39
ENCODING 11335
SWIDTH 960 0
DWIDTH 14 0
BBX 14 14 0 -2
BITMAP
0780
1860
2010
4048
4788
8984
8904
8604
8f84
4bc8
48c8
2790
1860
0780
ENDCHAR
STARTCHAR 01-12-40
ENCODING 11336
SWIDTH 960 0
DWIDTH 14 0
BBX 14 14 0 -2
BITMAP
0780
1860
3c10
4c08
4d88
8ec4
8cc4
8cc4
8cc4
4cc8
5de8
2010
1860
0780
ENDCHAR
STARTCHAR 01-12-41
ENCODING 11337
SWIDTH 960 0
DWIDTH 14 0
BBX 14 14 0 -2
BITMAP
0780
1860
2310
4308
4008
8f04
8304
8304
8304
4308
4fc8
2010
1860
0780
ENDCHAR
STARTCHAR 01-12-42
ENCODING 11338
SWIDTH 960 0
DWIDTH 14 0
BBX 14 14 0 -2
BITMAP
0780
1860
2190
4188
4008
8784
8184
8184
8184
5988
5908
2e10
1860
0780
ENDCHAR
STARTCHAR 01-12-43
ENCODING 11339
SWIDTH 960 0
DWIDTH 14 0
BBX 14 14 0 -2
BITMAP
0780
1860
3c10
4c08
4cc8
8c84
8d04
8f04
8d84
4cc8
5ee8
2010
1860
0780
ENDCHAR
STARTCHAR 01-12-44
ENCODING 11340
SWIDTH 960 0
DWIDTH 14 0
BBX 14 14 0 -2
BITMAP
0780
1860
2f10
4308
4308
8304
8304
8304
8304
4308
4fc8
2010
1860
0780
ENDCHAR
STARTCHAR 01-12-45
ENCODING 11341
SWIDTH 960 0
DWIDTH 14 0
BBX 14 14 0 -2
BITMAP
0780
1860
2010
4008
5b48
9fe4
9b64
9b64
9b64
5b68
5b68
2010
1860
0780
ENDCHAR
STARTCHAR 01-12-46
ENCODING 11342
SWIDTH 960 0
DWIDTH 14 0
BBX 14 14 0 -2
BITMAP
0780
1860
2010
4008
5d08
8e84
8cc4
8cc4
8cc4
4cc8
5ce8
2010
1860
0780
ENDCHAR
STARTCHAR 01-12-47
ENCODING 11343
SWIDTH 960 0
DWIDTH 14 0
BBX 14 14 0 -2
BITMAP
0780
1860
2010
4008
4788
8844
9864
9864
9864
4848
4788
2010
1860
0780
ENDCHAR
STARTCHAR 01-12-48
ENCODING 11344
SWIDTH 960 0
DWIDTH 14 0
BBX 14 14 0 -2
BITMAP
0780
1860
2010
4008
5d88
8e44
8c64
8c64
8e44
4d88
4c08
3e10
1860
0780
ENDCHAR
STARTCHAR 01-12-49
ENCODING 11345
SWIDTH 960 0
DWIDTH 14 0
BBX 14 14 0 -2
BITMAP
0780
1860
2010
4008
46e8
89c4
98c4
98c4
89c4
46c8
40c8
21f0
1860
0780
ENDCHAR
STARTCHAR 01-12-50
ENCODING 11346
SWIDTH 960 0
DWIDTH 14 0
BBX 14 14 0 -2
BITMAP
0780
1860
2010
4008
5dc8
8e64
8c64
8c04
8c04
4c08
5e08
2010
1860
0780
ENDCHAR
STARTCHAR 01-12-51
ENCODING 11347
SWIDTH 960 0
DWIDTH 14 0
BBX 14 14 0 -2
BITMAP
0780
1860
2010
4008
4fc8
9844
9e04
8f84
91e4
5868
57c8
2010
1860
0780
ENDCHAR
STARTCHAR 01-12-52
ENCODING 11348
SWIDTH 960 0
DWIDTH 14 0
BBX 14 14 0 -2
BITMAP
0780
1860
2210
4608
5fc8
8604
8604
8604
8604
4648
4388
2010
1860
0780
ENDCHAR
STARTCHAR 01-12-53
ENCODING 11349
SWIDTH 960 0
DWIDTH 14 0
BBX 14 14 0 -2
BITMAP
0780
1860
2010
4008
5ce8
8c64
8c64
8c64
8c64
4ce8
4728
2010
1860
0780
ENDCHAR
STARTCHAR 01-12-54
ENCODING 11350
SWIDTH 960 0
DWIDTH 14 0
BBX 14 14 0 -2
BITMAP
0780
1860
2010
4008
7ce8
9844
8c44
8c84
8684
4708
4308
2010
1860
0780
ENDCHAR
STARTCHAR 01-12-55
ENCODING 11351
SWIDTH 960 0
DWIDTH 14 0
BBX 14 14 0 -2
BITMAP
0780
1860
2010
4008
7b78
b324
b3a4
9ba4
9dc4
4cc8
4cc8
2010
1860
0780
ENDCHAR
STARTCHAR 01-12-56
ENCODING 11352
SWIDTH 960 0
DWIDTH 14 0
BBX 14 14 0 -2
BITMAP
0780
1860
2010
4008
5ce8
8e44
8684
8304
8584
49c8
5ce8
2010
1860
0780
ENDCHAR
STARTCHAR 01-12-57
ENCODING 11353
SWIDTH 960 0
DWIDTH 14 0
BBX 14 14 0 -2
BITMAP
0780
1860
2010
4008
5ee8
8c44
8644
8684
8384
4108
4d08
2e10
1860
0780
ENDCHAR
STARTCHAR 01-12-58
ENCODING 11354
SWIDTH 960 0
DWIDTH 14 0
BBX 14 14 0 -2
BITMAP
0780
1860
2010
4008
5fe8
90c4
8384
8704
8e04
5828
5fe8
2010
1860
0780
ENDCHAR
STARTCHAR 01-12-59
ENCODING 11355
SWIDTH 960 0
DWIDTH 14 0
BBX 14 14 0 -2
BITMAP
0780
1860
2010
4008
61e8
9e24
8244
8184
8104
4108
4208
2410
1860
0780
ENDCHAR
STARTCHAR 01-12-60
ENCODING 11356
SWIDTH 960 0
DWIDTH 14 0
BBX 14 14 0 -2
BITMAP
0780
1860
2030
4088
4108
8704
b904
8104
8104
4108
4108
2110
1960
0780
ENDCHAR
STARTCHAR 01-12-61
ENCODING 11357
SWIDTH 960 0
DWIDTH 14 0
BBX 14 14 0 -2
BITMAP
0780
1860
2210
4108
41e8
9e24
8824
8844
8044
4088
4108
2210
1860
0780
ENDCHAR
STARTCHAR 01-12-62
ENCODING 11358
SWIDTH 960 0
DWIDTH 14 0
BBX 14 14 0 -2
BITMAP
0780
1860
2010
4008
41c8
9e04
8204
8204
8204
43c8
5c28
2010
1860
0780
ENDCHAR
STARTCHAR 01-12-63
ENCODING 11359
SWIDTH 960 0
DWIDTH 14 0
BBX 14 14 0 -2
BITMAP
0780
1860
2110
4088
50e8
8f84
8184
8284
8484
4888
5188
2090
1860
0780
ENDCHAR
STARTCHAR 01-12-64
ENCODING 11360
SWIDTH 960 0
DWIDTH 14 0
BBX 14 14 0 -2
BITMAP
0780
1860
2210
4108
51e8
8f24
8224
8424
8424
4848
5148
2090
1860
0780
ENDCHAR
STARTCHAR 01-12-65
ENCODING 11361
SWIDTH 960 0
DWIDTH 14 0
BBX 14 14 0 -2
BITMAP
0780
1860
2010
4408
42c8
8704
9a04
8164
8784
5908
4108
2090
18e0
0780
ENDCHAR
STARTCHAR 01-12-66
ENCODING 11362
SWIDTH 960 0
DWIDTH 14 0
BBX 14 14 0 -2
BITMAP
0780
1860
2410
4208
43e8
8224
8424
8844
8044
4088
4108
2610
1c60
0780
ENDCHAR
STARTCHAR 01-12-67
ENCODING 11363
SWIDTH 960 0
DWIDTH 14 0
BBX 14 14 0 -2
BITMAP
0780
1860
2810
4408
4468
8f84
8904
9084
8084
4088
4108
2110
1a60
0780
ENDCHAR
STARTCHAR 01-12-68
ENCODING 11364
SWIDTH 960 0
DWIDTH 14 0
BBX 14 14 0 -2
BITMAP
0780
1860
2010
4008
51e8
8e24
8024
8024
8044
4048
43c8
2c50
1860
0780
ENDCHAR
STARTCHAR 01-12-69
ENCODING 11365
SWIDTH 960 0
DWIDTH 14 0
BBX 14 14 0 -2
BITMAP
0780
1860
2110
4888
4488
94e4
8f84
8484
8484
4088
4108
2110
1a60
0780
ENDCHAR
STARTCHAR 01-12-70
ENCODING 11366
SWIDTH 960 0
DWIDTH 14 0
BBX 14 14 0 -2
BITMAP
0780
1860
2010
4608
4108
8c04
8204
8024
8024
4048
4988
2610
1860
0780
ENDCHAR
STARTCHAR 01-12-71
ENCODING 11367
SWIDTH 960 0
DWIDTH 14 0
BBX 14 14 0 -2
BITMAP
0780
1860
2010
51c8
4e48
8084
8084
8104
8184
4248
4428
3830
1860
0780
ENDCHAR
STARTCHAR 01-12-72
ENCODING 11368
SWIDTH 960 0
DWIDTH 14 0
BBX 14 14 0 -2
BITMAP
0780
1860
2010
5008
48e8
8b24
8c44
9884
8804
4808
4468
2390
1860
0780
ENDCHAR
STARTCHAR 01-12-73
ENCODING 11369
SWIDTH 960 0
DWIDTH 14 0
BBX 14 14 0 -2
BITMAP
0780
1860
2010
4048
5028
8824
8824
8044
8044
4088
4108
2210
1c60
0780
ENDCHAR
STARTCHAR 01-12-74
ENCODING 11370
SWIDTH 960 0
DWIDTH 14 0
BBX 14 14 0 -2
BITMAP
0780
1860
2210
4108
41e8
8224
8624
8944
80c4
4088
4108
2610
1c60
0780
ENDCHAR
STARTCHAR 01-12-75
ENCODING 11371
SWIDTH 960 0
DWIDTH 14 0
BBX 14 14 0 -2
BITMAP
0780
1860
2010
4188
4e08
8104
a3f4
9c84
8084
4088
4108
2110
1a60
0780
ENDCHAR
STARTCHAR 01-12-76
ENCODING 11372
SWIDTH 960 0
DWIDTH 14 0
BBX 14 14 0 -2
BITMAP
0780
1860
2010
4008
4448
9224
8a24
8844
8044
4048
4088
2110
1a60
0780
ENDCHAR
STARTCHAR 01-12-77
ENCODING 11373
SWIDTH 960 0
DWIDTH 14 0
BBX 14 14 0 -2
BITMAP
0780
1860
2010
49c8
4608
8064
9384
8c84
8084
4108
4108
2210
1c60
0780
ENDCHAR
STARTCHAR 01-12-78
ENCODING 11374
SWIDTH 960 0
DWIDTH 14 0
BBX 14 14 0 -2
BITMAP
0780
1860
2010
4808
4408
8404
8604
8584
8444
4408
4408
2410
1c60
0780
ENDCHAR
STARTCHAR 01-12-79
ENCODING 11375
SWIDTH 960 0
DWIDTH 14 0
BBX 14 14 0 -2
BITMAP
0780
1860
2010
4008
61e8
9e24
9024
9044
9044
49c8
4e28
2810
1860
0780
ENDCHAR
STARTCHAR 01-12-80
ENCODING 11376
SWIDTH 960 0
DWIDTH 14 0
BBX 14 14 0 -2
BITMAP
0780
1860
2010
4008
4888
8444
8444
8424
8824
4828
5028
2010
1860
0780
ENDCHAR
STARTCHAR 01-12-81
ENCODING 11377
SWIDTH 960 0
DWIDTH 14 0
BBX 14 14 0 -2
BITMAP
0780
1860
2010
4008
4388
8c04
8004
8004
8004
43c8
7c28
2010
1860
0780
ENDCHAR
STARTCHAR 01-12-82
ENCODING 11378
SWIDTH 960 0
DWIDTH 14 0
BBX 14 14 0 -2
BITMAP
0780
1860
2210
4108
51e8
8f04
8104
8144
8924
4928
5128
2310
1960
0780
ENDCHAR
STARTCHAR 01-12-83
ENCODING 11379
SWIDTH 960 0
DWIDTH 14 0
BBX 14 14 0 -2
BITMAP
0780
1860
2010
4008
4408
8404
8a04
8904
9084
4068
4008
2010
1860
0780
ENDCHAR
STARTCHAR 01-12-93
ENCODING 11389
SWIDTH 960 0
DWIDTH 14 0
BBX 14 14 0 -2
BITMAP
0100
1bb0
0d60
0380
0d60
1bb0
0100
0100
1bb0
0d60
0380
0d60
1bb0
0100
ENDCHAR
STARTCHAR 01-12-94
ENCODING 11390
SWIDTH 960 0
DWIDTH 14 0
BBX 14 14 0 -2
BITMAP
0100
1bb0
0d60
0380
0d60
1bb0
0100
0820
5d74
6aac
1c70
6aac
5d74
0820
ENDCHAR
STARTCHAR 01-13-01
ENCODING 11553
SWIDTH 960 0
DWIDTH 14 0
BBX 14 14 0 -2
BITMAP
0780
1860
2110
4308
4f08
8304
8304
8304
8304
4308
4fc8
2010
1860
0780
ENDCHAR
STARTCHAR 01-13-02
ENCODING 11554
SWIDTH 960 0
DWIDTH 14 0
BBX 14 14 0 -2
BITMAP
0780
1860
2390
4cc8
4cc8
8084
8104
8204
8424
47c8
4fc8
2010
1860
0780
ENDCHAR
STARTCHAR 01-13-03
ENCODING 11555
SWIDTH 960 0
DWIDTH 14 0
BBX 14 14 0 -2
BITMAP
0780
1860
2390
4cc8
4cc8
80c4
8384
80c4
8cc4
4cc8
4308
2010
1860
0780
ENDCHAR
STARTCHAR 01-13-04
ENCODING 11556
SWIDTH 960 0
DWIDTH 14 0
BBX 14 14 0 -2
BITMAP
0780
1860
2190
4388
4588
8584
8984
9984
9fc4
4188
43c8
2010
1860
0780
ENDCHAR
STARTCHAR 01-13-05
ENCODING 11557
SWIDTH 960 0
DWIDTH 14 0
BBX 14 14 0 -2
BITMAP
0780
1860
2f90
4f08
4808
8f84
80c4
80c4
8cc4
4cc8
4708
2010
1860
0780
ENDCHAR
STARTCHAR 01-13-06
ENCODING 11558
SWIDTH 960 0
DWIDTH 14 0
BBX 14 14 0 -2
BITMAP
0780
1860
2390
44c8
4cc8
8c04
8f84
8cc4
8cc4
4cc8
4308
2010
1860
0780
ENDCHAR
STARTCHAR 01-13-07
ENCODING 11559
SWIDTH 960 0
DWIDTH 14 0
BBX 14 14 0 -2
BITMAP
0780
1860
27d0
4788
4888
8884
8104
8104
8304
4308
4308
2010
1860
0780
ENDCHAR
STARTCHAR 01-13-08
ENCODING 11560
SWIDTH 960 0
DWIDTH 14 0
BBX 14 14 0 -2
BITMAP
0780
1860
2310
4cc8
4cc8
8cc4
8784
8cc4
8cc4
4cc8
4308
2010
1860
0780
ENDCHAR
STARTCHAR 01-13-09
ENCODING 11561
SWIDTH 960 0
DWIDTH 14 0
BBX 14 14 0 -2
BITMAP
0780
1860
2310
4cc8
4cc8
8cc4
83c4
80c4
8cc4
4c88
4308
2010
1860
0780
ENDCHAR
STARTCHAR 01-13-10
ENCODING 11562
SWIDTH 960 0
DWIDTH 14 0
BBX 14 14 0 -2
BITMAP
0780
1860
2990
5b68
7a68
8a64
8a64
8a64
8a64
4b68
7d88
2010
1860
0780
ENDCHAR
STARTCHAR 01-13-11
ENCODING 11563
SWIDTH 960 0
DWIDTH 14 0
BBX 14 14 0 -2
BITMAP
0780
1860
2850
58c8
79c8
8844
8844
8844
8844
4848
7de8
2010
1860
0780
ENDCHAR
STARTCHAR 01-13-12
ENCODING 11564
SWIDTH 960 0
DWIDTH 14 0
BBX 14 14 0 -2
BITMAP
0780
1860
28d0
5b68
7b68
8864
8844
8884
8914
4be8
7fe8
2010
1860
0780
ENDCHAR
STARTCHAR 01-13-13
ENCODING 11565
SWIDTH 960 0
DWIDTH 14 0
BBX 14 14 0 -2
BITMAP
0780
1860
28d0
5b68
7b68
8864
88c4
8864
8b64
4b68
7dc8
2010
1860
0780
ENDCHAR
STARTCHAR 01-13-14
ENCODING 11566
SWIDTH 960 0
DWIDTH 14 0
BBX 14 14 0 -2
BITMAP
0780
1860
28d0
5968
7968
8a64
8a64
8bf4
8864
4868
7ce8
2010
1860
0780
ENDCHAR
STARTCHAR 01-13-15
ENCODING 11567
SWIDTH 960 0
DWIDTH 14 0
BBX 14 14 0 -2
BITMAP
0780
1860
2bf0
5bc8
7a08
8bc4
8864
8864
8b64
4b68
7dc8
2010
1860
0780
ENDCHAR
STARTCHAR 01-13-16
ENCODING 11568
SWIDTH 960 0
DWIDTH 14 0
BBX 14 14 0 -2
BITMAP
0780
1860
28d0
5b68
7b68
8b04
8bc4
8b64
8b64
4b68
7cc8
2010
1860
0780
ENDCHAR
STARTCHAR 01-13-17
ENCODING 11569
SWIDTH 960 0
DWIDTH 14 0
BBX 14 14 0 -2
BITMAP
0780
1860
2bf0
5bc8
7c48
8884
8884
8984
8984
4988
7d88
2010
1860
0780
ENDCHAR
STARTCHAR 01-13-18
ENCODING 11570
SWIDTH 960 0
DWIDTH 14 0
BBX 14 14 0 -2
BITMAP
0780
1860
2890
5b68
7b68
8b64
89c4
8b64
8b64
4b68
7c88
2010
1860
0780
ENDCHAR
STARTCHAR 01-13-19
ENCODING 11571
SWIDTH 960 0
DWIDTH 14 0
BBX 14 14 0 -2
BITMAP
0780
1860
2990
5b68
7b68
8b64
89e4
8864
8b64
4b68
7d88
2010
1860
0780
ENDCHAR
STARTCHAR 01-13-20
ENCODING 11572
SWIDTH 960 0
DWIDTH 14 0
BBX 14 14 0 -2
BITMAP
0780
1860
2cd0
7768
7768
9564
8564
8964
9164
5f68
7cc8
2010
1860
0780
ENDCHAR
STARTCHAR 01-13-21
ENCODING 11573
SWIDTH 960 0
DWIDTH 14 0
BBX 14 14 0 -2
BITMAP
0000
0fc0
0300
0300
0300
0300
0300
0300
0300
0300
0300
0fc0
0000
0000
ENDCHAR
STARTCHAR 01-13-22
ENCODING 11574
SWIDTH 960 0
DWIDTH 14 0
BBX 14 14 0 -2
BITMAP
0000
3ff0
0cc0
0cc0
0cc0
0cc0
0cc0
0cc0
0cc0
0cc0
0cc0
3ff0
0000
0000
ENDCHAR
STARTCHAR 01-13-23
ENCODING 11575
SWIDTH 960 0
DWIDTH 14 0
BBX 14 14 0 -2
BITMAP
0000
7ff8
3330
3330
3330
3330
3330
3330
3330
3330
3330
7ff8
0000
0000
ENDCHAR
STARTCHAR 01-13-24
ENCODING 11576
SWIDTH 960 0
DWIDTH 14 0
BBX 14 14 0 -2
BITMAP
0000
7f38
3610
3610
3320
3320
3320
3140
31c0
3180
3080
7880
0000
0000
ENDCHAR
STARTCHAR 01-13-25
ENCODING 11577
SWIDTH 960 0
DWIDTH 14 0
BBX 14 14 0 -2
BITMAP
0000
3c38
1810
1810
0c20
0c20
0640
0640
0380
0380
0100
0100
0000
0000
ENDCHAR
STARTCHAR 01-13-26
ENCODING 11578
SWIDTH 960 0
DWIDTH 14 0
BBX 14 14 0 -2
BITMAP
0000
79f8
30b0
30b0
1930
1930
1930
0a30
0e30
0c30
0430
0478
0000
0000
ENDCHAR
STARTCHAR 01-13-27
ENCODING 11579
SWIDTH 960 0
DWIDTH 14 0
BBX 14 14 0 -2
BITMAP
0000
f7fc
62d8
62d8
64d8
64d8
34d8
38d8
38d8
10d8
10d8
11fc
0000
0000
ENDCHAR
STARTCHAR 01-13-28
ENCODING 11580
SWIDTH 960 0
DWIDTH 14 0
BBX 14 14 0 -2
BITMAP
0000
f7fc
62a8
62a8
64a8
64a8
34a8
38a8
38a8
10a8
10a8
11fc
0000
0000
ENDCHAR
STARTCHAR 01-13-29
ENCODING 11581
SWIDTH 960 0
DWIDTH 14 0
BBX 14 14 0 -2
BITMAP
0000
ff9c
3188
3098
30d0
3060
3060
3060
30b0
3090
3118
ff9c
0000
0000
ENDCHAR
STARTCHAR 01-13-30
ENCODING 11582
SWIDTH 960 0
DWIDTH 14 0
BBX 14 14 0 -2
BITMAP
0000
3c78
1820
0c40
0680
0300
0300
0380
04c0
0860
1030
3878
0000
0000
ENDCHAR
STARTCHAR 01-13-31
ENCODING 11583
SWIDTH 960 0
DWIDTH 14 0
BBX 14 14 0 -2
BITMAP
0000
f3fc
3130
1330
1a30
0c30
0c30
0c30
1630
1230
2330
f3fc
0000
0000
ENDCHAR
STARTCHAR 01-13-32
ENCODING 11584
SWIDTH 960 0
DWIDTH 14 0
BBX 14 14 0 -2
BITMAP
0000
3800
0400
3800
0400
7010
0c88
0088
0088
0088
0048
0008
0010
0020
ENDCHAR
STARTCHAR 01-13-33
ENCODING 11585
SWIDTH 960 0
DWIDTH 14 0
BBX 14 14 0 -2
BITMAP
0000
2400
1800
7000
0a00
1c00
6838
04c8
0488
0088
0088
00b8
00c8
0000
ENDCHAR
STARTCHAR 01-13-34
ENCODING 11586
SWIDTH 960 0
DWIDTH 14 0
BBX 14 14 0 -2
BITMAP
4000
2ec4
3224
6408
2008
2050
1e20
0600
3800
0f00
7800
0800
1000
2000
ENDCHAR
STARTCHAR 01-13-35
ENCODING 11587
SWIDTH 960 0
DWIDTH 14 0
BBX 14 14 0 -2
BITMAP
0800
0400
3480
087c
0c00
3200
4000
2020
1090
1050
1854
1654
1058
1090
ENDCHAR
STARTCHAR 01-13-36
ENCODING 11588
SWIDTH 960 0
DWIDTH 14 0
BBX 14 14 0 -2
BITMAP
2548
3d30
288c
4874
0804
1008
2030
2000
1000
1000
2400
2200
4e00
3200
ENDCHAR
STARTCHAR 01-13-37
ENCODING 11589
SWIDTH 960 0
DWIDTH 14 0
BBX 14 14 0 -2
BITMAP
0000
4000
2000
2000
3000
2c00
2000
2180
2048
0008
0010
0010
00a0
0040
ENDCHAR
STARTCHAR 01-13-38
ENCODING 11590
SWIDTH 960 0
DWIDTH 14 0
BBX 14 14 0 -2
BITMAP
0000
4e00
3280
0c7c
0800
1000
2000
1000
4800
2800
2a00
2a00
2c00
4800
ENDCHAR
STARTCHAR 01-13-39
ENCODING 11591
SWIDTH 960 0
DWIDTH 14 0
BBX 14 14 0 -2
BITMAP
0020
1038
1048
2888
4410
0220
0040
2020
3890
4c50
abd4
1054
2058
4090
ENDCHAR
STARTCHAR 01-13-40
ENCODING 11592
SWIDTH 960 0
DWIDTH 14 0
BBX 14 14 0 -2
BITMAP
0800
2400
2448
2424
0484
0848
1010
2020
1090
1050
1854
1654
1058
1090
ENDCHAR
STARTCHAR 01-13-41
ENCODING 11593
SWIDTH 960 0
DWIDTH 14 0
BBX 14 14 0 -2
BITMAP
4e00
3200
2248
2424
0484
0848
1010
2000
1000
1000
1800
1600
1000
1000
ENDCHAR
STARTCHAR 01-13-42
ENCODING 11594
SWIDTH 960 0
DWIDTH 14 0
BBX 14 14 0 -2
BITMAP
1000
4e9c
3264
1244
224c
4474
0c00
0800
2400
2480
247c
0400
0800
1000
ENDCHAR
STARTCHAR 01-13-43
ENCODING 11595
SWIDTH 960 0
DWIDTH 14 0
BBX 14 14 0 -2
BITMAP
0a00
4500
2500
2000
3000
2c00
2040
2120
20a0
00a4
00a4
0128
0130
0220
ENDCHAR
STARTCHAR 01-13-44
ENCODING 11596
SWIDTH 960 0
DWIDTH 14 0
BBX 14 14 0 -2
BITMAP
4000
2ec4
3224
6408
2008
2050
1e20
2000
1000
1000
1800
1600
1000
1000
ENDCHAR
STARTCHAR 01-13-45
ENCODING 11597
SWIDTH 960 0
DWIDTH 14 0
BBX 14 14 0 -2
BITMAP
0200
2500
9580
527c
4800
8800
0000
8020
5c50
6b50
c858
5054
4490
3b10
ENDCHAR
STARTCHAR 01-13-46
ENCODING 11598
SWIDTH 960 0
DWIDTH 14 0
BBX 14 14 0 -2
BITMAP
3810
0448
3848
0448
7008
0c10
0020
1420
1490
2450
93d4
5054
4858
8890
ENDCHAR
STARTCHAR 01-13-47
ENCODING 11599
SWIDTH 960 0
DWIDTH 14 0
BBX 14 14 0 -2
BITMAP
0200
1500
1580
2a7c
4400
0200
0000
3280
0a80
6000
1200
0400
2800
1000
ENDCHAR
STARTCHAR 01-13-48
ENCODING 11600
SWIDTH 960 0
DWIDTH 14 0
BBX 14 14 0 -2
BITMAP
0000
0000
0000
0000
75d0
2aa8
2aa8
2aa8
2aa8
2aa8
2aa8
6aac
0000
0000
ENDCHAR
STARTCHAR 01-13-49
ENCODING 11601
SWIDTH 960 0
DWIDTH 14 0
BBX 14 14 0 -2
BITMAP
0000
0000
0000
0000
1dd0
26a8
62a8
60a8
60a8
62a8
24a8
19ac
0000
0000
ENDCHAR
STARTCHAR 01-13-50
ENCODING 11602
SWIDTH 960 0
DWIDTH 14 0
BBX 14 14 0 -2
BITMAP
0000
6000
2000
2000
2fd0
24a8
28a8
38a8
3ca8
2ea8
26a8
77ac
0000
0000
ENDCHAR
STARTCHAR 01-13-51
ENCODING 11603
SWIDTH 960 0
DWIDTH 14 0
BBX 14 14 0 -2
BITMAP
0000
0000
0000
0000
746c
2ad4
2a90
2ad0
2a60
2ac0
2ab8
6b8c
008c
0078
ENDCHAR
STARTCHAR 01-13-52
ENCODING 11604
SWIDTH 960 0
DWIDTH 14 0
BBX 14 14 0 -2
BITMAP
0000
6000
2000
2000
2e6c
24d4
2890
38d0
3c60
2ec0
26b8
778c
008c
0078
ENDCHAR
STARTCHAR 01-13-53
ENCODING 11605
SWIDTH 960 0
DWIDTH 14 0
BBX 14 14 0 -2
BITMAP
0000
0000
0000
0000
0c70
1698
3388
3180
3180
3188
1290
0c60
0000
0000
ENDCHAR
STARTCHAR 01-13-54
ENCODING 11606
SWIDTH 960 0
DWIDTH 14 0
BBX 14 14 0 -2
BITMAP
0018
0024
0008
0010
36dc
1b60
1b60
1b60
1b60
1b60
1b60
3ff0
0000
0000
ENDCHAR
STARTCHAR 01-13-55
ENCODING 11607
SWIDTH 960 0
DWIDTH 14 0
BBX 14 14 0 -2
BITMAP
0000
e7fc
62d8
26d8
34d8
18d8
18d8
18d8
2cd8
24d8
46d8
e7fc
0000
0000
ENDCHAR
STARTCHAR 01-13-63
ENCODING 11615
SWIDTH 960 0
DWIDTH 14 0
BBX 14 14 0 -2
BITMAP
0000
0050
7e48
0848
4bfc
2d20
2924
7fd4
0958
0950
0974
0a5c
0a88
0000
ENDCHAR
STARTCHAR 01-13-64
ENCODING 11616
SWIDTH 960 0
DWIDTH 14 0
BBX 14 14 0 -2
BITMAP
0000
0360
01b0
01b0
0090
0000
0000
0000
0000
0000
0000
0000
0000
0000
ENDCHAR
STARTCHAR 01-13-65
ENCODING 11617
SWIDTH 960 0
DWIDTH 14 0
BBX 14 14 0 -2
BITMAP
0000
0000
0000
0000
0000
0000
0000
0000
6c00
3600
3600
1200
0000
0000
ENDCHAR
STARTCHAR 01-13-66
ENCODING 11618
SWIDTH 960 0
DWIDTH 14 0
BBX 14 14 0 -2
BITMAP
0000
e700
6200
7200
7260
5a90
5b18
5b18
4f18
4f18
4694
e66c
0004
0000
ENDCHAR
STARTCHAR 01-13-67
ENCODING 11619
SWIDTH 960 0
DWIDTH 14 0
BBX 14 14 0 -2
BITMAP
0000
e6cc
64c8
68d0
68d0
70e0
70e0
78f0
68d0
6cd8
66cc
eedc
0204
0000
ENDCHAR
STARTCHAR 01-13-68
ENCODING 11620
SWIDTH 960 0
DWIDTH 14 0
BBX 14 14 0 -2
BITMAP
0000
0000
ff70
22a0
2220
2220
23a0
2220
2220
2220
22a4
2778
0000
0000
ENDCHAR
STARTCHAR 01-13-69
ENCODING 11621
SWIDTH 960 0
DWIDTH 14 0
BBX 14 14 0 -2
BITMAP
0780
1860
2210
4208
4208
83c4
8204
8204
8204
4208
5fe8
2010
1860
0780
ENDCHAR
STARTCHAR 01-13-70
ENCODING 11622
SWIDTH 960 0
DWIDTH 14 0
BBX 14 14 0 -2
BITMAP
0780
1860
2210
4208
5fe8
9224
9224
9fe4
9224
4208
4208
2010
1860
0780
ENDCHAR
STARTCHAR 01-13-71
ENCODING 11623
SWIDTH 960 0
DWIDTH 14 0
BBX 14 14 0 -2
BITMAP
0780
1860
2010
5fe8
4208
8304
8384
82c4
8244
4208
4208
2010
1860
0780
ENDCHAR
STARTCHAR 01-13-72
ENCODING 11624
SWIDTH 960 0
DWIDTH 14 0
BBX 14 14 0 -2
BITMAP
0780
1860
2410
4408
5fe8
8404
87c4
8904
8904
5108
57e8
2010
1860
0780
ENDCHAR
STARTCHAR 01-13-73
ENCODING 11625
SWIDTH 960 0
DWIDTH 14 0
BBX 14 14 0 -2
BITMAP
0780
1860
2210
4208
5fe8
8404
87c4
8c44
8c44
57c8
6448
2010
1860
0780
ENDCHAR
STARTCHAR 01-13-74
ENCODING 11626
SWIDTH 960 0
DWIDTH 14 0
BBX 14 14 0 -2
BITMAP
0000
2850
4948
4948
bdf4
8944
9a44
9ffc
aa44
88e4
4958
4a48
2850
0000
ENDCHAR
STARTCHAR 01-13-75
ENCODING 11627
SWIDTH 960 0
DWIDTH 14 0
BBX 14 14 0 -2
BITMAP
0000
2410
4408
7ff8
8804
8fe4
9824
afe4
c824
8fe4
4828
4828
2870
0000
ENDCHAR
STARTCHAR 01-13-76
ENCODING 11628
SWIDTH 960 0
DWIDTH 14 0
BBX 14 14 0 -2
BITMAP
0000
2950
4928
4928
91f4
9f04
b104
d084
9084
90a4
50a8
5068
3030
0000
ENDCHAR
STARTCHAR 01-13-77
ENCODING 11629
SWIDTH 960 0
DWIDTH 14 0
BBX 14 14 0 -2
BITMAP
0000
0000
0e88
7a50
5a54
5e24
7aac
5a74
5e00
7a7c
4aa4
12bc
26a4
0000
ENDCHAR
STARTCHAR 01-13-78
ENCODING 11630
SWIDTH 960 0
DWIDTH 14 0
BBX 14 14 0 -2
BITMAP
0000
0000
09fc
0820
0820
7e20
0820
08b8
14a0
14a0
22a0
22a0
41fc
0000
ENDCHAR
STARTCHAR 01-13-79
ENCODING 11631
SWIDTH 960 0
DWIDTH 14 0
BBX 14 14 0 -2
BITMAP
0000
0000
0f7c
75d4
5554
59f4
7254
54d4
5f74
7254
5254
1e5c
1254
0000
ENDCHAR
STARTCHAR 01-13-83
ENCODING 11635
SWIDTH 960 0
DWIDTH 14 0
BBX 14 14 0 -2
BITMAP
00c0
01c0
0200
0200
0380
0340
05a0
05a0
02c0
01c0
0040
0040
0380
0300
ENDCHAR
STARTCHAR 01-13-88
ENCODING 11640
SWIDTH 960 0
DWIDTH 14 0
BBX 14 14 0 -2
BITMAP
0000
2000
2000
2000
2000
2000
2000
2000
2000
2000
2000
3ff8
0000
0000
ENDCHAR
STARTCHAR 01-13-89
ENCODING 11641
SWIDTH 960 0
DWIDTH 14 0
BBX 14 14 0 -2
BITMAP
0000
0008
0018
0028
0048
0088
0108
0208
0408
0808
1008
3ff8
0000
0000
ENDCHAR
STARTCHAR 01-13-93
ENCODING 11645
SWIDTH 960 0
DWIDTH 14 0
BBX 14 14 0 -2
BITMAP
0100
0380
07c0
07c0
1390
3938
7c7c
7c7c
3938
1390
07c0
07c0
0380
0100
ENDCHAR
STARTCHAR 01-13-94
ENCODING 11646
SWIDTH 960 0
DWIDTH 14 0
BBX 14 14 0 -2
BITMAP
0000
0000
07f8
4904
71f8
4240
4580
7840
4180
7040
4980
0700
0000
0000
ENDCHAR
STARTCHAR 01-14-02
ENCODING 11810
SWIDTH 960 0
DWIDTH 14 0
BBX 14 14 0 -2
BITMAP
0120
0110
0108
7ffc
0100
0100
3100
2900
4500
0300
0300
04c0
1830
600c
ENDCHAR
STARTCHAR 01-14-03
ENCODING 11811
SWIDTH 960 0
DWIDTH 14 0
BBX 14 14 0 -2
BITMAP
0400
0400
043c
07c0
3c08
0408
03f8
0000
2288
2cb0
71c0
2084
2284
1e7c
ENDCHAR
STARTCHAR 01-14-04
ENCODING 11812
SWIDTH 960 0
DWIDTH 14 0
BBX 14 14 0 -2
BITMAP
0000
0100
0100
0100
0100
0100
0100
0100
0100
0100
0100
0100
0100
0100
ENDCHAR
STARTCHAR 01-14-05
ENCODING 11813
SWIDTH 960 0
DWIDTH 14 0
BBX 14 14 0 -2
BITMAP
0000
0110
0160
0380
1d08
0130
03c0
1d08
0130
01c0
0700
3900
0100
0100
ENDCHAR
STARTCHAR 01-14-06
ENCODING 11814
SWIDTH 960 0
DWIDTH 14 0
BBX 14 14 0 -2
BITMAP
0000
0100
0100
3ff0
0100
0100
1fe0
0100
0100
7ffc
0100
0100
0100
0100
ENDCHAR
STARTCHAR 01-14-07
ENCODING 11815
SWIDTH 960 0
DWIDTH 14 0
BBX 14 14 0 -2
BITMAP
0000
0000
3ff0
0000
0000
7ffc
0100
0100
0100
0100
0100
0100
0100
0300
ENDCHAR
STARTCHAR 01-14-08
ENCODING 11816
SWIDTH 960 0
DWIDTH 14 0
BBX 14 14 0 -2
BITMAP
0900
0900
0900
11fc
1200
33f0
5420
1040
1080
1100
1200
1208
1208
11f8
ENDCHAR
STARTCHAR 01-14-09
ENCODING 11817
SWIDTH 960 0
DWIDTH 14 0
BBX 14 14 0 -2
BITMAP
08e0
0820
0920
1120
1110
3210
53f8
1494
1090
1090
1110
1110
1210
1460
ENDCHAR
STARTCHAR 01-14-10
ENCODING 11818
SWIDTH 960 0
DWIDTH 14 0
BBX 14 14 0 -2
BITMAP
0840
0840
0840
13fc
1040
3040
5078
1048
1048
1088
1088
1108
1208
1430
ENDCHAR
STARTCHAR 01-14-11
ENCODING 11819
SWIDTH 960 0
DWIDTH 14 0
BBX 14 14 0 -2
BITMAP
0800
0bfc
0888
1070
1040
33fc
5044
1048
1050
1040
1040
1040
1040
10c0
ENDCHAR
STARTCHAR 01-14-12
ENCODING 11820
SWIDTH 960 0
DWIDTH 14 0
BBX 14 14 0 -2
BITMAP
0800
0ff0
0910
1120
1120
31f8
5188
1188
1250
1250
1220
1450
1488
1b04
ENDCHAR
STARTCHAR 01-14-13
ENCODING 11821
SWIDTH 960 0
DWIDTH 14 0
BBX 14 14 0 -2
BITMAP
0900
0900
0900
11fc
1248
3450
5040
1160
1150
1148
1244
1444
1040
10c0
ENDCHAR
STARTCHAR 01-14-14
ENCODING 11822
SWIDTH 960 0
DWIDTH 14 0
BBX 14 14 0 -2
BITMAP
0840
0840
0840
17fc
10a0
3120
51fc
1324
1524
1924
1124
1138
1020
1020
ENDCHAR
STARTCHAR 01-14-15
ENCODING 11823
SWIDTH 960 0
DWIDTH 14 0
BBX 14 14 0 -2
BITMAP
0840
0840
0840
13f8
1040
3040
5040
17fc
1040
1090
1088
1138
17c4
1004
ENDCHAR
STARTCHAR 01-14-16
ENCODING 11824
SWIDTH 960 0
DWIDTH 14 0
BBX 14 14 0 -2
BITMAP
0840
0820
0828
1088
1088
3290
5290
12b0
16a8
14c4
1084
1188
1288
1478
ENDCHAR
STARTCHAR 01-14-17
ENCODING 11825
SWIDTH 960 0
DWIDTH 14 0
BBX 14 14 0 -2
BITMAP
0900
0900
09f0
1210
1320
34a0
5040
10a0
1310
148c
1040
1010
1060
1180
ENDCHAR
STARTCHAR 01-14-18
ENCODING 11826
SWIDTH 960 0
DWIDTH 14 0
BBX 14 14 0 -2
BITMAP
0800
0bf8
0a08
1208
12e8
32a8
52a8
12a8
12a8
12e8
1208
1208
13f8
1208
ENDCHAR
STARTCHAR 01-14-19
ENCODING 11827
SWIDTH 960 0
DWIDTH 14 0
BBX 14 14 0 -2
BITMAP
0840
0840
0bf8
1048
1050
37fc
5020
10c0
1098
11e0
1280
1488
1088
1078
ENDCHAR
STARTCHAR 01-14-20
ENCODING 11828
SWIDTH 960 0
DWIDTH 14 0
BBX 14 14 0 -2
BITMAP
08f0
0810
0910
1108
1208
35f4
5110
11f0
1110
11f0
1110
1110
1110
1130
ENDCHAR
STARTCHAR 01-14-21
ENCODING 11829
SWIDTH 960 0
DWIDTH 14 0
BBX 14 14 0 -2
BITMAP
0840
0840
0a48
1148
1150
3040
57fc
10a0
10a0
10a0
1120
1124
1224
141c
ENDCHAR
STARTCHAR 01-14-22
ENCODING 11830
SWIDTH 960 0
DWIDTH 14 0
BBX 14 14 0 -2
BITMAP
0840
0860
0890
17e8
1148
3140
53f8
1440
1040
17fc
1040
1040
1040
1040
ENDCHAR
STARTCHAR 01-14-23
ENCODING 11831
SWIDTH 960 0
DWIDTH 14 0
BBX 14 14 0 -2
BITMAP
0800
0bfc
0a04
1204
13fc
3204
52f4
1294
1294
1294
12f4
1294
1204
120c
ENDCHAR
STARTCHAR 01-14-24
ENCODING 11832
SWIDTH 960 0
DWIDTH 14 0
BBX 14 14 0 -2
BITMAP
0900
0900
09fc
1200
15f0
3110
5150
17fc
1210
1250
13fc
1210
1010
1060
ENDCHAR
STARTCHAR 01-14-25
ENCODING 11833
SWIDTH 960 0
DWIDTH 14 0
BBX 14 14 0 -2
BITMAP
0800
0bfc
0840
1040
11f0
3090
5090
17fc
1000
11f8
1108
1108
11f8
1108
ENDCHAR
STARTCHAR 01-14-26
ENCODING 11834
SWIDTH 960 0
DWIDTH 14 0
BBX 14 14 0 -2
BITMAP
0840
0840
0840
17fc
1150
3150
5150
12e8
1444
10a0
10a0
1110
1208
1404
ENDCHAR
STARTCHAR 01-14-27
ENCODING 11835
SWIDTH 960 0
DWIDTH 14 0
BBX 14 14 0 -2
BITMAP
0a00
0a00
0a00
17fc
1524
3924
5124
17e4
1124
1124
12a4
12bc
14a4
1800
ENDCHAR
STARTCHAR 01-14-28
ENCODING 11836
SWIDTH 960 0
DWIDTH 14 0
BBX 14 14 0 -2
BITMAP
0888
0888
0910
17bc
1110
3110
5110
17bc
1110
1110
1210
1210
1410
1810
ENDCHAR
STARTCHAR 01-14-29
ENCODING 11837
SWIDTH 960 0
DWIDTH 14 0
BBX 14 14 0 -2
BITMAP
08a0
08a0
08a0
13f8
12a8
32a8
53f8
12a8
12a8
17fc
10a0
1090
1108
1208
ENDCHAR
STARTCHAR 01-14-30
ENCODING 11838
SWIDTH 960 0
DWIDTH 14 0
BBX 14 14 0 -2
BITMAP
0840
0950
0948
1244
1444
33f8
5208
12e8
12a8
12a8
12a8
12e8
1208
1218
ENDCHAR
STARTCHAR 01-14-31
ENCODING 11839
SWIDTH 960 0
DWIDTH 14 0
BBX 14 14 0 -2
BITMAP
0840
0840
0bfc
1208
15f0
3000
5000
17fc
1040
1150
1148
1244
1444
10c0
ENDCHAR
STARTCHAR 01-14-32
ENCODING 11840
SWIDTH 960 0
DWIDTH 14 0
BBX 14 14 0 -2
BITMAP
0800
0bf8
0a48
1248
13f8
3248
53f8
1040
17fc
10e0
1150
1248
1444
1040
ENDCHAR
STARTCHAR 01-14-33
ENCODING 11841
SWIDTH 960 0
DWIDTH 14 0
BBX 14 14 0 -2
BITMAP
0910
0910
0ffc
1110
1040
33f8
5248
1248
17fc
1040
1060
1090
1108
1604
ENDCHAR
STARTCHAR 01-14-34
ENCODING 11842
SWIDTH 960 0
DWIDTH 14 0
BBX 14 14 0 -2
BITMAP
0800
0ff8
0aa8
12a8
13b0
32b0
52a8
13a8
12a4
12a4
13a4
16b8
10a0
10a0
ENDCHAR
STARTCHAR 01-14-35
ENCODING 11843
SWIDTH 960 0
DWIDTH 14 0
BBX 14 14 0 -2
BITMAP
0818
09f0
0948
1124
1204
3020
51f8
1128
13fc
1128
13fc
1108
1108
1118
ENDCHAR
STARTCHAR 01-14-36
ENCODING 11844
SWIDTH 960 0
DWIDTH 14 0
BBX 14 14 0 -2
BITMAP
0888
0910
0ffc
10a0
13f8
30a8
57fc
10a8
13f8
10a0
11b0
12a8
14a4
10a0
ENDCHAR
STARTCHAR 01-14-37
ENCODING 11845
SWIDTH 960 0
DWIDTH 14 0
BBX 14 14 0 -2
BITMAP
0910
0910
0fd0
111c
17e8
3568
57c8
1568
17d0
1110
17d0
1128
1128
1144
ENDCHAR
STARTCHAR 01-14-38
ENCODING 11846
SWIDTH 960 0
DWIDTH 14 0
BBX 14 14 0 -2
BITMAP
0800
0ffc
0920
17f8
1528
37f8
5210
1310
15fc
1550
1b50
11fc
1210
1c10
ENDCHAR
STARTCHAR 01-14-39
ENCODING 11847
SWIDTH 960 0
DWIDTH 14 0
BBX 14 14 0 -2
BITMAP
0910
08a0
0ffc
1040
13f8
3040
57fc
1150
17fc
1000
11f8
1108
11f8
1108
ENDCHAR
STARTCHAR 01-14-40
ENCODING 11848
SWIDTH 960 0
DWIDTH 14 0
BBX 14 14 0 -2
BITMAP
0910
0918
0fd4
1014
1790
34fc
5490
1790
1130
15b0
1570
1954
1194
130c
ENDCHAR
STARTCHAR 01-14-41
ENCODING 11849
SWIDTH 960 0
DWIDTH 14 0
BBX 14 14 0 -2
BITMAP
08e0
0820
0910
17fc
1248
3358
5248
13f8
11f0
1110
11f0
1110
11f0
1110
ENDCHAR
STARTCHAR 01-14-42
ENCODING 11850
SWIDTH 960 0
DWIDTH 14 0
BBX 14 14 0 -2
BITMAP
0a90
0a90
0fd0
129c
1228
37e8
5848
1768
1550
1550
1750
14a8
10a8
1344
ENDCHAR
STARTCHAR 01-14-43
ENCODING 11851
SWIDTH 960 0
DWIDTH 14 0
BBX 14 14 0 -2
BITMAP
0840
0ffc
0bf8
12e8
12a8
32e8
53f8
11f0
1110
11f0
1110
11f0
1000
17fc
ENDCHAR
STARTCHAR 01-14-44
ENCODING 11852
SWIDTH 960 0
DWIDTH 14 0
BBX 14 14 0 -2
BITMAP
0840
08f0
0f20
13fc
12a8
3298
5370
13fc
1270
1270
12f8
1488
14f8
1088
ENDCHAR
STARTCHAR 01-14-45
ENCODING 11853
SWIDTH 960 0
DWIDTH 14 0
BBX 14 14 0 -2
BITMAP
0800
0ffc
0950
164c
13f8
32d8
53f8
12d8
1368
12d8
13f8
12d8
1368
1258
ENDCHAR
STARTCHAR 01-14-46
ENCODING 11854
SWIDTH 960 0
DWIDTH 14 0
BBX 14 14 0 -2
BITMAP
1100
11fc
1290
2c60
299c
6bf8
2b58
2ae8
2bf8
2840
2bf8
27fc
2348
24a4
ENDCHAR
STARTCHAR 01-14-47
ENCODING 11855
SWIDTH 960 0
DWIDTH 14 0
BBX 14 14 0 -2
BITMAP
0580
0440
0830
720c
0240
04e0
1f10
0000
0480
0480
0880
0884
1084
607c
ENDCHAR
STARTCHAR 01-14-48
ENCODING 11856
SWIDTH 960 0
DWIDTH 14 0
BBX 14 14 0 -2
BITMAP
0000
7ff8
0408
0450
0820
1ff0
7110
1110
1ff0
1490
0480
0884
0884
707c
ENDCHAR
STARTCHAR 01-14-49
ENCODING 11857
SWIDTH 960 0
DWIDTH 14 0
BBX 14 14 0 -2
BITMAP
0000
1c70
1450
1450
17d0
1010
1010
1010
1ff0
0440
0440
0844
1044
603c
ENDCHAR
STARTCHAR 01-14-50
ENCODING 11858
SWIDTH 960 0
DWIDTH 14 0
BBX 14 14 0 -2
BITMAP
0100
7ffc
0000
0fe0
0020
1010
6fec
0820
0820
0fe0
0440
0844
1044
603c
ENDCHAR
STARTCHAR 01-14-51
ENCODING 11859
SWIDTH 960 0
DWIDTH 14 0
BBX 14 14 0 -2
BITMAP
0100
0200
1ff0
1010
1010
1ff0
1010
1010
1ff0
1010
0820
0810
1008
2008
ENDCHAR
STARTCHAR 01-14-52
ENCODING 11860
SWIDTH 960 0
DWIDTH 14 0
BBX 14 14 0 -2
BITMAP
0000
3ffc
2008
4fe0
0820
0820
0fe0
0820
0820
0fe0
0820
0820
7ffc
0000
ENDCHAR
STARTCHAR 01-14-53
ENCODING 11861
SWIDTH 960 0
DWIDTH 14 0
BBX 14 14 0 -2
BITMAP
0040
0040
20a0
1110
1208
05f4
0040
17fc
1040
2150
2148
4244
4444
00c0
ENDCHAR
STARTCHAR 01-14-54
ENCODING 11862
SWIDTH 960 0
DWIDTH 14 0
BBX 14 14 0 -2
BITMAP
0040
03f8
2040
13f8
1040
07fc
0000
13f8
1248
2248
23f8
4208
4208
0218
ENDCHAR
STARTCHAR 01-14-55
ENCODING 11863
SWIDTH 960 0
DWIDTH 14 0
BBX 14 14 0 -2
BITMAP
0000
0bdc
4a94
2bd4
2a54
0a5c
0bd0
2a90
2a94
2bcc
4000
4a48
4a48
1124
ENDCHAR
STARTCHAR 01-14-56
ENCODING 11864
SWIDTH 960 0
DWIDTH 14 0
BBX 14 14 0 -2
BITMAP
0200
0100
0100
0fc0
0840
0840
0840
0840
0840
0840
1040
1044
2044
403c
ENDCHAR
STARTCHAR 01-14-57
ENCODING 11865
SWIDTH 960 0
DWIDTH 14 0
BBX 14 14 0 -2
BITMAP
0000
1ff0
1010
17d0
1110
1210
17d0
1450
17d0
1450
1454
27cc
200c
4004
ENDCHAR
STARTCHAR 01-14-58
ENCODING 11866
SWIDTH 960 0
DWIDTH 14 0
BBX 14 14 0 -2
BITMAP
0000
0000
3ff8
0008
0008
0048
0188
0608
1808
0008
0008
0010
0020
01c0
ENDCHAR
STARTCHAR 01-14-59
ENCODING 11867
SWIDTH 960 0
DWIDTH 14 0
BBX 14 14 0 -2
BITMAP
0000
03f8
0088
7c88
1088
1088
1088
1088
1088
1d08
6108
0110
0210
0460
ENDCHAR
STARTCHAR 01-14-60
ENCODING 11868
SWIDTH 960 0
DWIDTH 14 0
BBX 14 14 0 -2
BITMAP
0008
3f28
0028
0028
0028
7fa8
1228
1228
1228
1228
1208
2288
2308
4618
ENDCHAR
STARTCHAR 01-14-61
ENCODING 11869
SWIDTH 960 0
DWIDTH 14 0
BBX 14 14 0 -2
BITMAP
0000
0ff0
0110
0210
0210
0c60
0000
7efc
1224
1224
1224
2244
2244
4c98
ENDCHAR
STARTCHAR 01-14-62
ENCODING 11870
SWIDTH 960 0
DWIDTH 14 0
BBX 14 14 0 -2
BITMAP
0404
1514
1514
1514
3594
3594
4e54
0414
0414
3f94
0404
0404
07c4
781c
ENDCHAR
STARTCHAR 01-14-63
ENCODING 11871
SWIDTH 960 0
DWIDTH 14 0
BBX 14 14 0 -2
BITMAP
1208
1128
1fa8
7228
0a28
0ca8
73a8
14a8
1fa8
7228
0a08
0488
1b88
6098
ENDCHAR
STARTCHAR 01-14-64
ENCODING 11872
SWIDTH 960 0
DWIDTH 14 0
BBX 14 14 0 -2
BITMAP
0484
1494
1514
2c14
0a14
1194
2054
0494
1494
1514
2c04
0a04
1104
60dc
ENDCHAR
STARTCHAR 01-14-65
ENCODING 11873
SWIDTH 960 0
DWIDTH 14 0
BBX 14 14 0 -2
BITMAP
0808
1e48
1248
1e48
1e48
1248
3f48
2948
3f48
2948
3f08
7f08
1208
2218
ENDCHAR
STARTCHAR 01-14-66
ENCODING 11874
SWIDTH 960 0
DWIDTH 14 0
BBX 14 14 0 -2
BITMAP
0020
7f20
1220
0c20
3ffc
2924
2924
3f24
2924
2924
3f44
2944
2984
4b18
ENDCHAR
STARTCHAR 01-14-67
ENCODING 11875
SWIDTH 960 0
DWIDTH 14 0
BBX 14 14 0 -2
BITMAP
0840
0840
1e40
2440
7ff8
2a48
2a48
3e48
3488
1488
1508
2634
2404
43fc
ENDCHAR
STARTCHAR 01-14-68
ENCODING 11876
SWIDTH 960 0
DWIDTH 14 0
BBX 14 14 0 -2
BITMAP
0820
2a20
2920
7f20
14fc
7f24
2224
4124
3ea4
2224
3e44
2044
2184
1f18
ENDCHAR
STARTCHAR 01-14-69
ENCODING 11877
SWIDTH 960 0
DWIDTH 14 0
BBX 14 14 0 -2
BITMAP
0040
3e40
0440
0f40
79f8
0848
1848
3f48
3548
3548
3548
3f88
7088
0130
ENDCHAR
STARTCHAR 01-14-70
ENCODING 11878
SWIDTH 960 0
DWIDTH 14 0
BBX 14 14 0 -2
BITMAP
0040
7e40
4240
5e40
43f8
5e48
3c48
2448
3c48
2448
3c88
2488
3d08
2430
ENDCHAR
STARTCHAR 01-14-71
ENCODING 11879
SWIDTH 960 0
DWIDTH 14 0
BBX 14 14 0 -2
BITMAP
0040
3e40
2240
3e40
01f8
3e48
2248
3e48
2248
3e48
2248
3e88
1488
2330
ENDCHAR
STARTCHAR 01-14-72
ENCODING 11880
SWIDTH 960 0
DWIDTH 14 0
BBX 14 14 0 -2
BITMAP
1440
7f40
1440
1c40
3ff8
2a48
3e48
0848
3e48
0848
3e48
0888
0e88
7130
ENDCHAR
STARTCHAR 01-14-73
ENCODING 11881
SWIDTH 960 0
DWIDTH 14 0
BBX 14 14 0 -2
BITMAP
1000
10f8
3ea8
12f8
12a8
24f8
0000
2220
7fb4
2aec
2ae8
2aa0
2aa4
5d9c
ENDCHAR
STARTCHAR 01-14-74
ENCODING 11882
SWIDTH 960 0
DWIDTH 14 0
BBX 14 14 0 -2
BITMAP
0800
0800
0800
0ff8
1008
1008
27c8
4008
0008
0fe8
0008
0008
0010
0060
ENDCHAR
ENDFONT
